<svg width="461" height="358" fill="none" xmlns="http://www.w3.org/2000/svg"><g filter="url(#a)"><path d="M307.834 232.822c-1.365-1.512 1.853-10.348 17.125-10.973 15.271-.625 21.389 4.935 21.411 10.973.012 2.672-38.536 0-38.536 0Z" fill="#455A64"/><path d="m300.295 1.672-16.966 104.92h154.942L456.942.546 300.295 1.672Z" fill="#F5F5F5"/><path d="M298.748 11.212c.069-.364 156.42-.591 156.42-.591L456.942.546 300.295 1.683l-1.547 9.552" fill="#E0E0E0"/><path d="M306.845 6.39a1.449 1.449 0 0 1-.884 1.343 1.443 1.443 0 1 1-.56-2.775 1.429 1.429 0 0 1 1.333.882c.073.174.111.362.111.55ZM313.895 6.39a1.429 1.429 0 0 1-.885 1.324 1.433 1.433 0 1 1 .885-1.323ZM320.956 6.39a1.44 1.44 0 0 1-.883 1.343 1.447 1.447 0 0 1-1.977-1.045 1.45 1.45 0 0 1 .612-1.486c.238-.159.518-.244.804-.244a1.434 1.434 0 0 1 1.444 1.433Z" fill="#263238"/><path d="m338.456 58.345-19.388 22.424a27.52 27.52 0 0 1-12.064-22.367c0-15.59 14.202-28.428 31.452-28.428s31.452 12.827 31.452 28.428l-31.452-.057Z" fill="#EE4248"/><path d="M340.946 61.904a2.718 2.718 0 0 1-.329.444l-1.012 1.205-3.844 4.548c-3.343 3.912-8.096 9.438-13.793 16.09v-.364a31.498 31.498 0 0 0 14.441 5.368 33.195 33.195 0 0 0 17.171-2.593 31.05 31.05 0 0 0 12.86-10.382 28.935 28.935 0 0 0 3.514-6.88 28.143 28.143 0 0 0 1.353-7.038l.25.262-22.173-.376-6.232-.136-1.648-.057a3.122 3.122 0 0 1-.58 0 2.82 2.82 0 0 1 .545 0h7.824l22.264.148h.273v.273a27.874 27.874 0 0 1-1.342 7.198 29.195 29.195 0 0 1-3.559 7.027 31.404 31.404 0 0 1-13.156 10.632 33.875 33.875 0 0 1-17.477 2.615 32.021 32.021 0 0 1-14.669-5.526l-.227-.16.181-.215 14.032-16 3.923-4.434 1.046-1.137a3.66 3.66 0 0 1 .364-.512ZM351.828 43.221a1.763 1.763 0 1 0 0-3.525 1.763 1.763 0 0 0 0 3.526Z" fill="#263238"/><path d="M388.602 28.564a9.736 9.736 0 0 1-1.66.114l-4.548.09c-3.81 0-9.097.092-14.885.092h-2.774l.204-.08a856.781 856.781 0 0 1-9.256 9.097l-2.786 2.66a5.772 5.772 0 0 1-1.069.91 8.21 8.21 0 0 1 .921-1.057c.694-.739 1.592-1.672 2.661-2.786 2.274-2.354 5.481-5.606 9.097-9.267l.08-.08h2.99c5.811 0 11.076 0 14.885.08l4.548.102a8.435 8.435 0 0 1 1.592.125Z" fill="#263238"/><path d="M428.537 50.715c.008-.203.034-.405.08-.603.068-.409.159-.966.284-1.683l1.137-6.356 4.105-22.81.239.284-44.04.057.284-.239v.512l-.102.523-.193 1.057-.387 2.093c-.262 1.387-.512 2.763-.773 4.127-.501 2.73-.997 5.413-1.49 8.051-.989 5.253-1.933 10.234-2.808 15.021l-.273-.318 31.725.125 9.097.08h3.274H425.524l-9.006.068-31.839.125h-.318l.057-.319c.875-4.741 1.796-9.779 2.774-15.043.478-2.627.978-5.31 1.478-8.04.262-1.376.512-2.752.774-4.139.125-.694.25-1.387.386-2.092l.194-1.046.091-.523.056-.273V19.126l.296-.25 44.04.057h.159l-.057.284c-1.819 9.518-3.32 17.375-4.366 22.89-.535 2.695-.944 4.81-1.24 6.3l-.329 1.626a7.899 7.899 0 0 1-.137.682ZM354.592 78.676a1.762 1.762 0 1 0 0-3.524 1.762 1.762 0 0 0 0 3.524Z" fill="#263238"/><path d="M386.59 76.914c0 .17-7.164.296-15.999.296-8.836 0-16-.126-16-.296 0-.17 7.164-.296 16-.296 8.835 0 15.999.137 15.999.296Z" fill="#263238"/><path d="M428.537 90.65c.014-.146.041-.29.08-.432a244.652 244.652 0 0 1 1.421-5.856c.99-4.025 2.4-9.768 4.139-16.83l.216.274-45.416.068.285-.216v.352l-.103.387-.193.75-.375 1.524c-.262 1-.512 2.001-.762 3.002l-1.615 5.959c-.978 3.854-1.921 7.584-2.831 11.143l-.262-.341 32.578.125 9.416.068H428.537h-3.309l-9.369.069-32.738.125h-.363l.09-.353c.899-3.559 1.831-7.3 2.798-11.155.485-1.933.981-3.893 1.489-5.879l.751-3.002.386-1.512.194-.762.091-.386v-.353l.284-.227 45.416.08h.409l-.068.272c-1.842 7.096-3.332 12.86-4.378 16.897-.523 1.945-.932 3.48-1.217 4.549-.136.489-.238.875-.318 1.137-.08.261-.148.534-.148.523ZM424.955 28.962c0 .17-6.743.296-15.066.296-8.324 0-15.067-.125-15.067-.296 0-.17 6.743-.295 15.067-.295 8.323 0 15.066.136 15.066.295ZM424.603 33.897c0 .17-6.823.296-15.146.296-8.324 0-15.158-.125-15.158-.296 0-.17 6.823-.295 15.158-.295 8.335 0 15.146.136 15.146.295ZM423.727 38.696c0 .159-6.549.296-14.623.296-8.073 0-14.634-.137-14.634-.296 0-.16 6.549-.296 14.634-.296s14.623.091 14.623.296Z" fill="#263238"/><path d="M424.25 76.368c0 .16-6.424.296-14.361.296s-14.362-.137-14.362-.296c0-.16 6.436-.296 14.362-.296 7.925 0 14.361.148 14.361.296ZM422.488 81.826c0 .17-5.481.296-12.247.296-6.765 0-12.246-.125-12.246-.296 0-.17 5.481-.295 12.246-.295 6.766 0 12.247.136 12.247.295Z" fill="#263238"/><path d="M239.471 196.071c-.546 3.195-15.715 36.762-5.924 36.762h49.214s-5.083-4.776 10.302-36.762h-53.592Z" fill="#455A64"/><path d="m207.632 84.032-20.115 117.554h169.667l20.809-121.682-170.361 4.128Z" fill="#455A64"/><path d="m213.398 89.763-16.955 104.932h154.931l18.671-106.046-156.647 1.114Z" fill="#FAFAFA"/><path d="m377.993 79.904 3.207 2.16-21.605 122.717H191.997l-4.48-3.195h169.667l20.809-121.682Z" fill="#263238"/><path d="M211.862 99.315c.057-.376 156.409-.591 156.409-.591l1.774-10.075-156.647 1.137-1.536 9.552" fill="#EBEBEB"/><path d="M326.96 185.382v-.296l.136-.875c.144-.834.338-1.971.58-3.411.535-3.059 1.285-7.448 2.218-12.895 1.933-11.03 4.628-26.381 7.686-43.801v-.251h12.804l-.057.353c-4.741 25.687-8.892 48.259-11.291 61.233v.136h-.125l-8.915-.091h-2.831 2.967l8.813-.091-.159.126 11.007-61.279.296.341h-12.19l.284-.239c-3.15 17.318-5.913 32.567-7.96 43.54-1 5.458-1.819 9.859-2.388 12.929-.284 1.49-.5 2.661-.659 3.502-.08.375-.137.682-.182.91a2.254 2.254 0 0 1-.034.159ZM307.311 185.382a4.29 4.29 0 0 1 .125-.819c.102-.602.25-1.41.432-2.433.409-2.195.978-5.299 1.694-9.097 1.49-7.88 3.571-18.842 5.947-31.373v-.238h12.804l-.068.352c-3.593 17.819-6.823 33.658-8.824 43.699v.148h-.148l-8.903-.103h-2.275a5.369 5.369 0 0 1-.761 0H310.54l8.779-.102-.182.148c1.978-10.052 5.094-25.903 8.596-43.744l.284.352h-12.258l.285-.227c-2.468 12.417-4.628 23.288-6.186 31.099-.785 3.878-1.41 6.994-1.865 9.188l-.512 2.491c0 .261-.113.477-.147.648l-.023.011ZM287.582 185.382a2.212 2.212 0 0 1 0-.364l.182-1.137c.171-1.001.409-2.433.728-4.275.659-3.764 1.603-9.188 2.786-15.92 2.41-13.645 5.765-32.532 9.563-53.944v-.239h12.803l-.056.341c-5.936 32.51-11.178 60.835-13.953 75.538v.125h-.125l-8.949-.091h-3.024 3.138l8.847-.079-.137.113c2.593-14.782 7.71-43.085 13.645-75.583l.296.353H301.17l.285-.251a63528.644 63528.644 0 0 1-9.791 53.672c-1.251 6.754-2.274 12.201-2.956 15.976l-.819 4.332c-.091.478-.159.853-.216 1.137l-.091.296ZM267.887 185.382c.009-.191.032-.381.069-.568.079-.444.17-1.001.284-1.706.261-1.569.637-3.753 1.137-6.47.989-5.629 2.365-13.441 3.946-22.469v-.239h12.792l-.068.352c-2.354 12.281-4.469 23.334-5.97 31.146v.17h-.159l-8.869-.114-2.4-.102a6.409 6.409 0 0 1-.784 0h3.263l8.733-.114-.205.16a24724.13 24724.13 0 0 0 5.788-31.18l.296.353h-12.178l.272-.228c-1.682 8.927-3.127 16.647-4.184 22.208-.523 2.729-.955 4.935-1.262 6.515-.148.717-.262 1.308-.353 1.752-.039.18-.088.359-.148.534ZM248.181 185.382v-.239c0-.159 0-.443.103-.739.114-.693.261-1.649.455-2.877.42-2.558 1.012-6.22 1.751-10.768 1.546-9.256 3.684-22.128 6.129-36.785v-.239h12.804l-.069.352c-3.752 21.185-7.061 39.913-9.096 51.329v.148h-.137l-8.892-.102h-2.331a6.054 6.054 0 0 1-.762 0H251.331l8.79-.091-.17.136 8.846-51.374.296.352H256.96l.284-.238c-2.536 14.554-4.764 27.29-6.368 36.512-.818 4.548-1.466 8.244-1.933 10.825-.227 1.24-.398 2.274-.534 2.923l-.148.773-.08.102ZM228.51 185.382a1.216 1.216 0 0 1 0-.33c0-.25.091-.58.159-1 .159-.921.375-2.275.659-3.912.58-3.411 1.433-8.403 2.479-14.566 2.161-12.452 5.174-29.781 8.585-49.396v-.239h12.804l-.057.353c-5.299 29.473-9.984 55.24-12.565 69.124v.125h-.125l-8.926-.091H228.703h2.934l8.835-.091-.148.125c2.411-13.918 6.982-39.707 12.281-69.17l.284.342h-12.178l.284-.239c-3.491 19.512-6.584 36.74-8.801 49.123-1.137 6.185-2.036 11.155-2.672 14.611-.307 1.706-.558 3.025-.728 3.969-.091.432-.148.773-.205 1.035-.057.261-.079.227-.079.227ZM219.947 94.493a1.44 1.44 0 0 1-.883 1.343 1.447 1.447 0 0 1-1.976-1.045 1.44 1.44 0 0 1 .612-1.486 1.44 1.44 0 0 1 1.82.175c.271.268.424.632.427 1.013ZM225.564 95.926a1.433 1.433 0 1 0 0-2.865 1.433 1.433 0 0 0 0 2.865ZM234.059 94.493a1.445 1.445 0 0 1-2.861.29 1.439 1.439 0 0 1 1.428-1.723 1.444 1.444 0 0 1 1.433 1.433ZM208.815 185.382s0-.296.125-.876c.125-.579.239-1.489.421-2.581.398-2.274.955-5.606 1.649-9.688 1.455-8.346 3.468-19.945 5.776-33.18v-.239h12.804l-.068.352c-3.514 18.944-6.641 35.751-8.586 46.258v.147h-.136l-8.904-.102h-2.274a6.23 6.23 0 0 1-.773 0h3.207l8.789-.102-.181.148 8.357-46.292.285.341H217.07l.285-.239c-2.4 13.134-4.549 24.641-6.004 32.908-.774 4.105-1.388 7.414-1.831 9.734-.205 1.137-.375 2.001-.5 2.638l-.137.693a.87.87 0 0 1-.068.08Z" fill="#263238"/><path d="M341.731 139.113h-64.906l3.707-21.787h65.361l-4.162 21.787Z" fill="#EE4248"/><path d="m276.825 139.113-1.262 7.608s8.528-7.903 8.392-7.903h-7.073" fill="#EE4248"/><path d="M336.102 124.9c0 .159-10.814.295-24.14.295-13.327 0-24.152-.136-24.152-.295 0-.16 10.813-.296 24.152-.296 13.338 0 24.14.136 24.14.296ZM335.465 130.164c0 .16-10.813.296-24.14.296s-24.152-.136-24.152-.296c0-.159 10.814-.295 24.152-.295 13.338 0 24.14.125 24.14.295Z" fill="#FAFAFA"/><path d="M441.625 240.361H256.71v107.9h184.915v-107.9Z" fill="#263238"/><path d="M340.946 240.361H256.71v107.9h84.236v-107.9Z" fill="#455A64"/><path d="M332.327 277.01v-2.115c0-1.399 0-3.412-.057-5.993 0-5.185-.057-12.656-.114-21.866l.216.216-67.76.079c-.261.273.353-.352.296-.284v29.963l-.273-.273 48.566.125 14.089.08h5.105c-.102.01-.205.01-.307 0h-4.673l-14.021.079-48.759.137h-.284v-30.111c-.068 0 .557-.568.296-.307l67.68.046h.216v.204c0 9.268-.091 16.773-.114 22.003 0 2.559 0 4.549-.057 5.936v1.535a3.7 3.7 0 0 1-.045.546Z" fill="#263238"/><path d="M301.364 262.023s-.068-.25-.205-.671a2.872 2.872 0 0 0-1.057-1.444 2.665 2.665 0 0 0-3.748.629 2.615 2.615 0 0 0 1.235 3.942 2.725 2.725 0 0 0 2.513-.33 2.876 2.876 0 0 0 1.057-1.444c.137-.421.148-.682.205-.682.057 0 .091.261 0 .739a2.925 2.925 0 0 1-1.035 1.717 3.063 3.063 0 0 1-2.945.512 3.142 3.142 0 0 1-1.523-4.779c.377-.53.909-.931 1.523-1.146a3.1 3.1 0 0 1 2.945.501 2.934 2.934 0 0 1 1.035 1.728c.091.478.034.739 0 .728ZM332.327 310.009v-2.127c0-1.398 0-3.411-.057-5.981 0-5.197-.057-12.656-.113-21.867l.216.217-67.76.079.295-.296V309.986l-.273-.285 48.566.137 14.089.08h4.764c.114-.01.228-.01.341 0h-4.98l-14.021.079-48.759.137h-.284V280.057l.296-.295 67.76.079h.216v.216c0 9.268-.091 16.773-.114 21.992 0 2.558 0 4.548-.057 5.947v1.524a3.984 3.984 0 0 1-.125.489Z" fill="#263238"/><path d="M301.364 295.021s-.068-.261-.205-.682a2.88 2.88 0 0 0-1.057-1.444 2.729 2.729 0 0 0-2.513-.33 2.619 2.619 0 0 0-1.702 2.451 2.615 2.615 0 0 0 1.702 2.45 2.699 2.699 0 0 0 2.513-.318c.5-.359.871-.869 1.057-1.456.137-.42.148-.671.205-.671.057 0 .091.262 0 .728a2.91 2.91 0 0 1-1.035 1.729 3.066 3.066 0 0 1-2.945.5 3.145 3.145 0 0 1-2.102-2.962 3.142 3.142 0 0 1 2.102-2.962 3.063 3.063 0 0 1 2.945.511 2.91 2.91 0 0 1 1.035 1.729c.091.466.034.727 0 .727ZM332.327 342.996v-2.115c0-1.399 0-3.411-.057-5.993 0-5.185-.057-12.656-.114-21.866l.216.216-67.76.079c-.261.273.353-.352.296-.284v29.963l-.273-.273 48.566.125 14.089.08h5.105a1.432 1.432 0 0 1-.307 0h-4.673l-14.021.068-48.759.136h-.284v-30.099c-.068.057.557-.568.296-.307l67.76.091h.216v.205c0 9.267-.091 16.783-.114 22.003 0 2.558 0 4.548-.057 5.935v1.536c-.03.169-.072.336-.125.5Z" fill="#263238"/><path d="M301.364 328.009s-.068-.25-.205-.671a2.876 2.876 0 0 0-1.057-1.444 2.704 2.704 0 0 0-2.513-.33 2.613 2.613 0 0 0-1.235 3.942c.304.438.735.773 1.235.959a2.701 2.701 0 0 0 2.513-.33 2.872 2.872 0 0 0 1.057-1.444c.137-.421.148-.682.205-.682.057 0 .091.261 0 .739a2.968 2.968 0 0 1-1.035 1.728 3.093 3.093 0 0 1-2.945.501 3.142 3.142 0 0 1-2.102-2.962 3.14 3.14 0 0 1 2.102-2.963 3.1 3.1 0 0 1 2.945.501 2.934 2.934 0 0 1 1.035 1.728c.091.478.034.739 0 .728ZM165.514 240.361H9.97v107.9h155.544v-107.9Z" fill="#263238"/><path d="M448.323 232.833H4v10.257h444.323v-10.257Z" fill="#263238"/><path d="M23.752 243.09H9.97v105.171H23.75V243.09Z" fill="#455A64"/><path d="M182.718 70.535a10.675 10.675 0 0 1-.193-1.308 9.311 9.311 0 0 0-1.137-3.32 3.877 3.877 0 0 0-1.66-1.592 2.173 2.173 0 0 0-2.377.443 9.2 9.2 0 0 0 0 11.542 2.175 2.175 0 0 0 2.377.455 3.966 3.966 0 0 0 1.66-1.604 9.312 9.312 0 0 0 1.137-3.32c.037-.436.101-.869.193-1.296.074.44.074.89 0 1.33a8.594 8.594 0 0 1-.989 3.502 4.363 4.363 0 0 1-1.831 1.831 2.522 2.522 0 0 1-1.489.216 3.126 3.126 0 0 1-1.433-.694 9.55 9.55 0 0 1 0-12.371 3.037 3.037 0 0 1 1.433-.705c.507-.076 1.025 0 1.489.216a4.362 4.362 0 0 1 1.831 1.83 8.582 8.582 0 0 1 .989 3.514c.073.44.073.89 0 1.33Z" fill="#263238"/><path d="m133.63 48.304-3.412 68.135 29.269 2.752 1.615-16.545s10.234 2.548 13.418-6.97c1.99-6.084 3.764-53.717 3.764-53.717l-44.654 6.345Z" fill="#FFBE9D"/><path d="M184.504 48.987c-2.491 5.924-11.883 11.007-11.883 11.007l-1.535 15.09a30.476 30.476 0 0 0-4.196 0c.75-7.085-8.358-5.687-9.29-.877-.887 4.64 4.4 7.744 4.4 7.744-3.65 5.595-5.128 8.551-10.313 13.793-5.595 5.686-8.608 6.141-14.396 5.97l-6.379-.296s-2.274-5.446-3.923-18.307c-.807-6.186-5.685-14.293-4.264-24.357 3.912-28.575 35.534-23.504 35.534-23.504 11.872-9.233 32.112-.193 26.245 13.737Z" fill="#263238"/><path d="M182.718 70.614c-2.158.416-4.351.63-6.549.637a37.19 37.19 0 0 1-6.573 0 35.661 35.661 0 0 1 6.539-.625 37.936 37.936 0 0 1 6.583-.012Z" fill="#263238"/><path d="m275.961 150.655-10.632 6.584-3.9 9.097v-7.96s2.888-3.412 5.253-5.902.671-4.218 0-5.071c-.671-.853-10.848 10.973-10.848 10.973v6.822c-4.742-5.833-6.936-3.832-7.664-2.774-.728 1.057 7.664 8.972 7.664 8.972v2.41l-41.697 22.424-10.973-27.291-22.413 11.77 13.384 32.396a16.9 16.9 0 0 0 24.232 8.107l49.066-29.007 3.263-5.447a13.726 13.726 0 0 0 1.945-6.186l1.694-24.505c2.979-1.864 1.626-5.412 1.626-5.412Z" fill="#FFBE9D"/><path d="M214.341 196.264a58.317 58.317 0 0 1-4.116 11.121 60.44 60.44 0 0 1 4.116-11.121ZM274.335 156.068c-.628.323-1.274.611-1.933.864a6.096 6.096 0 0 0-3.196 3.638 45.13 45.13 0 0 1-3.092 6.63 45.682 45.682 0 0 1 2.547-6.823 6.943 6.943 0 0 1 1.546-2.49 6.826 6.826 0 0 1 2.013-1.296 4.804 4.804 0 0 1 2.115-.523ZM274.176 159.945a1.25 1.25 0 0 0-.899.591c-.329.637-.75 1.638-1.137 2.707a38.774 38.774 0 0 1-1.501 3.98 9.85 9.85 0 0 1 .944-4.196c.367-.957.836-1.872 1.399-2.729a1.22 1.22 0 0 1 .887-.501c.216 0 .318.114.307.148Z" fill="#EB996E"/><path d="m174.054 176.558 4.764 16.136 30.236-13.646c-1.137-3.411-6.095-18.432-15.658-42.311a41.09 41.09 0 0 0-31.35-25.267c-9.893-1.648-20.661-2.933-28.951-2.831a35.945 35.945 0 0 0-34.886 28.769c-2.559 12.678 1.922 21.059-.966 48.804l-.922 69.784 80.735 2.968-3.002-82.406Z" fill="#EE4248"/><path d="M100.995 185.473s-11.223.66-15.635-7.835c0 0 12.087-44.688 16.306-49.953l-.671 57.788Z" fill="#EE4248"/><path d="M194.92 141.24a3.516 3.516 0 0 1-.956.523 9.703 9.703 0 0 1-3.081.58 20.355 20.355 0 0 1-4.901-.626c-1.865-.42-3.946-1.046-6.277-1.432a27.152 27.152 0 0 0-3.661-.194 23.56 23.56 0 0 0-3.923.648 33.822 33.822 0 0 0-8.153 3.412c-2.764 1.501-5.572 3.275-8.563 5.026a44.915 44.915 0 0 1-9.79 4.548 19.329 19.329 0 0 1-10.86.171 27.7 27.7 0 0 1-8.88-4.81c-2.536-1.967-4.742-4.037-6.823-5.925a58.525 58.525 0 0 0-6.027-4.912 23.343 23.343 0 0 0-10.233-4.344 36.713 36.713 0 0 0-4.117 0 4.16 4.16 0 0 1 1.046-.273 14.188 14.188 0 0 1 3.116-.147 22.656 22.656 0 0 1 10.621 4.116 54.708 54.708 0 0 1 6.208 4.878c2.115 1.865 4.344 3.889 6.823 5.777a26.93 26.93 0 0 0 8.539 4.548 18.38 18.38 0 0 0 10.234-.193 45.318 45.318 0 0 0 9.541-4.401c2.967-1.717 5.799-3.491 8.619-4.992a34.356 34.356 0 0 1 8.448-3.411 24.054 24.054 0 0 1 4.117-.614c1.282.014 2.562.112 3.832.296 2.411.454 4.469 1.137 6.299 1.614 1.545.446 3.136.713 4.742.796a13.273 13.273 0 0 0 4.06-.659ZM174.588 196.924a14.17 14.17 0 0 0-5.014-1.82 16.829 16.829 0 0 0-5.777.319c-2.16.432-4.491 1.216-7.05 1.853a28.424 28.424 0 0 1-13.406.182c-3.412-.796-5.242-1.876-5.186-1.99.057-.114 2.036.603 5.356 1.137 4.306.733 8.717.559 12.952-.511 2.49-.626 4.867-1.388 7.129-1.786a16.349 16.349 0 0 1 6.118-.068 9.747 9.747 0 0 1 3.821 1.569c.796.626 1.114 1.069 1.057 1.115ZM175.407 238.587s-.307.512-1.069 1.228a16.502 16.502 0 0 1-3.661 2.536 14.578 14.578 0 0 1-6.448 1.637 21.373 21.373 0 0 1-7.96-1.774c-2.649-1.034-5.071-2.194-7.357-2.842a17.509 17.509 0 0 0-6.242-.728 9.796 9.796 0 0 0-4.026 1.137c-.887.489-1.296.887-1.375.807-.08-.079.272-.557 1.137-1.137a8.932 8.932 0 0 1 4.184-1.637 17.268 17.268 0 0 1 6.618.512 71.87 71.87 0 0 1 7.505 2.797 21.67 21.67 0 0 0 7.493 1.785 14.51 14.51 0 0 0 6.084-1.308c3.354-1.512 5.003-3.183 5.117-3.013Z" fill="#263238"/><path opacity=".3" d="M87.85 186.258c10.575 2.16 21.434 0 32.203-.66 6.538-.387 13.781-1.137 18.944 2.922 4.093 3.184 5.685 8.54 6.925 13.589 4.548 19.262 5.333 36.467 6.345 56.218L99.96 257.19l-12.11-70.932ZM101.666 149.995l2.263 32.612h-6.891l4.628-32.612Z" fill="#000"/><path d="m116.357 255.951 103.818 3.672a30.951 30.951 0 0 1 29.86 31.43l-.91 58.913h-38.07l-2.456-50.794-92.242-2.434v-40.787Z" fill="#263238"/><path d="M151.175 309.815h-10.211v37.377h10.211v-37.377ZM55.283 191.068v90.058a21.389 21.389 0 0 0 21.39 21.378h59.97V191.068a9.54 9.54 0 0 0-9.54-9.529h-62.29a9.53 9.53 0 0 0-9.53 9.529Z" fill="#455A64"/><path d="M217.355 309.815H71.305a15.917 15.917 0 0 1 15.92-15.851H201.56a15.852 15.852 0 0 1 15.851 15.851h-.056Z" fill="#455A64"/><path d="M136.643 291.86c.066.89-.01 1.784-.227 2.65a10.779 10.779 0 0 1-8.54 8.073c-.928.151-1.868.216-2.809.193H85.12l-7.22-.09h-1.967a2.61 2.61 0 0 1-.682-.069c.225-.036.454-.055.682-.057l1.967-.056 7.22-.103 23.88-.113h16.067a14.16 14.16 0 0 0 2.729-.16 10.217 10.217 0 0 0 4.401-1.899 10.663 10.663 0 0 0 3.946-5.753c.477-1.661.42-2.627.5-2.616ZM155.019 310.122c-2.973.3-5.963.399-8.949.296-2.99.103-5.984.004-8.961-.296a68.741 68.741 0 0 1 8.961-.295 68.74 68.74 0 0 1 8.949.295Z" fill="#263238"/><path d="M199.457 303.3a4.376 4.376 0 0 1-.273-1.138 98.442 98.442 0 0 1-.569-3.195 575.308 575.308 0 0 1-1.865-11.78c-.409-2.479-.739-5.242-1.285-8.119-.147-.716-.284-1.444-.432-2.195-.148-.75-.432-1.455-.648-2.206-.114-.364-.216-.75-.33-1.137-.113-.386-.284-.739-.432-1.137-.307-.75-.58-1.512-.909-2.274a41.361 41.361 0 0 0-5.436-8.699 39.147 39.147 0 0 0-8.176-7.368 36.504 36.504 0 0 0-9.915-4.776 37.299 37.299 0 0 0-10.109-1.729c-6.618-.147-12.645-.113-17.67-.182-5.026-.068-9.097-.125-11.917-.193-1.41 0-2.502-.068-3.252-.114a4.4 4.4 0 0 1-1.138-.113 4.005 4.005 0 0 1 1.138-.125l3.252-.114c2.808-.068 6.891-.125 11.917-.182 5.025-.057 11.018-.159 17.704-.068 3.54.075 7.051.654 10.427 1.717a36.527 36.527 0 0 1 10.234 4.901 39.166 39.166 0 0 1 8.415 7.607 42.13 42.13 0 0 1 5.538 8.994c.329.774.602 1.57.909 2.331.137.387.285.762.432 1.138.148.375.216.773.33 1.137.216.773.421 1.523.626 2.274.204.75.284 1.512.42 2.274.512 2.945.785 5.686 1.137 8.164.649 4.992 1.137 9.04 1.49 11.838.159 1.398.284 2.49.352 3.229.074.409.086.827.035 1.24Z" fill="#455A64"/><path d="M15.155 194.32s-1.842 5.151 1.683 8.881h7.334s-.648-8.324-9.017-8.881Z" fill="#EE4248"/><path opacity=".4" d="M15.155 194.32s-1.842 5.151 1.683 8.881h7.334s-.648-8.324-9.017-8.881Z" fill="#000"/><path d="M27.652 183.71c-.307-.363-6.584 9.461-3.06 19.49h6.915s2.706-11.666-3.855-19.49Z" fill="#EE4248"/><path d="M39.898 194.32a8.992 8.992 0 0 0-8.392 8.881h6.903s3.024-4.253 1.49-8.881Z" fill="#EE4248"/><path d="M16.27 202.814a15.499 15.499 0 0 0-6.21 15.373c1.775 10.234 12.577 14.646 12.577 14.646h11.974s12.19-5.378 11.894-16.442c-.296-11.064-7.55-13.418-7.55-13.418l-22.686-.159Z" fill="#455A64"/><path d="M46.46 215.151a5.793 5.793 0 0 0-.99-1.239 5.382 5.382 0 0 0-3.991-1.137 14.44 14.44 0 0 0-5.856 2.547 20.342 20.342 0 0 1-3.491 1.785 8.111 8.111 0 0 1-4.219.421c-2.922-.5-5.253-2.07-7.436-3.116a10.969 10.969 0 0 0-6.14-1.478 5.825 5.825 0 0 0-3.73 1.899 7.196 7.196 0 0 0-.82 1.365c.008-.144.035-.285.08-.421.118-.409.307-.794.558-1.137a5.856 5.856 0 0 1 3.854-2.161 10.995 10.995 0 0 1 6.482 1.444c2.274 1.046 4.548 2.559 7.289 3.014a7.536 7.536 0 0 0 3.934-.376 20.143 20.143 0 0 0 3.411-1.717 14.48 14.48 0 0 1 6.095-2.49 5.458 5.458 0 0 1 4.196 1.387c.294.289.532.628.705 1.001.057.262.091.398.068.409Z" fill="#263238"/><path d="M46.63 217.824a6.21 6.21 0 0 0-.978-1.228 5.23 5.23 0 0 0-3.957-1.138 14.301 14.301 0 0 0-5.788 2.536 19.528 19.528 0 0 1-3.411 1.797 7.963 7.963 0 0 1-4.185.421c-2.9-.501-5.208-2.07-7.368-3.116a10.717 10.717 0 0 0-6.061-1.478 5.772 5.772 0 0 0-3.696 1.91 6.67 6.67 0 0 0-.796 1.353s0-.148.069-.421a3.8 3.8 0 0 1 .546-1.08 5.822 5.822 0 0 1 3.809-2.172c2.22-.201 4.447.287 6.379 1.399 2.206 1.046 4.548 2.558 7.21 3.013a7.367 7.367 0 0 0 3.888-.375 19.362 19.362 0 0 0 3.355-1.717 14.206 14.206 0 0 1 6.038-2.49 5.335 5.335 0 0 1 4.093 1.387c.288.286.523.621.694.989.075.127.129.265.159.41Z" fill="#263238"/><path d="M15.553 217.755c0-.068.318-.272.739.069a.826.826 0 0 1 .239.909.95.95 0 0 1-.958.63.95.95 0 0 1-.873-.743.887.887 0 0 1 .262-.876c.409-.341.761-.182.739-.114-.023.069-.25.125-.421.398a.468.468 0 0 0 0 .444.518.518 0 0 0 .387.307.488.488 0 0 0 .467-.461.407.407 0 0 0-.058-.21c-.25-.262-.512-.273-.523-.353ZM29.119 213.434c0-.068.318-.284.75.069a.85.85 0 0 1 .227.909.98.98 0 0 1-.955.637.999.999 0 0 1-.875-.75.863.863 0 0 1 .273-.876c.409-.341.761-.182.727-.114-.034.068-.25.125-.42.398a.501.501 0 0 0 0 .444.517.517 0 0 0 .386.307.478.478 0 0 0 .41-.25.4.4 0 0 0 0-.421c-.25-.262-.512-.273-.523-.353ZM42.275 217.949c0-.069.318-.273.75.068a.853.853 0 0 1 .228.91.976.976 0 0 1-.955.636.996.996 0 0 1-.876-.739.887.887 0 0 1 .273-.887c.41-.341.762-.182.728-.113-.035.068-.25.136-.421.398a.477.477 0 0 0 .33.75.478.478 0 0 0 .409-.25.397.397 0 0 0 0-.421c-.193-.25-.443-.273-.466-.352Z" fill="#263238"/><path d="m388.409 192.375 3.9 40.458h19.717l4.719-40.458h-28.336Z" fill="#455A64"/><path d="M388.409 187.145a8.447 8.447 0 0 0-1.854 5.344h32.044a5.984 5.984 0 0 0-1.854-5.344h-28.336Z" fill="#263238"/><path d="m392.059 183.438-1.08 4.002 24.186.182-1.603-4.23-21.503.046Z" fill="#263238"/><path d="M388.045 202.507c0 .375 2.274 20.399 2.274 20.399h24.095l2.275-20.365-28.644-.034Z" fill="#EE4248"/></g><defs><filter id="a" x="0" y=".546" width="460.942" height="357.42" filterUnits="userSpaceOnUse" color-interpolation-filters="sRGB"><feFlood flood-opacity="0" result="BackgroundImageFix"/><feColorMatrix in="SourceAlpha" values="0 0 0 0 0 0 0 0 0 0 0 0 0 0 0 0 0 0 127 0" result="hardAlpha"/><feOffset dy="4"/><feGaussianBlur stdDeviation="2"/><feComposite in2="hardAlpha" operator="out"/><feColorMatrix values="0 0 0 0 0 0 0 0 0 0 0 0 0 0 0 0 0 0 0.25 0"/><feBlend in2="BackgroundImageFix" result="effect1_dropShadow_2_904"/><feBlend in="SourceGraphic" in2="effect1_dropShadow_2_904" result="shape"/></filter></defs></svg>