<svg width="109" height="110" viewBox="0 0 109 110" fill="none" xmlns="http://www.w3.org/2000/svg">
<g opacity="0.3">
<mask id="mask0_13_568" style="mask-type:alpha" maskUnits="userSpaceOnUse" x="7" y="0" width="11" height="11">
<path d="M12.5094 10.425C15.397 10.425 17.7378 8.09121 17.7378 5.21245C17.7378 2.33368 15.397 0 12.5094 0C9.62184 0 7.28101 2.33368 7.28101 5.21245C7.28101 8.09121 9.62184 10.425 12.5094 10.425Z" fill="url(#paint0_linear_13_568)"/>
</mask>
<g mask="url(#mask0_13_568)">
<path d="M12.5094 10.425C15.397 10.425 17.7378 8.09121 17.7378 5.21245C17.7378 2.33368 15.397 0 12.5094 0C9.62184 0 7.28101 2.33368 7.28101 5.21245C7.28101 8.09121 9.62184 10.425 12.5094 10.425Z" fill="url(#paint1_linear_13_568)"/>
</g>
<mask id="mask1_13_568" style="mask-type:alpha" maskUnits="userSpaceOnUse" x="37" y="0" width="12" height="11">
<path d="M42.7904 10.425C45.678 10.425 48.0188 8.09121 48.0188 5.21245C48.0188 2.33368 45.678 0 42.7904 0C39.9028 0 37.562 2.33368 37.562 5.21245C37.562 8.09121 39.9028 10.425 42.7904 10.425Z" fill="url(#paint2_linear_13_568)"/>
</mask>
<g mask="url(#mask1_13_568)">
<path d="M42.7904 10.425C45.678 10.425 48.0188 8.09121 48.0188 5.21245C48.0188 2.33368 45.678 0 42.7904 0C39.9028 0 37.562 2.33368 37.562 5.21245C37.562 8.09121 39.9028 10.425 42.7904 10.425Z" fill="url(#paint3_linear_13_568)"/>
</g>
<mask id="mask2_13_568" style="mask-type:alpha" maskUnits="userSpaceOnUse" x="67" y="0" width="12" height="11">
<path d="M73.0717 10.425C75.9592 10.425 78.3 8.09121 78.3 5.21245C78.3 2.33368 75.9592 0 73.0717 0C70.1841 0 67.8433 2.33368 67.8433 5.21245C67.8433 8.09121 70.1841 10.425 73.0717 10.425Z" fill="url(#paint4_linear_13_568)"/>
</mask>
<g mask="url(#mask2_13_568)">
<path d="M73.0717 10.425C75.9592 10.425 78.3 8.09121 78.3 5.21245C78.3 2.33368 75.9592 0 73.0717 0C70.1841 0 67.8433 2.33368 67.8433 5.21245C67.8433 8.09121 70.1841 10.425 73.0717 10.425Z" fill="url(#paint5_linear_13_568)"/>
</g>
<mask id="mask3_13_568" style="mask-type:alpha" maskUnits="userSpaceOnUse" x="98" y="0" width="11" height="11">
<path d="M103.353 10.425C106.24 10.425 108.581 8.09121 108.581 5.21245C108.581 2.33368 106.24 0 103.353 0C100.465 0 98.1243 2.33368 98.1243 5.21245C98.1243 8.09121 100.465 10.425 103.353 10.425Z" fill="url(#paint6_linear_13_568)"/>
</mask>
<g mask="url(#mask3_13_568)">
<path d="M103.353 10.425C106.24 10.425 108.581 8.09121 108.581 5.21245C108.581 2.33368 106.24 0 103.353 0C100.465 0 98.1243 2.33368 98.1243 5.21245C98.1243 8.09121 100.465 10.425 103.353 10.425Z" fill="url(#paint7_linear_13_568)"/>
</g>
<mask id="mask4_13_568" style="mask-type:alpha" maskUnits="userSpaceOnUse" x="7" y="26" width="11" height="11">
<path d="M12.5094 36.5958C15.397 36.5958 17.7378 34.2621 17.7378 31.3834C17.7378 28.5046 15.397 26.171 12.5094 26.171C9.62184 26.171 7.28101 28.5046 7.28101 31.3834C7.28101 34.2621 9.62184 36.5958 12.5094 36.5958Z" fill="url(#paint8_linear_13_568)"/>
</mask>
<g mask="url(#mask4_13_568)">
<path d="M12.5094 36.5958C15.397 36.5958 17.7378 34.2621 17.7378 31.3834C17.7378 28.5046 15.397 26.171 12.5094 26.171C9.62184 26.171 7.28101 28.5046 7.28101 31.3834C7.28101 34.2621 9.62184 36.5958 12.5094 36.5958Z" fill="url(#paint9_linear_13_568)"/>
</g>
<mask id="mask5_13_568" style="mask-type:alpha" maskUnits="userSpaceOnUse" x="37" y="26" width="12" height="11">
<path d="M42.7904 36.5958C45.678 36.5958 48.0188 34.2621 48.0188 31.3834C48.0188 28.5046 45.678 26.171 42.7904 26.171C39.9028 26.171 37.562 28.5046 37.562 31.3834C37.562 34.2621 39.9028 36.5958 42.7904 36.5958Z" fill="url(#paint10_linear_13_568)"/>
</mask>
<g mask="url(#mask5_13_568)">
<path d="M42.7904 36.5958C45.678 36.5958 48.0188 34.2621 48.0188 31.3834C48.0188 28.5046 45.678 26.171 42.7904 26.171C39.9028 26.171 37.562 28.5046 37.562 31.3834C37.562 34.2621 39.9028 36.5958 42.7904 36.5958Z" fill="url(#paint11_linear_13_568)"/>
</g>
<mask id="mask6_13_568" style="mask-type:alpha" maskUnits="userSpaceOnUse" x="67" y="26" width="12" height="11">
<path d="M73.0717 36.5958C75.9592 36.5958 78.3 34.2621 78.3 31.3834C78.3 28.5046 75.9592 26.171 73.0717 26.171C70.1841 26.171 67.8433 28.5046 67.8433 31.3834C67.8433 34.2621 70.1841 36.5958 73.0717 36.5958Z" fill="url(#paint12_linear_13_568)"/>
</mask>
<g mask="url(#mask6_13_568)">
<path d="M73.0717 36.5958C75.9592 36.5958 78.3 34.2621 78.3 31.3834C78.3 28.5046 75.9592 26.171 73.0717 26.171C70.1841 26.171 67.8433 28.5046 67.8433 31.3834C67.8433 34.2621 70.1841 36.5958 73.0717 36.5958Z" fill="url(#paint13_linear_13_568)"/>
</g>
<mask id="mask7_13_568" style="mask-type:alpha" maskUnits="userSpaceOnUse" x="98" y="26" width="11" height="11">
<path d="M103.353 36.5958C106.24 36.5958 108.581 34.2621 108.581 31.3834C108.581 28.5046 106.24 26.171 103.353 26.171C100.465 26.171 98.1243 28.5046 98.1243 31.3834C98.1243 34.2621 100.465 36.5958 103.353 36.5958Z" fill="url(#paint14_linear_13_568)"/>
</mask>
<g mask="url(#mask7_13_568)">
<path d="M103.353 36.5958C106.24 36.5958 108.581 34.2621 108.581 31.3834C108.581 28.5046 106.24 26.171 103.353 26.171C100.465 26.171 98.1243 28.5046 98.1243 31.3834C98.1243 34.2621 100.465 36.5958 103.353 36.5958Z" fill="url(#paint15_linear_13_568)"/>
</g>
<mask id="mask8_13_568" style="mask-type:alpha" maskUnits="userSpaceOnUse" x="7" y="52" width="11" height="11">
<path d="M12.5094 62.7125C15.397 62.7125 17.7378 60.3788 17.7378 57.5C17.7378 54.6212 15.397 52.2875 12.5094 52.2875C9.62184 52.2875 7.28101 54.6212 7.28101 57.5C7.28101 60.3788 9.62184 62.7125 12.5094 62.7125Z" fill="url(#paint16_linear_13_568)"/>
</mask>
<g mask="url(#mask8_13_568)">
<path d="M12.5094 62.7125C15.397 62.7125 17.7378 60.3788 17.7378 57.5C17.7378 54.6212 15.397 52.2875 12.5094 52.2875C9.62184 52.2875 7.28101 54.6212 7.28101 57.5C7.28101 60.3788 9.62184 62.7125 12.5094 62.7125Z" fill="url(#paint17_linear_13_568)"/>
</g>
<mask id="mask9_13_568" style="mask-type:alpha" maskUnits="userSpaceOnUse" x="37" y="52" width="12" height="11">
<path d="M42.7904 62.7125C45.678 62.7125 48.0188 60.3788 48.0188 57.5C48.0188 54.6212 45.678 52.2875 42.7904 52.2875C39.9028 52.2875 37.562 54.6212 37.562 57.5C37.562 60.3788 39.9028 62.7125 42.7904 62.7125Z" fill="url(#paint18_linear_13_568)"/>
</mask>
<g mask="url(#mask9_13_568)">
<path d="M42.7904 62.7125C45.678 62.7125 48.0188 60.3788 48.0188 57.5C48.0188 54.6212 45.678 52.2875 42.7904 52.2875C39.9028 52.2875 37.562 54.6212 37.562 57.5C37.562 60.3788 39.9028 62.7125 42.7904 62.7125Z" fill="url(#paint19_linear_13_568)"/>
</g>
<mask id="mask10_13_568" style="mask-type:alpha" maskUnits="userSpaceOnUse" x="67" y="52" width="12" height="11">
<path d="M73.0717 62.7125C75.9592 62.7125 78.3 60.3788 78.3 57.5C78.3 54.6212 75.9592 52.2875 73.0717 52.2875C70.1841 52.2875 67.8433 54.6212 67.8433 57.5C67.8433 60.3788 70.1841 62.7125 73.0717 62.7125Z" fill="url(#paint20_linear_13_568)"/>
</mask>
<g mask="url(#mask10_13_568)">
<path d="M73.0717 62.7125C75.9592 62.7125 78.3 60.3788 78.3 57.5C78.3 54.6212 75.9592 52.2875 73.0717 52.2875C70.1841 52.2875 67.8433 54.6212 67.8433 57.5C67.8433 60.3788 70.1841 62.7125 73.0717 62.7125Z" fill="url(#paint21_linear_13_568)"/>
</g>
<mask id="mask11_13_568" style="mask-type:alpha" maskUnits="userSpaceOnUse" x="98" y="52" width="11" height="11">
<path d="M103.353 62.7125C106.24 62.7125 108.581 60.3788 108.581 57.5C108.581 54.6212 106.24 52.2875 103.353 52.2875C100.465 52.2875 98.1243 54.6212 98.1243 57.5C98.1243 60.3788 100.465 62.7125 103.353 62.7125Z" fill="url(#paint22_linear_13_568)"/>
</mask>
<g mask="url(#mask11_13_568)">
<path d="M103.353 62.7125C106.24 62.7125 108.581 60.3788 108.581 57.5C108.581 54.6212 106.24 52.2875 103.353 52.2875C100.465 52.2875 98.1243 54.6212 98.1243 57.5C98.1243 60.3788 100.465 62.7125 103.353 62.7125Z" fill="url(#paint23_linear_13_568)"/>
</g>
<mask id="mask12_13_568" style="mask-type:alpha" maskUnits="userSpaceOnUse" x="7" y="78" width="11" height="11">
<path d="M12.5094 88.8834C15.397 88.8834 17.7378 86.5496 17.7378 83.6709C17.7378 80.7921 15.397 78.4584 12.5094 78.4584C9.62184 78.4584 7.28101 80.7921 7.28101 83.6709C7.28101 86.5496 9.62184 88.8834 12.5094 88.8834Z" fill="url(#paint24_linear_13_568)"/>
</mask>
<g mask="url(#mask12_13_568)">
<path d="M12.5094 88.8834C15.397 88.8834 17.7378 86.5496 17.7378 83.6709C17.7378 80.7921 15.397 78.4584 12.5094 78.4584C9.62184 78.4584 7.28101 80.7921 7.28101 83.6709C7.28101 86.5496 9.62184 88.8834 12.5094 88.8834Z" fill="url(#paint25_linear_13_568)"/>
</g>
<mask id="mask13_13_568" style="mask-type:alpha" maskUnits="userSpaceOnUse" x="37" y="78" width="12" height="11">
<path d="M42.7904 88.8834C45.678 88.8834 48.0188 86.5496 48.0188 83.6709C48.0188 80.7921 45.678 78.4584 42.7904 78.4584C39.9028 78.4584 37.562 80.7921 37.562 83.6709C37.562 86.5496 39.9028 88.8834 42.7904 88.8834Z" fill="url(#paint26_linear_13_568)"/>
</mask>
<g mask="url(#mask13_13_568)">
<path d="M42.7904 88.8834C45.678 88.8834 48.0188 86.5496 48.0188 83.6709C48.0188 80.7921 45.678 78.4584 42.7904 78.4584C39.9028 78.4584 37.562 80.7921 37.562 83.6709C37.562 86.5496 39.9028 88.8834 42.7904 88.8834Z" fill="url(#paint27_linear_13_568)"/>
</g>
<mask id="mask14_13_568" style="mask-type:alpha" maskUnits="userSpaceOnUse" x="67" y="78" width="12" height="11">
<path d="M73.0717 88.8834C75.9592 88.8834 78.3 86.5496 78.3 83.6709C78.3 80.7921 75.9592 78.4584 73.0717 78.4584C70.1841 78.4584 67.8433 80.7921 67.8433 83.6709C67.8433 86.5496 70.1841 88.8834 73.0717 88.8834Z" fill="url(#paint28_linear_13_568)"/>
</mask>
<g mask="url(#mask14_13_568)">
<path d="M73.0717 88.8834C75.9592 88.8834 78.3 86.5496 78.3 83.6709C78.3 80.7921 75.9592 78.4584 73.0717 78.4584C70.1841 78.4584 67.8433 80.7921 67.8433 83.6709C67.8433 86.5496 70.1841 88.8834 73.0717 88.8834Z" fill="url(#paint29_linear_13_568)"/>
</g>
<mask id="mask15_13_568" style="mask-type:alpha" maskUnits="userSpaceOnUse" x="98" y="78" width="11" height="11">
<path d="M103.353 88.8834C106.24 88.8834 108.581 86.5496 108.581 83.6709C108.581 80.7921 106.24 78.4584 103.353 78.4584C100.465 78.4584 98.1243 80.7921 98.1243 83.6709C98.1243 86.5496 100.465 88.8834 103.353 88.8834Z" fill="url(#paint30_linear_13_568)"/>
</mask>
<g mask="url(#mask15_13_568)">
<path d="M103.353 88.8834C106.24 88.8834 108.581 86.5496 108.581 83.6709C108.581 80.7921 106.24 78.4584 103.353 78.4584C100.465 78.4584 98.1243 80.7921 98.1243 83.6709C98.1243 86.5496 100.465 88.8834 103.353 88.8834Z" fill="url(#paint31_linear_13_568)"/>
</g>
<mask id="mask16_13_568" style="mask-type:alpha" maskUnits="userSpaceOnUse" x="7" y="104" width="11" height="11">
<path d="M12.5094 115C15.397 115 17.7378 112.666 17.7378 109.788C17.7378 106.909 15.397 104.575 12.5094 104.575C9.62184 104.575 7.28101 106.909 7.28101 109.788C7.28101 112.666 9.62184 115 12.5094 115Z" fill="url(#paint32_linear_13_568)"/>
</mask>
<g mask="url(#mask16_13_568)">
<path d="M12.5094 115C15.397 115 17.7378 112.666 17.7378 109.788C17.7378 106.909 15.397 104.575 12.5094 104.575C9.62184 104.575 7.28101 106.909 7.28101 109.788C7.28101 112.666 9.62184 115 12.5094 115Z" fill="url(#paint33_linear_13_568)"/>
</g>
<mask id="mask17_13_568" style="mask-type:alpha" maskUnits="userSpaceOnUse" x="37" y="104" width="12" height="11">
<path d="M42.7904 115C45.678 115 48.0188 112.666 48.0188 109.788C48.0188 106.909 45.678 104.575 42.7904 104.575C39.9028 104.575 37.562 106.909 37.562 109.788C37.562 112.666 39.9028 115 42.7904 115Z" fill="url(#paint34_linear_13_568)"/>
</mask>
<g mask="url(#mask17_13_568)">
<path d="M42.7904 115C45.678 115 48.0188 112.666 48.0188 109.788C48.0188 106.909 45.678 104.575 42.7904 104.575C39.9028 104.575 37.562 106.909 37.562 109.788C37.562 112.666 39.9028 115 42.7904 115Z" fill="url(#paint35_linear_13_568)"/>
</g>
<mask id="mask18_13_568" style="mask-type:alpha" maskUnits="userSpaceOnUse" x="67" y="104" width="12" height="11">
<path d="M73.0717 115C75.9592 115 78.3 112.666 78.3 109.788C78.3 106.909 75.9592 104.575 73.0717 104.575C70.1841 104.575 67.8433 106.909 67.8433 109.788C67.8433 112.666 70.1841 115 73.0717 115Z" fill="url(#paint36_linear_13_568)"/>
</mask>
<g mask="url(#mask18_13_568)">
<path d="M73.0717 115C75.9592 115 78.3 112.666 78.3 109.788C78.3 106.909 75.9592 104.575 73.0717 104.575C70.1841 104.575 67.8433 106.909 67.8433 109.788C67.8433 112.666 70.1841 115 73.0717 115Z" fill="url(#paint37_linear_13_568)"/>
</g>
<mask id="mask19_13_568" style="mask-type:alpha" maskUnits="userSpaceOnUse" x="98" y="104" width="11" height="11">
<path d="M103.353 115C106.24 115 108.581 112.666 108.581 109.788C108.581 106.909 106.24 104.575 103.353 104.575C100.465 104.575 98.1243 106.909 98.1243 109.788C98.1243 112.666 100.465 115 103.353 115Z" fill="url(#paint38_linear_13_568)"/>
</mask>
<g mask="url(#mask19_13_568)">
<path d="M103.353 115C106.24 115 108.581 112.666 108.581 109.788C108.581 106.909 106.24 104.575 103.353 104.575C100.465 104.575 98.1243 106.909 98.1243 109.788C98.1243 112.666 100.465 115 103.353 115Z" fill="url(#paint39_linear_13_568)"/>
</g>
</g>
<defs>
<linearGradient id="paint0_linear_13_568" x1="58.2005" y1="120.843" x2="-13.2012" y2="-60.9613" gradientUnits="userSpaceOnUse">
<stop/>
<stop offset="1" stop-color="white"/>
</linearGradient>
<linearGradient id="paint1_linear_13_568" x1="58.2005" y1="120.843" x2="-13.2012" y2="-60.9613" gradientUnits="userSpaceOnUse">
<stop stop-color="#97C3F9"/>
<stop offset="1" stop-color="#93C1F9"/>
</linearGradient>
<linearGradient id="paint2_linear_13_568" x1="84.4048" y1="110.551" x2="13.0032" y2="-71.2526" gradientUnits="userSpaceOnUse">
<stop/>
<stop offset="1" stop-color="white"/>
</linearGradient>
<linearGradient id="paint3_linear_13_568" x1="84.4048" y1="110.551" x2="13.0032" y2="-71.2526" gradientUnits="userSpaceOnUse">
<stop stop-color="#97C3F9"/>
<stop offset="1" stop-color="#93C1F9"/>
</linearGradient>
<linearGradient id="paint4_linear_13_568" x1="110.609" y1="100.259" x2="39.2076" y2="-81.5444" gradientUnits="userSpaceOnUse">
<stop/>
<stop offset="1" stop-color="white"/>
</linearGradient>
<linearGradient id="paint5_linear_13_568" x1="110.609" y1="100.259" x2="39.2076" y2="-81.5444" gradientUnits="userSpaceOnUse">
<stop stop-color="#97C3F9"/>
<stop offset="1" stop-color="#93C1F9"/>
</linearGradient>
<linearGradient id="paint6_linear_13_568" x1="136.813" y1="89.9679" x2="65.4119" y2="-91.8359" gradientUnits="userSpaceOnUse">
<stop/>
<stop offset="1" stop-color="white"/>
</linearGradient>
<linearGradient id="paint7_linear_13_568" x1="136.813" y1="89.9679" x2="65.4119" y2="-91.8359" gradientUnits="userSpaceOnUse">
<stop stop-color="#97C3F9"/>
<stop offset="1" stop-color="#93C1F9"/>
</linearGradient>
<linearGradient id="paint8_linear_13_568" x1="49.258" y1="124.354" x2="-22.1423" y2="-57.449" gradientUnits="userSpaceOnUse">
<stop/>
<stop offset="1" stop-color="white"/>
</linearGradient>
<linearGradient id="paint9_linear_13_568" x1="49.258" y1="124.354" x2="-22.1423" y2="-57.449" gradientUnits="userSpaceOnUse">
<stop stop-color="#97C3F9"/>
<stop offset="1" stop-color="#93C1F9"/>
</linearGradient>
<linearGradient id="paint10_linear_13_568" x1="75.4623" y1="114.062" x2="4.06193" y2="-67.7403" gradientUnits="userSpaceOnUse">
<stop/>
<stop offset="1" stop-color="white"/>
</linearGradient>
<linearGradient id="paint11_linear_13_568" x1="75.4623" y1="114.062" x2="4.06193" y2="-67.7403" gradientUnits="userSpaceOnUse">
<stop stop-color="#97C3F9"/>
<stop offset="1" stop-color="#93C1F9"/>
</linearGradient>
<linearGradient id="paint12_linear_13_568" x1="101.667" y1="103.771" x2="30.2664" y2="-78.0318" gradientUnits="userSpaceOnUse">
<stop/>
<stop offset="1" stop-color="white"/>
</linearGradient>
<linearGradient id="paint13_linear_13_568" x1="101.667" y1="103.771" x2="30.2664" y2="-78.0318" gradientUnits="userSpaceOnUse">
<stop stop-color="#97C3F9"/>
<stop offset="1" stop-color="#93C1F9"/>
</linearGradient>
<linearGradient id="paint14_linear_13_568" x1="127.871" y1="93.4794" x2="56.4707" y2="-88.3231" gradientUnits="userSpaceOnUse">
<stop/>
<stop offset="1" stop-color="white"/>
</linearGradient>
<linearGradient id="paint15_linear_13_568" x1="127.871" y1="93.4794" x2="56.4707" y2="-88.3231" gradientUnits="userSpaceOnUse">
<stop stop-color="#97C3F9"/>
<stop offset="1" stop-color="#93C1F9"/>
</linearGradient>
<linearGradient id="paint16_linear_13_568" x1="40.3157" y1="127.866" x2="-31.086" y2="-53.9374" gradientUnits="userSpaceOnUse">
<stop/>
<stop offset="1" stop-color="white"/>
</linearGradient>
<linearGradient id="paint17_linear_13_568" x1="40.3157" y1="127.866" x2="-31.086" y2="-53.9374" gradientUnits="userSpaceOnUse">
<stop stop-color="#97C3F9"/>
<stop offset="1" stop-color="#93C1F9"/>
</linearGradient>
<linearGradient id="paint18_linear_13_568" x1="66.5199" y1="117.575" x2="-4.88163" y2="-64.2288" gradientUnits="userSpaceOnUse">
<stop/>
<stop offset="1" stop-color="white"/>
</linearGradient>
<linearGradient id="paint19_linear_13_568" x1="66.5199" y1="117.575" x2="-4.88163" y2="-64.2288" gradientUnits="userSpaceOnUse">
<stop stop-color="#97C3F9"/>
<stop offset="1" stop-color="#93C1F9"/>
</linearGradient>
<linearGradient id="paint20_linear_13_568" x1="92.7244" y1="107.283" x2="21.3228" y2="-74.5205" gradientUnits="userSpaceOnUse">
<stop/>
<stop offset="1" stop-color="white"/>
</linearGradient>
<linearGradient id="paint21_linear_13_568" x1="92.7244" y1="107.283" x2="21.3228" y2="-74.5205" gradientUnits="userSpaceOnUse">
<stop stop-color="#97C3F9"/>
<stop offset="1" stop-color="#93C1F9"/>
</linearGradient>
<linearGradient id="paint22_linear_13_568" x1="118.929" y1="96.9919" x2="47.5271" y2="-84.8119" gradientUnits="userSpaceOnUse">
<stop/>
<stop offset="1" stop-color="white"/>
</linearGradient>
<linearGradient id="paint23_linear_13_568" x1="118.929" y1="96.9919" x2="47.5271" y2="-84.8119" gradientUnits="userSpaceOnUse">
<stop stop-color="#97C3F9"/>
<stop offset="1" stop-color="#93C1F9"/>
</linearGradient>
<linearGradient id="paint24_linear_13_568" x1="31.3733" y1="131.378" x2="-40.0284" y2="-50.4254" gradientUnits="userSpaceOnUse">
<stop/>
<stop offset="1" stop-color="white"/>
</linearGradient>
<linearGradient id="paint25_linear_13_568" x1="31.3733" y1="131.378" x2="-40.0284" y2="-50.4254" gradientUnits="userSpaceOnUse">
<stop stop-color="#97C3F9"/>
<stop offset="1" stop-color="#93C1F9"/>
</linearGradient>
<linearGradient id="paint26_linear_13_568" x1="57.5775" y1="121.087" x2="-13.824" y2="-60.7168" gradientUnits="userSpaceOnUse">
<stop/>
<stop offset="1" stop-color="white"/>
</linearGradient>
<linearGradient id="paint27_linear_13_568" x1="57.5775" y1="121.087" x2="-13.824" y2="-60.7168" gradientUnits="userSpaceOnUse">
<stop stop-color="#97C3F9"/>
<stop offset="1" stop-color="#93C1F9"/>
</linearGradient>
<linearGradient id="paint28_linear_13_568" x1="83.7821" y1="110.795" x2="12.3804" y2="-71.0084" gradientUnits="userSpaceOnUse">
<stop/>
<stop offset="1" stop-color="white"/>
</linearGradient>
<linearGradient id="paint29_linear_13_568" x1="83.7821" y1="110.795" x2="12.3804" y2="-71.0084" gradientUnits="userSpaceOnUse">
<stop stop-color="#97C3F9"/>
<stop offset="1" stop-color="#93C1F9"/>
</linearGradient>
<linearGradient id="paint30_linear_13_568" x1="109.986" y1="100.504" x2="38.5847" y2="-81.3" gradientUnits="userSpaceOnUse">
<stop/>
<stop offset="1" stop-color="white"/>
</linearGradient>
<linearGradient id="paint31_linear_13_568" x1="109.986" y1="100.504" x2="38.5847" y2="-81.3" gradientUnits="userSpaceOnUse">
<stop stop-color="#97C3F9"/>
<stop offset="1" stop-color="#93C1F9"/>
</linearGradient>
<linearGradient id="paint32_linear_13_568" x1="22.4309" y1="134.89" x2="-48.9707" y2="-46.9134" gradientUnits="userSpaceOnUse">
<stop/>
<stop offset="1" stop-color="white"/>
</linearGradient>
<linearGradient id="paint33_linear_13_568" x1="22.4309" y1="134.89" x2="-48.9707" y2="-46.9134" gradientUnits="userSpaceOnUse">
<stop stop-color="#97C3F9"/>
<stop offset="1" stop-color="#93C1F9"/>
</linearGradient>
<linearGradient id="paint34_linear_13_568" x1="48.6352" y1="124.599" x2="-22.7664" y2="-57.2047" gradientUnits="userSpaceOnUse">
<stop/>
<stop offset="1" stop-color="white"/>
</linearGradient>
<linearGradient id="paint35_linear_13_568" x1="48.6352" y1="124.599" x2="-22.7664" y2="-57.2047" gradientUnits="userSpaceOnUse">
<stop stop-color="#97C3F9"/>
<stop offset="1" stop-color="#93C1F9"/>
</linearGradient>
<linearGradient id="paint36_linear_13_568" x1="74.8397" y1="114.307" x2="3.43809" y2="-67.4964" gradientUnits="userSpaceOnUse">
<stop/>
<stop offset="1" stop-color="white"/>
</linearGradient>
<linearGradient id="paint37_linear_13_568" x1="74.8397" y1="114.307" x2="3.43809" y2="-67.4964" gradientUnits="userSpaceOnUse">
<stop stop-color="#97C3F9"/>
<stop offset="1" stop-color="#93C1F9"/>
</linearGradient>
<linearGradient id="paint38_linear_13_568" x1="101.044" y1="104.016" x2="29.6424" y2="-77.7879" gradientUnits="userSpaceOnUse">
<stop/>
<stop offset="1" stop-color="white"/>
</linearGradient>
<linearGradient id="paint39_linear_13_568" x1="101.044" y1="104.016" x2="29.6424" y2="-77.7879" gradientUnits="userSpaceOnUse">
<stop stop-color="#97C3F9"/>
<stop offset="1" stop-color="#93C1F9"/>
</linearGradient>
</defs>
</svg>
