<svg width="32" height="33" viewBox="0 0 32 33" fill="none" xmlns="http://www.w3.org/2000/svg">
<g clip-path="url(#clip0_9_23)">
<path d="M29.8154 10.8646L27.8167 13.8708C28.7806 15.7933 29.2525 17.9249 29.1901 20.0746C29.1277 22.2243 28.5329 24.325 27.4592 26.1883H4.93666C3.54106 23.7672 2.96277 20.9609 3.28751 18.1853C3.61226 15.4097 4.82277 12.8126 6.73956 10.7791C8.65636 8.7456 11.1774 7.38388 13.929 6.89581C16.6806 6.40775 19.5162 6.81934 22.0154 8.06956L25.0217 6.07081C21.9609 4.10816 18.3304 3.22869 14.7109 3.57308C11.0913 3.91747 7.69176 5.46581 5.05609 7.97045C2.42042 10.4751 0.700875 13.7913 0.172515 17.3886C-0.355844 20.986 0.337506 24.6566 2.14166 27.8133C2.42524 28.3045 2.83243 28.7129 3.32276 28.998C3.81309 29.2831 4.36949 29.4349 4.93666 29.4383H27.4429C28.0156 29.4406 28.5787 29.2915 29.0752 29.0061C29.5718 28.7208 29.9841 28.3093 30.2704 27.8133C31.7676 25.2197 32.519 22.2627 32.4416 19.269C32.3642 16.2752 31.461 13.3611 29.8317 10.8483L29.8154 10.8646ZM13.9067 21.9796C14.2085 22.2817 14.5669 22.5214 14.9615 22.685C15.356 22.8486 15.7789 22.9327 16.206 22.9327C16.6331 22.9327 17.056 22.8486 17.4506 22.685C17.8451 22.5214 18.2036 22.2817 18.5054 21.9796L27.7029 8.18331L13.9067 17.3808C13.6045 17.6826 13.3648 18.0411 13.2012 18.4356C13.0377 18.8302 12.9535 19.2531 12.9535 19.6802C12.9535 20.1073 13.0377 20.5302 13.2012 20.9247C13.3648 21.3193 13.6045 21.6777 13.9067 21.9796Z" fill="#EE4248"/>
</g>
<defs>
<clipPath id="clip0_9_23">
<rect width="32" height="32" fill="white" transform="translate(0 0.5)"/>
</clipPath>
</defs>
</svg>
