<svg width="606" height="359" fill="none" xmlns="http://www.w3.org/2000/svg"><path d="M557.917 5.29H449.951v193.957h107.966V5.291Z" fill="#EBEBEB"/><path d="M552.49 10.916h-98.223v182.552h98.223V10.916Z" fill="#FAFAFA"/><path d="m552.49 13.065-98.223 124.949V10.916h98.223v2.149Z" fill="#F5F5F5"/><path d="M554.621 63.436H454.267v1.941h100.354v-1.94ZM554.621 106.901H454.267v1.941h100.354v-1.941ZM554.621 150.374H454.267v1.941h100.354v-1.941Z" fill="#EBEBEB"/><path d="M500.891 64.411v134.24h4.966V64.411h-4.966ZM475.43 10.916h-2.248v53.486h2.248V10.916ZM494.815 10.916h-2.249v53.486h2.249V10.916ZM514.209 10.916h-2.249v53.486h2.249V10.916ZM533.602 10.916h-2.248v53.486h2.248V10.916Z" fill="#EBEBEB"/><path d="M449.951 2.004h-4.569v198.443h4.569V2.004Z" fill="#F5F5F5"/><path d="m562.485 200.998-4.568-1.751V2.004h4.568v198.994Z" fill="#E0E0E0"/><path d="M562.485 0H445.382v5.29h117.103V0ZM565.582 201.648H442.15v4.93h123.432v-4.93Z" fill="#E0E0E0"/><path d="m557.917 199.247 7.656 2.401H442.15l7.801-2.401h107.966ZM583.323 277.679c4.37-2.248 9.508-2.546 14.356-1.742 2.6.433 5.318 1.21 7.088 3.169 1.769 1.959 2.113 5.417.072 7.079a6.823 6.823 0 0 1-4.469 1.128c-3.792-.045-8-.713-11.033 1.571-1.725 1.3-2.881 3.467-4.948 4.108a4.884 4.884 0 0 1-5.417-2.392 8.404 8.404 0 0 1-.605-6.167 9.41 9.41 0 0 1 4.956-6.754ZM573.329 258.376c2.708 3.81 7.855 2.546 10.256.226 2.402-2.321 3.422-5.706 4.352-8.921 2.113-7.349 4.244-15.06 2.709-22.572a12.546 12.546 0 0 0-2.88-6.13 6.55 6.55 0 0 0-6.194-2.068c-2.618.695-4.244 3.26-5.417 5.697a53.635 53.635 0 0 0-5.309 23.051c0 3.72.424 7.611 2.519 10.681M565.998 263.847c2.898-3.44 3.449-8.46 2.157-12.766-1.291-4.307-4.207-7.973-7.566-10.97a40.624 40.624 0 0 0-13.543-7.991 14.448 14.448 0 0 0-6.094-1.029 6.416 6.416 0 0 0-5.11 3.088c-1.418 2.709-.055 6.013 1.426 8.704a102.754 102.754 0 0 0 8.893 13.543c2.709 3.44 5.716 6.825 9.779 8.378 4.062 1.553 8.279 1.373 10.437-1.444" fill="#EBEBEB"/><path d="M573.148 315.889a9.043 9.043 0 0 0 .235-1.733c.126-1.264.28-2.844.46-4.731a62.726 62.726 0 0 1 1.066-6.934 54.007 54.007 0 0 1 2.519-8.181 30.199 30.199 0 0 1 4.18-7.412 15.69 15.69 0 0 1 5.282-4.388 14.944 14.944 0 0 1 4.451-1.391 8.418 8.418 0 0 0 1.724-.243 7.224 7.224 0 0 0-1.751 0 13.54 13.54 0 0 0-4.641 1.2 15.557 15.557 0 0 0-5.553 4.407 29.387 29.387 0 0 0-4.333 7.557 49.406 49.406 0 0 0-2.501 8.315 58.049 58.049 0 0 0-.903 7.024 87.892 87.892 0 0 0-.235 4.759 7.652 7.652 0 0 0 0 1.751Z" fill="#E0E0E0"/><path d="M573.473 312.214c.041-.265.056-.534.046-.803v-2.302c0-1.996 0-4.885.108-8.442.171-7.133.785-14.807 1.968-25.624 1.129-10.175 2.637-22.012 4.226-29.705.343-1.751.686-3.331 1.002-4.713.316-1.381.578-2.573.831-3.539.252-.966.397-1.643.532-2.23a.406.406 0 1 0-.135 0c-.172.578-.398 1.3-.668 2.203-.271.903-.596 2.14-.903 3.512-.307 1.373-.741 2.944-1.111 4.695a260.127 260.127 0 0 0-4.433 27.565c-1.192 10.835-1.724 20.712-1.806 27.863 0 3.566 0 6.464.118 8.46.063.903.108 1.688.144 2.293-.005.258.022.516.081.767Z" fill="#E0E0E0"/><path d="M573.519 293.254c.063-.799.063-1.602 0-2.402a67.098 67.098 0 0 0-.732-6.5 85.543 85.543 0 0 0-2.121-9.48 76.182 76.182 0 0 0-3.991-11.259 59.692 59.692 0 0 0-11.638-18.13 29.625 29.625 0 0 0-2.709-2.546c-.424-.352-.794-.704-1.174-.984l-1.056-.741a17.224 17.224 0 0 0-2.022-1.291c-.118.154 2.862 1.914 6.627 5.914a62.921 62.921 0 0 1 11.349 18.058 88.419 88.419 0 0 1 3.982 11.114c1.038 3.485 1.733 6.681 2.257 9.381.523 2.699.776 4.911.903 6.446.047.814.155 1.623.325 2.42ZM555.118 326.796l1.905 26.129h33.578l1.905-26.129h-37.388Z" fill="#E0E0E0"/><path d="M596.515 316.494h-44.639v10.302h44.639v-10.302Z" fill="#E0E0E0"/><path d="M551.876 351.932v2.853H595.774v-2.853h-43.898Z" fill="#EBEBEB"/><path d="m556.03 359.805-2.059-5.02h40.205l-2.401 5.02H556.03Z" fill="#E0E0E0"/><path d="M591.883 335.337a1.393 1.393 0 0 1-.153.235l-.506.668-1.977 2.501-.091.108-.081-.108-4.785-6.663h.28l-4.731 6.69-.145.217-.171-.199-5.625-6.654h.325l-.316.388-5.011 6.32-.172.208-.153-.217-4.713-6.753h.271l-5.824 6.645-.108.117-.072-.135c-.768-1.291-1.382-2.321-1.806-3.061l-.461-.822a.95.95 0 0 1-.144-.288s.072.081.189.261c.118.181.307.461.524.786l1.914 3.006h-.18l5.733-6.717.144-.171.136.18c1.444 2.032 3.052 4.271 4.776 6.672h-.325l5.002-6.32c.108-.135.217-.262.307-.388l.162-.199.163.199 5.598 6.69h-.316c1.724-2.41 3.34-4.65 4.776-6.663l.144-.199.136.199c1.896 2.709 3.503 4.993 4.704 6.717h-.172l2.032-2.437.551-.632c.099-.118.162-.19.171-.181ZM592.975 326.66c0 .109-8.415.208-18.789.208-10.374 0-18.789-.099-18.789-.208 0-.108 8.406-.216 18.789-.216 10.383 0 18.789.063 18.789.216ZM594.664 355.065c0 .117-9.146.208-20.423.208-11.277 0-20.414-.091-20.414-.208 0-.117 9.137-.208 20.414-.208 11.277 0 20.423.091 20.423.208Z" fill="#F5F5F5"/><path d="M26.439 169.38s-6.835-.488-6.203 14.852c.632 15.34 2.194 23.52 2.194 23.52s-.208 3.404-2.835 2.708c-2.627-.695-7.593-3.981-10.049-1.498-2.456 2.483-1.634 6.5 1.734 11.141 3.367 4.641 10.374 15.069 11.006 16.017.632.948.902 2.664-1.003 2.501-1.905-.162-14.446-4.442-16.143 1.661-1.697 6.104 9.877 17.507 11.07 18.78 1.191 1.273 1.3 2.068.794 2.835-.506.768-4.596-1.065-8.234-2.14-3.639-1.074-8.045-1.67-8.713 1.933-.668 3.602 4.406 14.148 23.384 25.226l9.128 4.514 8.64-5.507c17.778-12.929 21.77-23.926 20.767-27.439-1.002-3.512-5.345-2.483-8.857-1.056-3.512 1.427-7.404 3.666-7.982 2.952-.578-.713-.587-1.516.515-2.898 1.102-1.381 11.403-13.859 9.137-19.764-2.266-5.905-14.392-.397-16.252-.045-1.86.352-1.805-1.399-1.246-2.393.56-.993 6.447-12.035 9.327-16.965 2.88-4.929 3.395-8.965.614-11.268-2.78-2.302-7.286 1.581-9.841 2.501-2.555.921-3.097-2.437-3.097-2.437s.74-8.289-.172-23.62c-.912-15.33-7.819-14.111-7.819-14.111" fill="#EBEBEB"/><path d="M26.98 183.103v.325c0 .217 0 .542.073.903.063.849.144 2.068.252 3.612.208 3.142.479 7.701.786 13.335.623 11.259 1.354 26.825 2.113 44.015.758 17.191 1.444 32.766 2.004 44.034.289 5.615.515 10.175.677 13.335.082 1.562.136 2.781.18 3.612v.948c.007.105.007.21 0 .316v-.316c0-.208 0-.542-.071-.948-.054-.84-.136-2.059-.244-3.612a1457.87 1457.87 0 0 1-.795-13.335c-.587-11.178-1.318-26.771-2.067-43.925-.75-17.155-1.445-32.757-2.005-44.025-.289-5.615-.523-10.175-.677-13.335-.081-1.571-.144-2.79-.18-3.612v-.948l-.046-.379Z" fill="#E0E0E0"/><path d="M16.3 213.9c.21.13.4.288.568.47.352.316.84.794 1.445 1.39 1.21 1.192 2.826 2.889 4.577 4.785l4.515 4.885 1.354 1.481c.183.165.344.353.479.56a2.707 2.707 0 0 1-.57-.47 34.785 34.785 0 0 1-1.444-1.399c-1.192-1.201-2.79-2.917-4.514-4.813-1.725-1.896-3.296-3.548-4.515-4.857l-1.372-1.463a3.105 3.105 0 0 1-.524-.569ZM30.096 227.173c-.064-.073 3.277-3.567 7.457-7.81 4.18-4.244 7.639-7.63 7.71-7.566.073.063-3.267 3.611-7.457 7.809-4.19 4.199-7.638 7.63-7.71 7.567ZM30.06 253.627c.198-.156.413-.29.64-.397l1.806-1.003c1.5-.848 3.612-2.031 5.824-3.403a238.82 238.82 0 0 0 5.679-3.657l1.706-1.138c.201-.151.42-.279.65-.379-.173.184-.363.35-.568.497-.389.298-.903.722-1.643 1.228a93.312 93.312 0 0 1-11.539 7.069c-.768.388-1.4.704-1.806.903a2.957 2.957 0 0 1-.75.28ZM14.936 244.372c.223.072.435.172.632.298.397.208.957.524 1.652.903 1.39.786 3.296 1.896 5.418 3.142a217.413 217.413 0 0 1 5.336 3.242c.686.415 1.227.767 1.598 1.011.206.113.397.253.569.415a2.742 2.742 0 0 1-.632-.298c-.398-.208-.967-.524-1.662-.903a405.727 405.727 0 0 1-5.417-3.142 239.528 239.528 0 0 1-5.345-3.241l-1.598-1.011a3.348 3.348 0 0 1-.551-.416ZM11.938 267.721c.28.109.548.242.804.397l2.122 1.165c1.805 1.002 4.243 2.41 6.943 3.981a625.52 625.52 0 0 1 6.898 4.072l2.068 1.273c.262.14.508.309.73.506a4.615 4.615 0 0 1-.803-.388l-2.14-1.174c-1.805-1.002-4.243-2.411-6.943-3.982a610.007 610.007 0 0 1-6.898-4.072l-2.067-1.264c-.26-.139-.5-.312-.713-.514ZM31.116 278.709c.249-.2.515-.378.794-.533l2.221-1.354c1.87-1.138 4.452-2.709 7.223-4.515a271.289 271.289 0 0 0 7.106-4.794l2.13-1.481c.253-.199.525-.372.813-.514-.226.227-.47.436-.731.623-.478.379-1.183.903-2.068 1.571-1.805 1.309-4.243 3.06-7.06 4.884a216.121 216.121 0 0 1-7.322 4.515c-.903.541-1.725.975-2.276 1.255a5.394 5.394 0 0 1-.83.343ZM44.84 294.464H19.577l8.243 62.407h8.776l8.244-62.407Z" fill="#E0E0E0"/><path d="M20.886 302.138s0 .091.136.217c.167.194.377.345.614.442a3.03 3.03 0 0 0 2.708-.334c1.02-.559 1.905-1.661 3.278-2.148a7.125 7.125 0 0 1 4.64.09 19.866 19.866 0 0 1 4.325 2.095 30.259 30.259 0 0 0 3.521 1.887c.825.37 1.697.622 2.592.749.242.035.486.053.731.054h.262a13.2 13.2 0 0 1-3.512-1.101 32.625 32.625 0 0 1-3.44-1.942 19.183 19.183 0 0 0-4.397-2.166 7.426 7.426 0 0 0-4.903-.055 6.505 6.505 0 0 0-1.85 1.147c-.46.402-.942.775-1.445 1.12a2.954 2.954 0 0 1-2.456.424 2.505 2.505 0 0 1-.804-.479ZM21.807 313.632s.199-.262.596-.668a5.56 5.56 0 0 1 2.023-1.282 9.128 9.128 0 0 1 3.512-.533c1.476.114 2.944.316 4.397.605 1.487.288 3.009.349 4.514.181a11.907 11.907 0 0 0 3.54-1.012c.754-.341 1.469-.765 2.13-1.264.255-.167.483-.37.677-.605a24.662 24.662 0 0 1-2.898 1.608 13.08 13.08 0 0 1-3.467.902 15.636 15.636 0 0 1-4.388-.216 33.17 33.17 0 0 0-4.451-.578 8.944 8.944 0 0 0-3.612.641 5.24 5.24 0 0 0-2.031 1.445c-.146.172-.273.36-.38.559-.144.136-.17.208-.162.217ZM41.977 319.781a2.341 2.341 0 0 0-.695-.362 7.702 7.702 0 0 0-2.094-.442 13.147 13.147 0 0 0-3.17.181c-1.173.189-2.437.514-3.765.794a15.7 15.7 0 0 1-3.765.424 8.102 8.102 0 0 1-2.98-.641 6.873 6.873 0 0 1-2.265-1.688c.094.247.239.471.424.659a5.35 5.35 0 0 0 1.715 1.291 8.127 8.127 0 0 0 3.097.759 15.34 15.34 0 0 0 3.856-.398c1.345-.289 2.6-.623 3.747-.83a14.54 14.54 0 0 1 3.087-.262 11.92 11.92 0 0 1 2.808.515ZM24.046 328.466a4.111 4.111 0 0 1 2.456-.244c.89.215 1.751.537 2.564.958a9.755 9.755 0 0 0 3.332.902c2.111.19 4.228-.3 6.04-1.399a8.123 8.123 0 0 0 1.508-1.156c.307-.325.47-.514.442-.532-.669.519-1.368.999-2.094 1.435a10.387 10.387 0 0 1-5.86 1.246c-2.392-.135-4.225-1.562-5.887-1.752a3.698 3.698 0 0 0-1.905.163 1.31 1.31 0 0 0-.596.379ZM25.446 340.42a4.97 4.97 0 0 0 2.113-.424c1.264-.424 2.835-1.39 4.677-2.122a7.496 7.496 0 0 1 2.708-.56 4.944 4.944 0 0 1 2.158.488c.61.332 1.143.791 1.562 1.345a1.195 1.195 0 0 0-.244-.532 3.321 3.321 0 0 0-1.183-1.066 4.89 4.89 0 0 0-2.293-.623 7.76 7.76 0 0 0-2.835.56c-1.896.758-3.422 1.761-4.632 2.239-1.21.479-2.04.623-2.031.695ZM26.683 345.991a5.95 5.95 0 0 0 1.607.524c1.313.313 2.646.537 3.99.668 1.347.136 2.702.175 4.054.117a5.64 5.64 0 0 0 1.67-.198c0-.127-2.554 0-5.678-.325s-5.571-.903-5.643-.786Z" fill="#F5F5F5"/><path d="M602.311 358.595c0 .127-134.845.235-301.136.235-166.292 0-301.173-.108-301.173-.235 0-.126 134.818-.244 301.173-.244s301.136.109 301.136.244Z" fill="#263238"/><path d="M128.256 268.244h-6.6v79.119h6.6v-79.119ZM171.062 268.244h-94.45a10.257 10.257 0 0 1 10.248-10.256h73.954a10.257 10.257 0 0 1 10.248 10.256Z" fill="#455A64"/><path d="M130.757 268.443a34.656 34.656 0 0 1-5.796.244c-1.936.081-3.875 0-5.797-.244 1.922-.244 3.861-.325 5.797-.244a34.656 34.656 0 0 1 5.796.244Z" fill="#263238"/><path d="M153.844 354.532h-.903a28.107 28.107 0 0 0-56.204 0h-.903a29.038 29.038 0 0 1 40.262-27.289 29.051 29.051 0 0 1 15.741 16.021 29.047 29.047 0 0 1 2.061 11.268h-.054Z" fill="#455A64"/><path d="M100.601 354.009a4.362 4.362 0 0 1-7.444 3.083 4.362 4.362 0 1 1 7.444-3.083Z" fill="#263238"/><path d="M157.916 354.207a4.355 4.355 0 0 1-5.201 4.268 4.34 4.34 0 0 1-2.228-1.191 4.353 4.353 0 0 1 3.077-7.429 4.352 4.352 0 0 1 4.352 4.352ZM153.564 347.363c0 .136-12.64.244-28.215.244-15.574 0-28.215-.108-28.215-.244 0-.135 12.641-.243 28.215-.243 15.575 0 28.215.108 28.215.243ZM74.463 189.911v58.244a13.825 13.825 0 0 0 13.823 13.832h44.882l-6.095-72.076a6.164 6.164 0 0 0-6.166-6.167H80.621a6.158 6.158 0 0 0-6.158 6.167Z" fill="#455A64"/><path d="M90.327 257.988a3.32 3.32 0 0 1-.506-.551c-.316-.37-.758-.903-1.291-1.688a27.135 27.135 0 0 1-3.503-7.007 27.82 27.82 0 0 1-1.201-5.291 49.47 49.47 0 0 1-.19-6.175v-14.202c0-10.059.055-19.159.073-25.805 0-3.268.054-5.932.072-7.819v-2.13a3.62 3.62 0 0 1 .045-.741c.04.245.056.493.045.741v2.13c0 1.887.045 4.515.072 7.819 0 6.646 0 15.746.073 25.805v14.202a50.3 50.3 0 0 0 .19 6.166 28.265 28.265 0 0 0 4.513 12.243c.506.768.903 1.355 1.22 1.743.315.388.397.551.388.56Z" fill="#263238"/><path d="M114.758 257.816a9.455 9.455 0 0 1-1.427.099l-3.882.1c-3.286.072-7.819.126-12.83.162l-7.06.045a24.15 24.15 0 0 0-5.688.515 9.393 9.393 0 0 0-3.431 1.643c-.732.542-1.057.948-1.093.903-.036-.045.063-.108.226-.298.226-.272.477-.523.75-.749a8.878 8.878 0 0 1 3.466-1.806 23.128 23.128 0 0 1 5.76-.632c2.168-.054 4.515-.054 7.061-.081h12.839l3.892.045a7.46 7.46 0 0 1 1.417.054Z" fill="#263238"/><path d="m214.788 159.403-4.379 4.514-8.767-9.336 2.916-4.993c.154-.641.316-1.354.47-2.157a8.762 8.762 0 0 0 .054-2.872 13.45 13.45 0 0 0-.903-3.458c-.505-.966.397-2.058 1.273-1.616.876.443 2.339 3.07 2.537 6.6.199 3.531 3.377-.966 4.515-2.582 1.137-1.616 5.065-6.437 5.841-6.455 1.138 0 1.382 1.209.163 2.798-1.219 1.589-4.515 6.609-3.666 7.223a4.284 4.284 0 0 1 4.334 2.438c.749 1.589 1.571 3.837.794 4.813a55.748 55.748 0 0 1-5.182 5.083Z" fill="#B78876"/><path d="m201.642 154.554-31.483 25.922 12.64 17.66 27.61-34.237-8.767-9.345Z" fill="#B78876"/><path d="M217.885 147.801a11.398 11.398 0 0 1-1.562 1.751l-1.806 1.806-1.066 1.047a2.21 2.21 0 0 1-1.571.786 1.104 1.104 0 0 1-.902-.497 1.488 1.488 0 0 1-.226-.903 2.52 2.52 0 0 1 .74-1.453 22.302 22.302 0 0 1 1.806-1.806 8.551 8.551 0 0 1 1.905-1.399 19.875 19.875 0 0 1-1.679 1.643 49.683 49.683 0 0 0-1.734 1.806c-.323.323-.534.74-.605 1.191a.797.797 0 0 0 .659.903 1.9 1.9 0 0 0 1.228-.65l1.084-1.038 1.869-1.743a11.216 11.216 0 0 1 1.86-1.444Z" fill="#AA6550"/><path d="M219.068 150.076c-.439.62-.944 1.189-1.508 1.697l-1.725 1.752c-.334.325-.65.668-1.056 1.02-.215.18-.455.326-.713.434a1.242 1.242 0 0 1-.948 0 1.362 1.362 0 0 1-.669-1.598c.157-.5.44-.951.822-1.31a21.672 21.672 0 0 1 1.806-1.715 8.005 8.005 0 0 1 1.806-1.345 17.997 17.997 0 0 1-1.608 1.589 23.265 23.265 0 0 0-1.688 1.805 2.846 2.846 0 0 0-.695 1.129.902.902 0 0 0 .415 1.056c.361.172.822-.072 1.183-.37.361-.298.704-.659 1.038-.975l1.806-1.67a10.632 10.632 0 0 1 1.734-1.499Z" fill="#AA6550"/><path d="M220.277 152.234a10.004 10.004 0 0 1-1.435 1.634l-1.653 1.679c-.327.35-.687.667-1.074.948a1.67 1.67 0 0 1-.786.298 1.115 1.115 0 0 1-.902-.316 1.505 1.505 0 0 1-.253-1.643c.224-.447.531-.848.903-1.183a21.008 21.008 0 0 1 1.715-1.634 7.519 7.519 0 0 1 1.806-1.282 15.234 15.234 0 0 1-1.544 1.526 30.258 30.258 0 0 0-1.625 1.688c-.31.308-.566.665-.759 1.057a1.06 1.06 0 0 0 .163 1.137.845.845 0 0 0 1.083 0 6.522 6.522 0 0 0 1.011-.903l1.725-1.598c.49-.526 1.034-.998 1.625-1.408ZM210.283 157.678c.04-.444.112-.884.216-1.318a7.005 7.005 0 0 0-.316-3.115 6.92 6.92 0 0 0-1.697-2.636c-.587-.569-1.029-.84-.993-.903a2.59 2.59 0 0 1 1.21.659 6.007 6.007 0 0 1 1.923 2.709 6.092 6.092 0 0 1 .198 3.331c-.198.849-.487 1.3-.541 1.273Z" fill="#AA6550"/><path d="m148.029 183.889 4.695 47.166-57.928 1.255.316-37.966-4.19-32.738c2.709-15.349 24.215-16.369 24.215-16.369l16.857-.271a29.692 29.692 0 0 1 16.577 3.674s17.155 9.318 16.947 32.973" fill="#EE4248"/><path d="M95.374 153.633c-5.057 4.831-9.932 14.528-8.126 33.958l26.941-1.111-.758-26.581a9.04 9.04 0 0 0-3.476-6.862 11.26 11.26 0 0 0-14.581.596Z" fill="#EE4248"/><path d="M151.713 224.301c-.145.139-.305.26-.478.362-.496.3-1.023.545-1.571.731-2.05.632-4.229.716-6.32.244-2.655-.479-5.598-1.806-8.975-2.709a30.12 30.12 0 0 0-11.286-.704c-4.036.469-7.629 1.959-10.916 3.232a34.079 34.079 0 0 1-9.029 2.528 14.902 14.902 0 0 1-6.32-.614 10.533 10.533 0 0 1-1.57-.713 2.408 2.408 0 0 1-.506-.325s.722.406 2.14.903c2.01.578 4.119.735 6.193.46a34.64 34.64 0 0 0 8.921-2.591c3.259-1.3 6.907-2.826 11.006-3.305a30.226 30.226 0 0 1 11.457.75c1.725.451 3.296 1.047 4.776 1.562 1.358.496 2.745.907 4.154 1.228 2.036.486 4.163.455 6.184-.091a12.131 12.131 0 0 0 2.14-.948Z" fill="#FAFAFA"/><path opacity=".2" d="m94.859 223.967.235.181a21.385 21.385 0 0 0 22.4 2.158c2.709-1.4 5.137-3.404 8.036-4.397 4.108-1.4 8.604-.587 12.893.099 4.288.686 9.408 1.147 13.29-.803l-.506-5.95-56.204 1.462" fill="#000"/><path d="m151.812 355.264-.135-5.634-15.069.514.09 8.803.903.064c4.135.234 21.073.902 23.845.081 3.124-.93-9.634-3.828-9.634-3.828Z" fill="#EE4248"/><path opacity=".5" d="M142.143 358.839a5.358 5.358 0 0 0-1.806-3.305 4.383 4.383 0 0 0-3.675-1.011l.054 4.208 5.427.108Z" fill="#fff"/><path opacity=".5" d="M158.042 356.898s4.514 1.3 3.909 2.031c-.605.732-17.696.695-25.28 0v-.334l19.999.217s.505-1.878 1.372-1.914Z" fill="#fff"/><path d="M136.481 358.595H137.484l2.708.127c2.303.081 5.49.162 9.029.18 3.539.018 6.708-.054 9.029-.126l2.708-.109H161.961a1.275 1.275 0 0 0-.262 0H158.25c-2.312 0-5.49.082-9.029.064a507.665 507.665 0 0 1-9.029-.127l-2.708-.063h-1.003v.054Z" fill="#263238"/><path d="M156.706 359.065c.121-.452.294-.888.515-1.3.263-.38.566-.731.903-1.048a2.448 2.448 0 0 0-1.445 2.348h.027ZM152.255 356.808c.045 0 .262-.235.478-.578.217-.343.362-.641.316-.668-.045-.028-.252.225-.469.568a1.812 1.812 0 0 0-.325.678ZM151.072 356.157s.271-.117.533-.352c.262-.234.442-.451.406-.487-.036-.036-.271.126-.533.352-.262.226-.442.451-.406.487ZM150.305 354.74c.516.12 1.054.12 1.571 0a1.961 1.961 0 0 0-.786-.099 1.63 1.63 0 0 0-.785.099ZM150.042 353.747c.268.177.583.268.903.262a1.6 1.6 0 0 0 .903-.118 4.403 4.403 0 0 0-.903-.063 5.687 5.687 0 0 0-.903-.081Z" fill="#263238"/><path d="M152.796 355.498a2.9 2.9 0 0 0 .966 0 5.17 5.17 0 0 0 1.03-.216c.203-.061.4-.143.587-.244a.498.498 0 0 0 .234-.298.379.379 0 0 0-.144-.388 1.805 1.805 0 0 0-2.185.514 1.66 1.66 0 0 0-.316.641.642.642 0 0 0 0 .262c.098-.298.248-.576.442-.821a1.65 1.65 0 0 1 .822-.533 1.517 1.517 0 0 1 1.156.081c.153.108.09.289-.082.388-.17.101-.352.179-.541.235a5.986 5.986 0 0 1-.994.253c-.613.099-.975.09-.975.126Z" fill="#263238"/><path d="M153.049 355.552a.989.989 0 0 0 .108-.668 1.47 1.47 0 0 0-.261-.704.968.968 0 0 0-.804-.496.395.395 0 0 0-.298.442c.025.154.08.301.163.433.125.216.28.414.46.587.147.175.337.309.551.388 0 0-.19-.171-.461-.478a3.568 3.568 0 0 1-.397-.578c-.135-.208-.226-.569 0-.614.226-.045.488.217.632.415.136.185.228.398.271.623.028.216.04.433.036.65ZM136.797 354.496c.37-.02.741-.02 1.111 0a4.702 4.702 0 0 1 3.927 3.142c.226.65.244 1.084.28 1.075a.829.829 0 0 0 0-.298 3.628 3.628 0 0 0-.162-.813 4.57 4.57 0 0 0-1.517-2.239 4.617 4.617 0 0 0-2.51-.993 3.848 3.848 0 0 0-.831 0c-.189.081-.298.108-.298.126ZM144.029 357.358a8.801 8.801 0 0 0 2.194.226 8.416 8.416 0 0 0 2.194-.172c0-.054-.984 0-2.194 0s-2.185-.054-2.194-.054Z" fill="#263238"/><path d="M141.086 357.358s.081.208.181.434c.099.225.153.424.207.424.054 0 .081-.244 0-.497a.591.591 0 0 0-.388-.361ZM139.984 355.986s.064.189.217.343c.154.153.307.262.343.226.036-.036-.063-.19-.217-.352-.153-.163-.307-.253-.343-.217ZM138.396 355.345c0 .054.216.054.433.135.217.082.379.19.415.163.037-.027-.081-.244-.361-.334-.28-.091-.496-.009-.487.036ZM137.267 355.047c0 .045.072.126.199.171.126.046.234.055.253 0 .018-.054-.064-.126-.19-.171-.126-.045-.244-.045-.262 0Z" fill="#263238"/><path opacity=".3" d="m136.644 353.675 15.15-.632v-.614h-15.186l.036 1.246Z" fill="#000"/><path d="m201.218 354.46-.145-5.769-15.412.541.09 9.029.903.063c4.244.244 21.579.903 24.378.091 3.232-.994-9.814-3.955-9.814-3.955Z" fill="#EE4248"/><path opacity=".5" d="M191.313 358.117a5.416 5.416 0 0 0-1.86-3.377 4.457 4.457 0 0 0-3.792-.993l.054 4.306 5.598.064Z" fill="#fff"/><path opacity=".5" d="M207.592 356.139s4.568 1.328 4 2.077c-.569.749-18.112.713-25.85 0v-.343l20.468.226s.488-1.924 1.382-1.96Z" fill="#fff"/><path d="M185.526 357.873h.262l.758.054 2.79.126c2.366.091 5.625.172 9.227.181 3.603.009 6.862-.045 9.219-.117l2.79-.109.758-.045h.271-1.029l-2.79.054c-2.366 0-5.625.082-9.219.073a388.285 388.285 0 0 1-9.218-.136l-2.799-.063h-.758l-.262-.018Z" fill="#263238"/><path d="M206.22 358.351c.132-.462.31-.91.532-1.336.275-.39.593-.747.948-1.065a2.51 2.51 0 0 0-1.48 2.401ZM201.696 356.04c.045 0 .262-.235.488-.587.225-.352.37-.668.325-.695-.045-.027-.262.244-.488.596-.225.352-.37.659-.325.686ZM200.45 355.381s.28-.126.542-.361.451-.461.424-.506c-.027-.045-.28.127-.542.361-.261.235-.46.461-.424.506ZM199.674 353.927c.254.092.525.126.794.1.271.037.546.009.804-.082a1.806 1.806 0 0 0-.795-.099 1.725 1.725 0 0 0-.803.081ZM199.403 352.898c.266.18.582.272.903.262.306.052.62.011.903-.117a4.48 4.48 0 0 0-.903-.064 6.222 6.222 0 0 0-.903-.081Z" fill="#263238"/><path d="M202.22 354.695c.325.063.659.063.984 0 .358-.045.711-.12 1.056-.226.211-.06.414-.145.605-.253a.587.587 0 0 0 .244-.298.387.387 0 0 0-.154-.397 1.81 1.81 0 0 0-2.239.524 1.807 1.807 0 0 0-.325.659.642.642 0 0 0 0 .262c.106-.302.258-.586.452-.84.223-.26.519-.448.848-.542a1.474 1.474 0 0 1 1.174.081c.163.118.099.298-.081.407a3.77 3.77 0 0 1-.551.235 7.44 7.44 0 0 1-1.02.261c-.614.082-.993.082-.993.127Z" fill="#263238"/><path d="M202.473 354.749a.953.953 0 0 0 .117-.686 1.5 1.5 0 0 0-.271-.723.983.983 0 0 0-.812-.505.384.384 0 0 0-.25.166.389.389 0 0 0-.059.141.394.394 0 0 0 .002.153c.02.155.076.303.162.434.129.221.287.425.47.605.152.174.344.31.559.397 0 0-.198-.172-.469-.488a3.56 3.56 0 0 1-.406-.596c-.136-.207-.226-.586 0-.632.225-.045.496.226.65.425.138.191.234.409.28.641.033.221.042.445.027.668ZM185.851 353.675c.376-.021.752-.021 1.128 0a5.012 5.012 0 0 1 2.474 1.029 4.945 4.945 0 0 1 1.544 2.194c.235.659.253 1.101.289 1.092a.93.93 0 0 0 0-.307 3.848 3.848 0 0 0-.163-.83 4.672 4.672 0 0 0-4.126-3.305 4.144 4.144 0 0 0-.848 0c-.199.081-.307.108-.298.127ZM193.245 356.627a8.855 8.855 0 0 0 2.248.226 8.972 8.972 0 0 0 2.248-.172c0-.054-1.011 0-2.248 0-1.237 0-2.239-.108-2.248-.054Z" fill="#263238"/><path d="M190.239 356.609c0 .045.081.217.18.451.1.235.163.434.208.425.045-.009.081-.244 0-.506s-.361-.406-.388-.37ZM189.101 355.2s.063.19.226.352c.162.163.316.262.352.235.036-.027-.063-.198-.217-.361-.153-.162-.316-.262-.361-.226ZM187.467 354.55c0 .055.216.045.442.127.226.081.388.198.425.171.036-.027-.091-.253-.371-.343-.28-.09-.496-.009-.496.045ZM186.329 354.243c0 .045.072.127.199.172.126.045.244.054.262 0 .018-.054-.073-.127-.199-.181-.126-.054-.244-.045-.262.009Z" fill="#263238"/><path opacity=".3" d="m185.688 352.835 15.502-.65v-.632h-15.538l.036 1.282Z" fill="#000"/><path d="m188.306 231.606-61.549-.777 12.857 28.937 35.303.271a4.457 4.457 0 0 1 4.424 4.271l3.792 88.482 23.809-1.806-2.411-101.321a18.68 18.68 0 0 0-16.252-18.057h.027Z" fill="#263238"/><path d="m129.818 262.132 2.618 91.416 29.524-2.104s-1.634-86.224-3.837-109.898c-1.517-16.197-63.327-9.236-63.327-9.236-.903 32.26 35.022 29.795 35.022 29.795" fill="#263238"/><path d="M129.466 254.981c.481 2.72.639 5.487.47 8.243a17.375 17.375 0 0 1-.479-4.108 17.87 17.87 0 0 1 .009-4.135ZM128.392 231.001c.173-.024.349-.024.523 0h1.508c1.309 0 3.196.099 5.535.235 2.338.135 5.119.334 8.189.794a23.868 23.868 0 0 1 9.489 3.44 10.547 10.547 0 0 1 2.031 1.806 6.9 6.9 0 0 1 1.328 2.275c.496 1.559.826 3.166.984 4.794.254 2.734.366 5.48.334 8.225v7.043c.02.174.02.35 0 .524a2.073 2.073 0 0 1-.081-.524c0-.343-.073-.849-.1-1.499-.072-1.309-.117-3.205-.162-5.544-.045-2.338-.09-5.119-.443-8.171a23.27 23.27 0 0 0-.975-4.685 7.895 7.895 0 0 0-3.196-3.811 24.001 24.001 0 0 0-9.281-3.358c-3.043-.479-5.815-.723-8.126-.903l-5.517-.388-1.508-.127a3.486 3.486 0 0 1-.532-.126Z" fill="#455A64"/><path d="M87.193 187.618c.156.019.314.019.47 0h1.345l4.948-.181c4.18-.181 9.932-.451 16.315-.776l3.268-.172h.217v-.217c0-5.579-.063-10.509-.081-14.13 0-1.724-.045-3.133-.063-4.18v-1.129a1.757 1.757 0 0 0 0-.397c-.04.128-.056.263-.046.397v1.129c0 1.047-.045 2.456-.072 4.18 0 3.612-.045 8.551-.072 14.13l.208-.225-3.26.162c-6.374.334-12.135.659-16.315.903l-4.939.334-1.336.108a1.554 1.554 0 0 0-.587.064ZM99.698 149.372a16.416 16.416 0 0 1 3.142-.1 11.15 11.15 0 0 1 6.663 3.197 13.165 13.165 0 0 1 3.422 6.618c.389 1.914.307 3.142.398 3.142.072-.28.103-.569.09-.858a12.05 12.05 0 0 0-.172-2.338 12.775 12.775 0 0 0-3.412-6.889 10.955 10.955 0 0 0-6.962-3.197 8.562 8.562 0 0 0-2.347.163 2.358 2.358 0 0 0-.822.262ZM148.056 162.96a13.397 13.397 0 0 0-.162 2.546v6.221c0 2.429.099 4.379.135 6.085v2.357-2.709c0-1.706.082-3.792.136-6.094.054-2.303 0-4.415 0-5.95.038-.82.002-1.642-.109-2.456Z" fill="#263238"/><path d="m90.327 187.618.64 26.562a10.105 10.105 0 0 0 12.244 9.327l40.151-11.105 3.015-14.853-37.55 7.223-.479-18.057-18.021.903Z" fill="#B78876"/><path d="M104.583 211.246a2.374 2.374 0 0 1-.127-1.273 6.13 6.13 0 0 1 .994-2.926 6.251 6.251 0 0 1 2.293-2.076c.713-.361 1.201-.434 1.219-.379a7.685 7.685 0 0 0-4.379 6.654Z" fill="#AA6550"/><path d="M113.07 169.786v.316a6.547 6.547 0 0 1-.235.903 7.71 7.71 0 0 1-1.806 2.88 7.94 7.94 0 0 1-4.514 2.311 13.366 13.366 0 0 1-6.113-.903 23.012 23.012 0 0 0-5.868-1.498 8.119 8.119 0 0 0-4.686 1.155 8.648 8.648 0 0 0-2.474 2.194c-.479.632-.677 1.03-.713 1.002-.037-.027 0-.108.108-.298.129-.284.283-.556.46-.812a8.067 8.067 0 0 1 2.447-2.366 8.28 8.28 0 0 1 4.876-1.309c2.057.214 4.074.713 5.995 1.481a13.378 13.378 0 0 0 5.905.903 7.825 7.825 0 0 0 4.315-2.122 8.254 8.254 0 0 0 1.887-2.709c.28-.704.37-1.137.416-1.128ZM110.551 153.308a2.301 2.301 0 0 1-.47.596 10.76 10.76 0 0 1-1.543 1.373 13.265 13.265 0 0 1-13.01 1.643 10.997 10.997 0 0 1-1.807-.957 2.084 2.084 0 0 1-.596-.47c.046-.072.903.533 2.547 1.12a13.976 13.976 0 0 0 12.703-1.562c1.39-.975 2.113-1.743 2.176-1.743ZM160.742 163.24a7.759 7.759 0 0 0-1.418-1.381 7.874 7.874 0 0 0-5.11-1.292c-2.284.127-4.803 1.337-7.349 2.98-1.282.803-2.61 1.715-4.072 2.528a15.646 15.646 0 0 1-4.858 1.851 9.932 9.932 0 0 1-5.173-.488 24.192 24.192 0 0 1-4.307-2.167c-2.591-1.598-4.993-2.988-7.223-3.34a7.47 7.47 0 0 0-5.173.903 6.79 6.79 0 0 0-1.472 1.318s.072-.163.271-.443a4.982 4.982 0 0 1 1.101-1.029 7.44 7.44 0 0 1 5.327-1.065c2.357.316 4.831 1.724 7.422 3.295a25.814 25.814 0 0 0 4.243 2.104 9.522 9.522 0 0 0 4.948.46 15.502 15.502 0 0 0 4.704-1.805c1.445-.795 2.763-1.698 4.072-2.501 2.573-1.634 5.174-2.853 7.557-2.944a7.917 7.917 0 0 1 5.237 1.472c.401.307.754.673 1.047 1.083.098.142.174.297.226.461ZM148.056 148.975a6.818 6.818 0 0 1-1.896 1.11 17.15 17.15 0 0 1-10.446 1.138 6.94 6.94 0 0 1-2.095-.677c2.421.488 4.896.643 7.359.46a27.356 27.356 0 0 0 7.078-2.031ZM140.617 189.152s-.361-.316-1.084-.749a7.47 7.47 0 0 0-3.394-.957 12.042 12.042 0 0 0-5.147 1.002c-1.869.723-3.801 1.806-5.986 2.709a21.359 21.359 0 0 1-11.8 1.508 13.259 13.259 0 0 1-3.467-1.129c-.312-.14-.613-.3-.903-.478-.19-.118-.289-.181-.28-.199a19.636 19.636 0 0 0 4.668 1.472 21.925 21.925 0 0 0 11.574-1.608c2.14-.902 4.091-1.977 6.005-2.708a11.939 11.939 0 0 1 5.327-.903 7.126 7.126 0 0 1 3.485 1.138c.278.182.535.394.767.632.136.162.244.261.235.27Z" fill="#FAFAFA"/><path d="M126.072 156.694a9.621 9.621 0 0 0 6.834-2.845 9.62 9.62 0 0 0 2.781-6.861c0-3.34-.09-6.23-.09-6.23s7.719-.713 8.288-8.351c.569-7.639.325-25.281.325-25.281a26.642 26.642 0 0 0-26.914 1.716l-1.183.803.361 37.56a9.612 9.612 0 0 0 9.598 9.489Z" fill="#B78876"/><path d="M135.615 140.668a17.738 17.738 0 0 1-9.787-3.449s2.013 5.652 9.688 5.417l.099-1.968Z" fill="#AA6550"/><path d="M118.081 118.096c-.135-.045-4.83-.659-4.388 4.885.442 5.543 5.896 3.268 5.896 3.106 0-.163-1.508-7.991-1.508-7.991Z" fill="#B78876"/><path d="M117.728 124.236s-.09.081-.243.171a1.007 1.007 0 0 1-.723.072 2.405 2.405 0 0 1-1.282-2.058 3.272 3.272 0 0 1 .163-1.409 1.12 1.12 0 0 1 .235-.48c.117-.138.265-.246.433-.314a.48.48 0 0 1 .587.217c.09.144.063.261.09.27.027.009.118-.108.054-.334a.662.662 0 0 0-.243-.325.752.752 0 0 0-.551-.099 1.367 1.367 0 0 0-.903.903 3.228 3.228 0 0 0-.208 1.571 2.493 2.493 0 0 0 1.598 2.284c.157.038.321.038.478.001a1.03 1.03 0 0 0 .425-.217c.091-.073.109-.244.09-.253Z" fill="#AA6550"/><path d="M144.264 108.417c1.887-.46 2.565-3.286 2.501-5.227a5.418 5.418 0 0 0-3.187-4.515 6.952 6.952 0 0 0-5.661.09 6.11 6.11 0 0 0-6.178-4.992 6.112 6.112 0 0 0-5.893 5.327c-.181-1.472-1.851-2.303-3.341-2.393a4.876 4.876 0 0 0-4.027 1.48 2.998 2.998 0 0 0 0 4.028 6.81 6.81 0 0 0-4.749 1.137 5.044 5.044 0 0 0-1.599 1.877 5.046 5.046 0 0 0-.514 2.412 4.002 4.002 0 0 0 2.989 3.611c.56.118.704-.261 1.002.226.163.516.237 1.057.217 1.598a21.682 21.682 0 0 0 .316 5.237 2.12 2.12 0 0 1 2.708 1.192 6.15 6.15 0 0 1 .307 3.196c.47.713 1.653.496 2.167-.181a4.022 4.022 0 0 0 .56-2.438l.108-8.848a3.013 3.013 0 0 0 2.853 0 2.969 2.969 0 0 0 1.499-2.419 5.841 5.841 0 0 0 9.029-1.093 13.765 13.765 0 0 0 2.907 1.923 4.677 4.677 0 0 0 3.395.298c1.102-.379 2.655-.289 2.636-1.462M142.196 119.333a1.071 1.071 0 0 1-1.038 1.084 1.021 1.021 0 0 1-1.101-.967 1.075 1.075 0 0 1 1.029-1.083c.136-.01.273.007.403.051a1.025 1.025 0 0 1 .601.523c.061.122.097.256.106.392ZM142.432 118.096c-.136.136-.949-.46-2.104-.46-1.156 0-1.996.578-2.122.442-.126-.135.072-.316.442-.587a2.944 2.944 0 0 1 1.698-.523 2.776 2.776 0 0 1 1.67.541c.361.307.479.587.416.587ZM130.902 119.604a1.077 1.077 0 0 1-1.039 1.083 1.013 1.013 0 0 1-.984-.577 1.012 1.012 0 0 1-.099-.389 1.064 1.064 0 0 1 1.029-1.083 1.048 1.048 0 0 1 1.093.966Z" fill="#263238"/><path d="M131.091 118.349c-.135.135-.948-.46-2.104-.46-1.155 0-1.995.577-2.121.433-.127-.145.072-.307.442-.578a2.933 2.933 0 0 1 1.698-.524c.6-.004 1.186.186 1.67.542.361.271.478.524.415.587ZM135.272 126.899c.61-.188 1.24-.3 1.878-.334.298 0 .568-.09.623-.289a1.473 1.473 0 0 0-.199-.903 62.558 62.558 0 0 0-.903-2.248 39.006 39.006 0 0 1-1.959-5.859 38.325 38.325 0 0 1 2.429 5.688c.289.794.568 1.544.83 2.257.178.357.232.764.154 1.156a.757.757 0 0 1-.488.433 2.192 2.192 0 0 1-.496.072 7.591 7.591 0 0 1-1.869.027ZM131.877 127.694c.189 0 .198 1.246 1.264 2.131 1.065.884 2.41.758 2.419.902.009.145-.298.244-.903.262a3.144 3.144 0 0 1-2.013-.704 2.707 2.707 0 0 1-.975-1.806c-.009-.451.126-.785.208-.785ZM131.389 113.826c-.117.316-1.264.162-2.618.325-1.355.162-2.447.532-2.628.252-.081-.135.109-.424.551-.731a4.327 4.327 0 0 1 1.95-.686 4.458 4.458 0 0 1 2.041.244c.505.198.749.442.704.596ZM142.007 114.792c-.207.261-1.002 0-1.959 0-.957 0-1.761.171-1.95-.1-.19-.271.045-.397.397-.65a2.77 2.77 0 0 1 1.589-.424 2.706 2.706 0 0 1 1.562.524c.334.252.451.523.361.65Z" fill="#263238"/><path d="M111.156 106.81c.058.297.182.578.361.822a3.87 3.87 0 0 0 2.239 1.201c1.33.365 2.726.42 4.081.162a4.809 4.809 0 0 0 2.203-1.192 2.563 2.563 0 0 0 .831-2.474 1.217 1.217 0 0 0-1.039-.794.818.818 0 0 0-.82.456.81.81 0 0 0-.082.32 2.8 2.8 0 0 0 1.805 2.483 4.313 4.313 0 0 0 3.467 0 7.14 7.14 0 0 0 2.944-2.383c.401-.522.643-1.15.695-1.806a1.355 1.355 0 0 0-.975-1.372 1.738 1.738 0 0 0-1.743.46 2.229 2.229 0 0 0-.487 1.851 3.772 3.772 0 0 0 2.925 2.709 6.224 6.224 0 0 0 4.343-.488 5.798 5.798 0 0 0 2.925-3.196 2.203 2.203 0 0 0-.153-1.968 1.238 1.238 0 0 0-1.644-.479 1.724 1.724 0 0 0-.821 1.634c.081.673.368 1.303.821 1.806a5.718 5.718 0 0 0 3.404 1.941c2.564.434 5.282-1.128 5.932-3.34a2.132 2.132 0 0 0-1.246-2.619 1.811 1.811 0 0 0-1.904.786 1.805 1.805 0 0 0-.263.677 3.229 3.229 0 0 0 .65 2.618 4.092 4.092 0 0 0 2.032 1.418 3.663 3.663 0 0 0 3.756-.903 4.15 4.15 0 0 0 1.237-2.23c.05-.299.083-.601.099-.903.051.299.051.604 0 .903a4.192 4.192 0 0 1-1.21 2.347 3.902 3.902 0 0 1-1.652 1.002 3.83 3.83 0 0 1-2.302 0 4.437 4.437 0 0 1-2.203-1.489 3.541 3.541 0 0 1-.732-2.871c.124-.56.444-1.057.903-1.4a1.926 1.926 0 0 1 1.716-.334 2.496 2.496 0 0 1 1.516 3.061 5.02 5.02 0 0 1-2.419 2.925 6.036 6.036 0 0 1-3.964.74 6.132 6.132 0 0 1-3.675-2.076 3.732 3.732 0 0 1-.902-2.059c-.04-.408.038-.819.224-1.185.185-.366.47-.672.823-.882a1.563 1.563 0 0 1 1.255-.145 1.9 1.9 0 0 1 .993.759 2.627 2.627 0 0 1 .217 2.374 6.246 6.246 0 0 1-3.16 3.476 6.613 6.613 0 0 1-4.668.506 5.166 5.166 0 0 1-2.086-1.075 3.431 3.431 0 0 1-1.183-2.031 2.716 2.716 0 0 1 .614-2.23 2.144 2.144 0 0 1 2.14-.479c.393.108.735.351.966.687.221.33.335.721.325 1.119a3.819 3.819 0 0 1-.785 2.014 7.645 7.645 0 0 1-3.142 2.519 4.72 4.72 0 0 1-3.792-.064 3.938 3.938 0 0 1-1.445-1.155 2.512 2.512 0 0 1-.551-1.725c.034-.322.189-.619.434-.83a1.162 1.162 0 0 1 .903-.244 1.52 1.52 0 0 1 1.309 1.029 2.843 2.843 0 0 1-.903 2.799 5.109 5.109 0 0 1-2.348 1.228 9.028 9.028 0 0 1-4.189-.235 3.91 3.91 0 0 1-2.275-1.327 1.693 1.693 0 0 1-.271-.641.68.68 0 0 1-.054-.208Z" fill="#455A64"/><path d="M122.758 212.393h70.036l11.548-44.729h-58.434l-9.246 41.812-13.904.325v2.592Z" fill="#E0E0E0"/><path d="M473.091 345.413h6.6v-79.119h-6.6v79.119Z" fill="#455A64"/><path d="M429.663 269.87h94.45a10.247 10.247 0 0 0-10.248-10.248h-73.954a10.247 10.247 0 0 0-10.248 10.248Z" fill="#263238"/><path d="M469.977 270.077c3.855.313 7.728.313 11.583 0a68.925 68.925 0 0 0-11.583 0Z" fill="#263238"/><path d="M447.495 352.582h.903a28.107 28.107 0 0 1 56.204 0h.903a29.044 29.044 0 0 0-8.32-20.862 29.02 29.02 0 0 0-20.712-8.686 29.044 29.044 0 0 0-20.712 8.686 29.041 29.041 0 0 0-8.32 20.862h.054Z" fill="#455A64"/><path d="M500.765 354.027c0 .862.255 1.705.735 2.422a4.355 4.355 0 0 0 4.476 1.855 4.367 4.367 0 0 0 3.427-3.427 4.362 4.362 0 0 0-5.948-4.882 4.363 4.363 0 0 0-2.361 2.361 4.336 4.336 0 0 0-.329 1.671Z" fill="#263238"/><path d="M443.396 353.422a4.364 4.364 0 0 0 2.688 4.036 4.36 4.36 0 1 0 1.664-8.388 4.351 4.351 0 0 0-4.352 4.352ZM447.784 345.413c0 .136 12.64.244 28.215.244s28.215-.108 28.215-.244c0-.135-12.64-.244-28.215-.244s-28.215.109-28.215.244Z" fill="#455A64"/><path d="M526.894 187.961v58.244a13.832 13.832 0 0 1-13.832 13.832H468.18l6.094-72.076a6.165 6.165 0 0 1 1.806-4.361 6.186 6.186 0 0 1 2.001-1.337 6.183 6.183 0 0 1 2.36-.469h40.286a6.17 6.17 0 0 1 6.167 6.167Z" fill="#263238"/><path d="m511.021 259.622.109-.172.325-.478c.298-.415.722-1.029 1.237-1.806a30.589 30.589 0 0 0 3.34-7.422c.545-1.796.917-3.64 1.111-5.507.186-2.15.246-4.308.181-6.465v-14.888c0-10.546.054-20.089.072-27.086 0-3.431.054-6.221.072-8.198v-2.231c-.005-.259.01-.519.045-.776a3.87 3.87 0 0 1 0 .776v2.231c0 1.977.045 4.767.081 8.198 0 6.961 0 16.504.064 27.086v14.888a54.2 54.2 0 0 1-.226 6.51 30.013 30.013 0 0 1-1.174 5.562 29.196 29.196 0 0 1-3.512 7.421 25.653 25.653 0 0 1-1.309 1.806c-.122.195-.261.38-.416.551Z" fill="#455A64"/><path d="M486.589 259.649c.472-.073.95-.1 1.427-.081l3.882-.045h12.839c2.501 0 4.894 0 7.061.081a23.125 23.125 0 0 1 5.76.632 9.019 9.019 0 0 1 3.467 1.806c.273.228.524.482.749.758.163.181.244.28.226.289-.018.009-.361-.352-1.092-.903a9.258 9.258 0 0 0-3.431-1.634 23.632 23.632 0 0 0-5.688-.524l-7.061-.045c-5.011 0-9.543-.09-12.83-.153l-3.882-.109a8.108 8.108 0 0 1-1.427-.072Z" fill="#455A64"/><path d="M508.584 201.468c-1.057-8.731-2.456-16.171-2.456-16.171h-18.907s2.348 11.069 1.806 13.643c-.451 2.23-37.117 3.72-46.669 3.864-.569-.424-1.4.289-2.131-.352a7.457 7.457 0 0 1-1.625-2.005 11.672 11.672 0 0 1-1.31-2.961.98.98 0 0 0-.756-.843.98.98 0 0 0-1.049.428c-.379.821.054 3.548 1.869 6.175 1.814 2.628-2.944 1.264-4.686.804-1.743-.461-7.223-1.652-7.765-1.219-.831.641-.307 1.67 1.445 2.095 1.751.424 6.907 2.076 6.627 3.006-.28.93-9.119-1.58-9.119-1.58s-1.806-.848-2.167.217c-.65 1.923 8.938 3.864 9.85 4.027.641.117.37 1.137-.307.984-.677-.154-8.767-2.709-9.444-.749-.524 1.489 7.873 1.67 9.264 3.151 1.39 1.48-6.321-.795-6.799.65-.172.541 3.052.794 7.683 1.444 4.756.455 9.535.624 14.311.506 10.744.596 48.701 1.372 56.809.803 9.444-.668 5.887-12.92 5.526-15.917Z" fill="#FFBE9D"/><path d="M395.76 156.188s-5.209-5.317-6.221-5.525c-1.011-.208-10.771-5.11-10.771-5.11a1.664 1.664 0 0 0-.192 1.978c.122.203.286.378.481.514 1.445 1.146 4.857 3.214 4.857 3.214l-2.41 4.758s2.311 7.72 2.708 7.566c.398-.153.813-1.517.813-1.517l-.731-2.438 4.722 3.946 2.049-.235 4.695-7.151Z" fill="#FFB29D"/><path d="M391.742 153.633a22.399 22.399 0 0 1-3.286-1.598l-2.573-.686.289-.199a3.235 3.235 0 0 0 .686 2.167 8.256 8.256 0 0 0 2.627 2.185l.172.091-.064.171a5.78 5.78 0 0 0-.108 3.612c.253.903.533 1.345.488 1.372a2.93 2.93 0 0 1-.732-1.291 5.65 5.65 0 0 1-.054-3.828l.109.262a8.03 8.03 0 0 1-2.817-2.294 3.61 3.61 0 0 1-.759-2.483v-.271l.262.073 2.555.767a24.395 24.395 0 0 1 3.205 1.95Z" fill="#EB9078"/><path d="M383.021 156.098a27.91 27.91 0 0 0 2.022 5.923c.444-.55.754-1.196.903-1.887" fill="#FFB29D"/><path d="M385.964 160.134a2.907 2.907 0 0 1-.759 2.013l-.189.253-.154-.298a18.529 18.529 0 0 1-.848-1.905 11.308 11.308 0 0 1-.993-4.099c.135 0 .595 1.806 1.426 3.928.271.704.542 1.354.786 1.905l-.344-.045c.406-.554.766-1.139 1.075-1.752Z" fill="#EB9078"/><path d="M386.099 152.55c.398.62.702 1.296.903 2.004.287.759.475 1.551.56 2.357a5.987 5.987 0 0 1-.415 2.97c-.174.4-.402.773-.677 1.111l-.235.271-.154-.325a23.562 23.562 0 0 1-1.516-4.235 5.989 5.989 0 0 1-.298-1.806c.126 0 .695 2.628 2.23 5.815h-.389c.247-.302.45-.636.605-.993a7.488 7.488 0 0 0 0-5.047 16.489 16.489 0 0 1-.614-2.122Z" fill="#EB9078"/><path d="m395.76 156.188 37 25.046-10.798 13.498-30.86-31.438 4.658-7.106Z" fill="#FFB29D"/><path d="m435.062 353.747-.18-9.101 17.037-.461.415 13.309-1.056.099c-4.695.388-23.899 1.634-27.086.767-3.513-1.002 10.87-4.613 10.87-4.613Z" fill="#EE4248"/><path opacity=".5" d="M446.15 357.485a5.91 5.91 0 0 1 2.077-3.693 5.695 5.695 0 0 1 3.945-1.345l.136 4.758-6.158.28Z" fill="#fff"/><path opacity=".4" d="M428.038 355.733s-5.029 1.598-4.379 2.42c.65.821 20.107.28 28.675-.704l-.045-.38-22.68.822s-.578-2.14-1.571-2.158Z" fill="#fff"/><path d="M452.56 357.051h-.289l-.84.073-3.096.216c-2.61.163-6.23.343-10.221.461-3.991.117-7.611.135-10.23.117l-3.096-.045h-1.138a1 1 0 0 1 .289 0H427.884c2.619 0 6.23-.063 10.23-.181 4-.117 7.602-.271 10.211-.397l3.097-.153h.84c.095-.043.195-.073.298-.091Z" fill="#263238"/><path d="M429.618 358.153a6.708 6.708 0 0 0-.614-1.463 7.332 7.332 0 0 0-1.092-1.156c.535.183.985.556 1.264 1.048.336.451.493 1.01.442 1.571ZM434.575 355.462c-.045 0-.298-.253-.551-.641-.253-.388-.433-.722-.388-.749.045-.027.298.253.56.641.261.388.424.722.379.749ZM435.938 354.695c0 .045-.316-.127-.614-.379-.298-.253-.514-.506-.478-.542.036-.036.316.126.614.379s.514.497.478.542ZM436.76 353.061c0 .063-.388.126-.903.144a2.075 2.075 0 0 1-.903-.072c.287-.112.596-.158.903-.136.302-.044.61-.023.903.064ZM437.03 351.941c-.29.199-.632.309-.984.316a1.714 1.714 0 0 1-1.029-.108 5.448 5.448 0 0 1 1.011-.1c.33-.066.666-.102 1.002-.108Z" fill="#263238"/><path d="M433.952 353.991a3.046 3.046 0 0 1-1.102 0 6.895 6.895 0 0 1-1.174-.226 3.477 3.477 0 0 1-.668-.253.615.615 0 0 1-.28-.334.41.41 0 0 1 .009-.245.408.408 0 0 1 .145-.197 2 2 0 0 1 2.501.514c.173.212.299.458.37.722.054.19.054.289 0 .298a2.796 2.796 0 0 0-.524-.902 2.02 2.02 0 0 0-.903-.587 1.715 1.715 0 0 0-1.3.126c-.171.136-.099.334.1.452.199.101.408.182.623.243.37.112.747.199 1.128.262.659.108 1.075.099 1.075.127Z" fill="#263238"/><path d="M433.672 354.054a1.132 1.132 0 0 1-.145-.759c.025-.287.121-.563.28-.803a1.093 1.093 0 0 1 .903-.587.443.443 0 0 1 .352.496 1.29 1.29 0 0 1-.171.497 3.27 3.27 0 0 1-.497.677 1.66 1.66 0 0 1-.614.461s.208-.208.497-.56c.176-.202.324-.427.442-.668.144-.235.235-.65 0-.695-.235-.046-.551.261-.713.487a1.8 1.8 0 0 0-.289.713 3.994 3.994 0 0 0-.045.741ZM452.082 352.401s-.488 0-1.255.082a5.296 5.296 0 0 0-4.361 3.674c-.244.741-.253 1.228-.298 1.228a1.232 1.232 0 0 1 0-.343c.029-.305.083-.607.162-.903a5.284 5.284 0 0 1 1.661-2.582 5.171 5.171 0 0 1 2.826-1.192 4.13 4.13 0 0 1 .903 0c.289-.009.362.018.362.036ZM450.122 345.359c.146 1.159.228 2.326.244 3.494a27.297 27.297 0 0 1 0 3.503 59.014 59.014 0 0 1-.28-6.997h.036ZM443.956 355.878a9.391 9.391 0 0 1-2.474.316 9.75 9.75 0 0 1-2.501-.127c0-.063 1.12 0 2.492-.081 1.372-.081 2.474-.163 2.483-.108Z" fill="#263238"/><path d="M447.297 355.787c.045 0-.082.235-.19.497s-.163.478-.217.478c-.054 0-.099-.261 0-.559.1-.298.37-.461.407-.416ZM448.515 354.18s-.063.226-.235.406c-.171.181-.343.298-.388.262-.045-.036.063-.216.235-.406.171-.19.343-.298.388-.262ZM450.294 353.422c0 .054-.235.054-.487.153-.253.099-.425.235-.47.199-.045-.036.09-.28.397-.388.307-.109.578-.018.56.036ZM451.567 353.042c0 .055-.072.145-.217.208-.144.063-.271.063-.289 0-.018-.063.073-.144.217-.208.145-.063.271-.054.289 0Z" fill="#263238"/><path d="m393.918 304.991 3.919-8.125 15.403 7.304-5.652 12.053-.984-.397c-4.361-1.806-22.048-9.345-24.486-11.557-2.682-2.501 11.8.722 11.8.722Z" fill="#EE4248"/><path opacity=".5" d="M402.089 313.415a5.888 5.888 0 0 1 3.522-2.347 5.733 5.733 0 0 1 4.135.587l-2.041 4.306-5.616-2.546Z" fill="#fff"/><path opacity=".4" d="M386.732 303.664s-5.21-.848-5.002.181c.207 1.029 17.804 9.345 25.885 12.342l.145-.361-20.604-9.534s.451-2.203-.424-2.628Z" fill="#fff"/><path d="m408.003 315.934-.234-.108-.786-.307-2.853-1.21a320.663 320.663 0 0 1-9.327-4.207c-3.62-1.698-6.844-3.332-9.173-4.515l-2.709-1.435-.74-.407-.253-.153c.095.028.186.068.271.117l.758.371 2.772 1.381a526.234 526.234 0 0 0 9.201 4.469 488.476 488.476 0 0 0 9.29 4.262l2.835 1.264.768.352.18.126Z" fill="#263238"/><path d="M387.048 306.535a7.533 7.533 0 0 0 .108-1.58 6.776 6.776 0 0 0-.451-1.526c.399.4.634.935.659 1.499a2.312 2.312 0 0 1-.316 1.607ZM392.681 306.382a1.926 1.926 0 0 1-.207-.822 1.868 1.868 0 0 1 0-.848c.063 0 .153.361.207.821.054.461.063.84 0 .849ZM394.225 306.31c-.054 0-.216-.253-.37-.614-.153-.361-.235-.677-.18-.705.054-.027.216.253.37.623.153.371.252.678.18.696ZM395.724 305.226a2.029 2.029 0 0 1-.903-.271c-.442-.207-.785-.415-.767-.469.018-.054.406.072.858.28.299.097.575.253.812.46ZM396.473 304.332a1.737 1.737 0 0 1-1.02-.162c-.542-.208-.903-.515-.903-.56.313.092.616.216.903.37.35.087.691.205 1.02.352Z" fill="#263238"/><path d="M392.799 304.793a3.383 3.383 0 0 1-.994-.479 6.464 6.464 0 0 1-.902-.731 3.474 3.474 0 0 1-.488-.533.585.585 0 0 1-.099-.424.422.422 0 0 1 .298-.343 2.005 2.005 0 0 1 1.995 1.598 1.8 1.8 0 0 1 0 .813c0 .18-.081.279-.099.279a3.075 3.075 0 0 0-.045-1.065 2.09 2.09 0 0 0-.587-.948 1.713 1.713 0 0 0-1.219-.479c-.217.046-.244.262-.118.443.134.183.285.352.452.505.281.273.583.524.903.75.523.397.912.578.903.614Z" fill="#263238"/><path d="M392.519 304.721a1.08 1.08 0 0 1 .208-.741c.154-.245.364-.449.614-.596a1.097 1.097 0 0 1 1.065-.117.434.434 0 0 1 .09.596 1.228 1.228 0 0 1-.379.37 3.634 3.634 0 0 1-.749.379c-.238.106-.499.15-.759.127 0 0 .28-.082.705-.271.246-.106.479-.239.695-.397.234-.145.505-.47.28-.632a.976.976 0 0 0-.858.108 1.795 1.795 0 0 0-.578.515 3.517 3.517 0 0 0-.334.659ZM409.683 311.573s-.425-.252-1.156-.505a5.413 5.413 0 0 0-5.562 1.309c-.541.551-.776.984-.812.966a.91.91 0 0 1 .153-.316 5.16 5.16 0 0 1 6.266-2.095c.295.11.577.252.84.425.162.126.28.207.271.216ZM411.118 304.405a28.944 28.944 0 0 1-1.363 3.223 28.286 28.286 0 0 1-1.553 3.142c.392-1.1.847-2.176 1.363-3.223a28.2 28.2 0 0 1 1.553-3.142ZM400.861 310.996a9.212 9.212 0 0 1-2.356-.84 9.786 9.786 0 0 1-2.167-1.246c0-.054 1.011.487 2.257 1.056 1.246.569 2.284.975 2.266 1.03Z" fill="#263238"/><path d="M403.886 312.422c0 .054-.19.172-.397.361-.208.19-.361.352-.416.325-.054-.027 0-.28.28-.487.28-.208.515-.253.533-.199ZM405.692 311.546c0 .054-.154.163-.388.253-.235.09-.443.108-.47.054-.027-.054.163-.162.397-.253.235-.09.443-.108.461-.054ZM407.624 311.673c0 .045-.235-.054-.496-.082-.262-.027-.488 0-.515 0-.027 0 .208-.207.533-.171.325.036.523.208.478.253ZM408.933 311.908c0 .063-.135.099-.289.09-.153-.009-.262-.072-.262-.127 0-.054.127-.09.28-.081.154.009.271.063.271.118ZM506.543 184.999a92.589 92.589 0 0 1-9.868.298 93.827 93.827 0 0 1-9.878-.226 186.333 186.333 0 0 1 19.746-.072Z" fill="#263238"/><path d="m506.281 185.956-3.611-18.175c-2.709-14.87-23.52-15.899-23.52-15.899l-16.36-.262s-12.135-1.634-19.62 6.808c-7.746 8.739-17.263 19.059-17.263 19.059l7.223 18.284 17.218-14.203a17.551 17.551 0 0 0-2.311 8.262c0 4.848 5.056 7.078 5.056 7.078l1.544 14.744-5.111 23.818 53.442-2.14a53.17 53.17 0 0 0-7.882-22.454l.993-24.911 10.202-.009Z" fill="#EE4248"/><path d="M448.461 186.471c.141-.836.356-1.658.641-2.456.226-.749.506-1.643.849-2.627.171-.488.361-1.002.578-1.526.117-.289.27-.533.343-.768.08-.253.113-.519.099-.785a11.916 11.916 0 0 0-.253-1.67 89.73 89.73 0 0 1-.298-1.598c-.171-.976-.325-1.878-.469-2.709a11.577 11.577 0 0 1-.307-2.528c.308.793.532 1.616.668 2.456.18.821.37 1.724.587 2.708.096.512.204 1.045.325 1.598.139.594.229 1.198.271 1.806.015.324-.028.648-.127.957-.108.325-.262.569-.361.804-.226.514-.415 1.011-.605 1.499l-.903 2.573a11 11 0 0 1-1.038 2.266Z" fill="#263238"/><path opacity=".2" d="M483.962 170.508a622.292 622.292 0 0 1 1.255 29.623 7.552 7.552 0 0 0 3.811-1.191c.523-4.334-2.709-17.507-5.066-28.432Z" fill="#000"/><path d="M503.121 230.956s-69.864-14.636-76.636-11.431c-6.771 3.205-37.921 80.356-37.921 80.356l25.118 10.835 27.033-65.522s48.917 17.868 57.459 16.089c8.541-1.778 4.947-30.327 4.947-30.327Z" fill="#455A64"/><path d="M471.872 235.046c-1.074.352-41.487 16.965-44.34 22.31-2.853 5.345 4.153 94.025 4.153 94.025h23.033l-1.427-78.821 44.864-11.367-26.283-26.147Z" fill="#455A64"/><path d="M498.372 261.374a3.048 3.048 0 0 1-.659-.082l-1.878-.334a262.875 262.875 0 0 1-6.889-1.381c-5.805-1.228-13.787-3.079-22.491-5.571a268.858 268.858 0 0 1-12.17-3.846c-3.711-1.273-7.016-2.546-9.742-3.72a88.907 88.907 0 0 1-3.675-1.589c-1.075-.488-1.995-.903-2.709-1.291l-1.706-.858a2.684 2.684 0 0 1-.578-.334c.216.053.425.132.623.235l1.752.776c.749.343 1.679.75 2.762 1.201 1.084.451 2.312.984 3.693 1.517 2.709 1.119 6.067 2.311 9.76 3.611 3.693 1.3 7.819 2.546 12.162 3.801 8.686 2.492 16.649 4.397 22.427 5.716l6.844 1.544 1.86.424c.21.039.416.099.614.181ZM427.569 277.725a6.411 6.411 0 0 1-.208-1.328c-.108-.957-.235-2.176-.388-3.611-.154-1.436-.316-3.395-.497-5.417a24.276 24.276 0 0 1 0-6.682 10.448 10.448 0 0 1 3.359-5.778 17.669 17.669 0 0 1 4.595-2.962c1.418-.65 2.601-1.056 3.413-1.345a6.589 6.589 0 0 1 1.291-.37c0 .09-1.805.722-4.514 2.05a18.178 18.178 0 0 0-4.424 2.979 10.12 10.12 0 0 0-3.169 5.526 25.611 25.611 0 0 0 0 6.546c.144 2.004.28 3.837.388 5.417.108 1.58.163 2.708.217 3.611.029.456.008.913-.063 1.364ZM447.739 270.113a16.413 16.413 0 0 1 5.417 2.393 8.957 8.957 0 0 1-2.826-.957 8.673 8.673 0 0 1-2.591-1.436Z" fill="#263238"/><path d="M449.761 267.685a31.313 31.313 0 0 1 1.806 2.591c1.038 1.39 2.094 2.356 1.995 2.474a8.262 8.262 0 0 1-3.828-5.065h.027Z" fill="#263238"/><path d="M458.591 271.323s-.072.19-.361.361c-.407.22-.865.328-1.327.316a15.476 15.476 0 0 0-1.914.046 1.324 1.324 0 0 0-1.138 1.462c0 3.377-.135 6.149-.289 6.14a34.357 34.357 0 0 1-.243-6.167c.001-.473.156-.932.442-1.309a1.805 1.805 0 0 1 1.147-.605 11.273 11.273 0 0 1 1.995.063 3.286 3.286 0 0 0 1.688-.307Z" fill="#263238"/><path opacity=".2" d="m453.075 219.038 47.626 3.828-2.031-5.327-45.126-.65-.469 2.149Z" fill="#000"/><path d="M454.303 109.067c-3.495 1.129-7.549 3.449-5.535 14.383.903 4.813 2.004 9.715 5.228 13.39a2.28 2.28 0 0 0 1.869 1.029c.52-.144.976-.463 1.291-.903 3.665-3.99 6.789-8.712 7.782-14.039.994-5.327-.496-11.341-4.695-14.771" fill="#263238"/><path d="M461.038 156.504c-.117-5.029-.325-10.419-.325-10.419s-7.656-.966-7.99-8.776c-.334-7.81-.407-21.497-.407-21.497l14.943-11.06 10.491 14.446.262 37.018a8.473 8.473 0 0 1-.628 3.267 8.475 8.475 0 0 1-4.596 4.631 8.49 8.49 0 0 1-11.75-7.61Z" fill="#FFB29D"/><path d="M460.677 146.085a18.643 18.643 0 0 0 10.13-3.322s-2.384 5.688-10.004 5.236l-.126-1.914ZM461.363 136.984a.9.9 0 0 1 .067-.917.9.9 0 0 1 .836-.383 1.442 1.442 0 0 1 1.463-1.273 1.638 1.638 0 0 1 1.48 1.327 1.882 1.882 0 0 1-.83 1.851 2.244 2.244 0 0 1-2.059.154 1.627 1.627 0 0 1-1.038-1.228" fill="#EB9078"/><path d="M454.14 125.617a1.068 1.068 0 0 0 1.039 1.075 1.021 1.021 0 0 0 1.101-.967 1.083 1.083 0 0 0-1.029-1.083 1.039 1.039 0 0 0-.762.253 1.027 1.027 0 0 0-.349.722ZM453.906 124.416c.135.145.902-.46 2.103-.46s1.996.587 2.122.442c.126-.144-.072-.316-.442-.587a3.008 3.008 0 0 0-1.698-.523 2.836 2.836 0 0 0-1.67.541c-.361.262-.506.515-.415.587ZM465.435 125.888a1.066 1.066 0 0 0 1.038 1.074 1.016 1.016 0 0 0 1.001-.572c.06-.123.094-.257.101-.394a1.081 1.081 0 0 0-1.029-1.083 1.054 1.054 0 0 0-.406.051 1.049 1.049 0 0 0-.601.529 1.025 1.025 0 0 0-.104.395ZM465.246 124.624c.135.135.948-.461 2.094-.461 1.147 0 2.005.578 2.131.443.127-.136-.072-.316-.442-.587a3.027 3.027 0 0 0-1.671-.506 2.886 2.886 0 0 0-1.67.542c-.388.253-.506.506-.442.569ZM461.038 133.174a7.51 7.51 0 0 0-1.869-.334c-.298 0-.578-.09-.623-.289a1.473 1.473 0 0 1 .199-.903c.271-.713.56-1.462.903-2.239a39.354 39.354 0 0 0 1.959-5.869 38.897 38.897 0 0 0-2.429 5.698c-.289.785-.568 1.535-.83 2.257-.186.355-.24.764-.154 1.156a.72.72 0 0 0 .195.268.723.723 0 0 0 .293.156c.161.047.328.071.496.072a6.98 6.98 0 0 0 1.86.027ZM464.451 133.978c-.18 0-.189 1.237-1.255 2.131-1.065.893-2.41.749-2.419.902-.009.154.298.244.902.262a3.147 3.147 0 0 0 2.014-.704 2.711 2.711 0 0 0 .975-1.806c-.018-.487-.126-.794-.217-.785ZM464.731 122.051c.108.307 1.264.162 2.618.325 1.354.162 2.447.532 2.627.253.073-.136-.117-.434-.55-.732a4.384 4.384 0 0 0-1.951-.686 4.26 4.26 0 0 0-2.049.244c-.497.198-.777.442-.695.596ZM454.33 121.067c.207.261 1.002 0 1.959 0 .957 0 1.806.171 1.95-.1.081-.135 0-.397-.406-.641a2.656 2.656 0 0 0-1.58-.433 2.701 2.701 0 0 0-1.562.524c-.334.252-.452.523-.361.65Z" fill="#263238"/><path d="M470.78 121.419a6.017 6.017 0 0 0 3.801-1.355c.695 1.806.677 3.883 1.309 5.743.632 1.86 2.122 9.552 4.072 9.263 1.806-.271 3.052-8.026 3.512-9.769 1.255-4.839-.325-10.157-3.53-13.985-3.819-4.515-10.175-8.406-16.08-7.982a13.28 13.28 0 0 0-7.34 2.573s-3.188 2.465-2.926 5.598c.37 4.379 6.754 7.223 11.133 7.061l.632.605a7.565 7.565 0 0 0 5.417 2.248Z" fill="#263238"/><path d="M452.235 119.983a6.465 6.465 0 0 0 2.185-3.494c.313-1.366.482-2.761.505-4.162 0-.407-.045-.903-.433-1.03-.388-.126-.695.289-.903.633a13.47 13.47 0 0 0-1.381 8.459c.081-.081-.262.217-.181.136M480.513 152.405a9.234 9.234 0 0 0 3.052-7.972c-.28-2.248-1.391-4.388-1.282-6.645.081-1.806.902-3.422 1.498-5.119a17.764 17.764 0 0 0 .678-8.614c-.389-2.275-1.31-4.595-3.188-5.941-1.878-1.345-4.83-1.309-6.211.533l-.669.208a18.755 18.755 0 0 0 2.384 19.962 10.23 10.23 0 0 0 .172 13.733 11.197 11.197 0 0 0-1.409 11.223l.063.135a9.877 9.877 0 0 0-.334 13.182 9.765 9.765 0 0 0-3.322 5.715 5.325 5.325 0 0 0 2.762 5.526 6.325 6.325 0 0 0-.855 8.73 6.323 6.323 0 0 0 2.553 1.924 19.647 19.647 0 0 1 3.223-2.628 3.275 3.275 0 0 1-1.481-1.426 4.117 4.117 0 0 0 2.501.785l-1.083-4.911a6.39 6.39 0 0 0-.903-2.528.971.971 0 0 0-.126-.145 5.893 5.893 0 0 0 2.808-3.042c.975-2.519.298-5.418-1.003-7.792 1.373-2.826 2.709-5.797 2.709-8.939a9.54 9.54 0 0 0-.903-4.144 11.738 11.738 0 0 0 1.941-6.32 6.03 6.03 0 0 0-3.575-5.49Z" fill="#263238"/><path d="M479.52 177.036a2.6 2.6 0 0 1-2.094.776 2.644 2.644 0 0 1-2.122-.713c.063-.126.957.271 2.112.244 1.156-.027 2.041-.434 2.104-.307ZM481.552 165.849a18.051 18.051 0 0 0-4.515 3.874 18.654 18.654 0 0 0-2.6 5.318 4.69 4.69 0 0 1 .271-1.761 11.733 11.733 0 0 1 5.173-6.717 4.314 4.314 0 0 1 1.671-.714ZM480.649 164.314a3.294 3.294 0 0 1-4.127 0c.064-.126.903.262 2.068.253 1.165-.009 1.995-.37 2.059-.253ZM482.057 162.789a12.025 12.025 0 0 0-4.343-8.74 3.34 3.34 0 0 1 1.282.803 9.308 9.308 0 0 1 3.188 6.429 3.255 3.255 0 0 1-.127 1.508ZM480.902 151.132c.108.064-.371.813-1.346 1.192-.975.379-1.806.163-1.806 0 0-.162.786-.135 1.635-.469.848-.334 1.399-.813 1.517-.723ZM478.093 151.656a3.205 3.205 0 0 1-.993-1.661 7.219 7.219 0 0 1 .208-4.668 12.371 12.371 0 0 1 2.546-3.91 6.607 6.607 0 0 1 1.418-1.309 9.29 9.29 0 0 1-1.165 1.526 14.458 14.458 0 0 0-2.357 3.864 7.551 7.551 0 0 0-.334 4.397c.19.6.417 1.188.677 1.761ZM481.335 139.016a3.787 3.787 0 0 1-4.208-.858c.082-.108.903.397 2.068.623 1.165.226 2.113.081 2.14.235ZM484.946 126.601a5.055 5.055 0 0 1-2.076.145 10.028 10.028 0 0 1-8.126-5.363 4.875 4.875 0 0 1-.686-1.969c.072 0 .325.732.975 1.806a10.782 10.782 0 0 0 7.9 5.201c1.219.171 2.013.099 2.013.18Z" fill="#455A64"/><path d="M484.251 131.242s-.172.208-.596.388a3.614 3.614 0 0 1-1.95.181 9.37 9.37 0 0 1-5.309-3.449 11.815 11.815 0 0 1-2.564-5.806 9.602 9.602 0 0 1-.09-1.932 2.212 2.212 0 0 1 .108-.704c.09 0 0 1.011.307 2.582a12.574 12.574 0 0 0 2.609 5.562 9.676 9.676 0 0 0 4.993 3.422 4.23 4.23 0 0 0 2.492-.244ZM482.581 116.949a3.728 3.728 0 0 1-.903.425 9.737 9.737 0 0 1-2.645.605 10.946 10.946 0 0 1-4.081-.397 10.606 10.606 0 0 1-4.515-2.538l.235.055a11.832 11.832 0 0 1-3.187.623 12.066 12.066 0 0 1-6.14-1.264 11.743 11.743 0 0 1-3.945-3.287 11.091 11.091 0 0 1-1.689-3.016 8.328 8.328 0 0 1-.28-.902c0-.208-.063-.316 0-.325a15.398 15.398 0 0 0 2.267 4.026 11.64 11.64 0 0 0 9.805 4.289 11.663 11.663 0 0 0 3.061-.587h.135l.099.09a10.518 10.518 0 0 0 4.262 2.483 11.24 11.24 0 0 0 3.946.488 15.966 15.966 0 0 0 3.575-.768Z" fill="#455A64"/><path d="M479.096 110.656a3.307 3.307 0 0 1-.903.154c-.605.072-1.481.153-2.564.253l-3.801.307c-1.568.15-3.146.15-4.713 0a15.985 15.985 0 0 1-7.892-3.187 14.499 14.499 0 0 1-1.905-1.752 3.362 3.362 0 0 1-.568-.758c.063-.064.902.993 2.708 2.248a16.711 16.711 0 0 0 7.747 2.979 27.24 27.24 0 0 0 4.623 0l3.819-.207a79.088 79.088 0 0 1 2.573-.1c.293-.013.587.008.876.063ZM479.502 187.229a2.928 2.928 0 0 1-2.284.985 2.87 2.87 0 0 1-2.384-.705 16.48 16.48 0 0 0 2.356.235 17.384 17.384 0 0 0 2.312-.515Z" fill="#455A64"/><path d="M477.687 188.611c.005-.475.047-.949.127-1.418a9.637 9.637 0 0 0-.37-3.322 9.74 9.74 0 0 0-1.535-2.971c-.533-.686-.903-1.047-.903-1.11.45.202.844.512 1.147.903a8.066 8.066 0 0 1 1.724 3.051 7.824 7.824 0 0 1 .253 3.503 2.97 2.97 0 0 1-.443 1.364Z" fill="#455A64"/><path d="M508.584 201.468c-1.057-8.731-2.456-16.171-2.456-16.171h-18.907s2.348 11.069 1.806 13.643c-.451 2.23-37.117 3.72-46.669 3.864-.569-.424-1.4.289-2.131-.352a7.457 7.457 0 0 1-1.625-2.005 11.672 11.672 0 0 1-1.31-2.961.98.98 0 0 0-.756-.843.98.98 0 0 0-1.049.428c-.379.821.054 3.548 1.869 6.175 1.814 2.628-2.944 1.264-4.686.804-1.743-.461-7.223-1.652-7.765-1.219-.831.641-.307 1.67 1.445 2.095 1.751.424 6.907 2.076 6.627 3.006-.28.93-9.119-1.58-9.119-1.58s-1.806-.848-2.167.217c-.65 1.923 8.938 3.864 9.85 4.027.641.117.37 1.137-.307.984-.677-.154-8.767-2.709-9.444-.749-.524 1.489 7.873 1.67 9.264 3.151 1.39 1.48-6.321-.795-6.799.65-.172.541 3.052.794 7.683 1.444 4.756.455 9.535.624 14.311.506 10.744.596 48.701 1.372 56.809.803 9.444-.668 5.887-12.92 5.526-15.917Z" fill="#FFB29D"/><path d="m383.102 166.815 15.575 45.496h70.496l-.523-2.347-28.504-.876-13.137-42.3-43.907.027Z" fill="#E0E0E0"/><path d="M414.342 188.186c.469 1.86-.334 3.684-1.806 4.072-1.472.389-3.007-.803-3.467-2.708-.461-1.905.325-3.684 1.806-4.072 1.48-.388 3.006.839 3.467 2.708Z" fill="#fff"/><path d="M105.928 212.302v5.896h181.749v132.939h41.081V218.198h181.325v-5.896H105.928Z" fill="#263238"/><path d="m280.878 354.352-.912-45.532 17.444-2.89-2.745 48.223-13.787.199Z" fill="#EB996E"/><path d="m295.405 354.559-.045-1.607-15.132.379.09 5.3h.903c4.162.136 21.182.407 23.944-.505 3.115-.966-9.76-3.567-9.76-3.567Z" fill="#EE4248"/><path opacity=".4" d="M285.781 358.388a5.206 5.206 0 0 0-1.995-3.17 5.114 5.114 0 0 0-3.549-1.02l.1 4.217 5.444-.027Z" fill="#fff"/><path opacity=".4" d="M301.698 356.049s4.515 1.192 3.982 1.95c-.533.759-17.75 1.129-25.362.632v-.343l20.08-.262s.425-1.914 1.3-1.977Z" fill="#fff"/><path d="M280.102 358.261c.087.008.174.008.261 0h.741l2.708.054h9.029c3.512 0 6.727-.216 9.029-.352l2.709-.171.74-.055h.253-1.002l-2.709.118c-2.311.099-5.508.217-9.029.289-3.521.072-6.735.099-9.029.099h-3.485l-.216.018Z" fill="#263238"/><path d="M300.416 358.261a3.916 3.916 0 0 1 1.391-2.383 2.44 2.44 0 0 0-1.391 2.383ZM295.92 356.094s.244-.235.46-.587c.217-.352.353-.659.307-.677-.045-.018-.252.235-.46.587-.208.352-.352.65-.307.677ZM294.683 355.48s.271-.126.524-.37.433-.46.397-.496c-.036-.037-.271.126-.523.37-.253.243-.434.46-.398.496ZM293.879 354.072c.252.09.521.118.786.081.269.032.542-.002.794-.099a2.07 2.07 0 0 0-.794-.082 1.98 1.98 0 0 0-.786.1ZM293.591 353.079c.27.168.585.249.903.234.308.05.625-.001.903-.144a5.917 5.917 0 0 0-.903 0 4.283 4.283 0 0 0-.903-.09Z" fill="#263238"/><path d="M296.398 354.776c.32.055.647.055.967 0 .35-.047.694-.129 1.029-.244a2.66 2.66 0 0 0 .587-.262.53.53 0 0 0 .234-.298.37.37 0 0 0-.022-.218.387.387 0 0 0-.14-.17 1.811 1.811 0 0 0-2.185.569 1.742 1.742 0 0 0-.298.65.528.528 0 0 0 0 .262c.093-.299.237-.58.424-.831.211-.261.493-.456.813-.559a1.505 1.505 0 0 1 1.156.054c.153.108.099.289-.073.397a2.876 2.876 0 0 1-.532.244c-.323.12-.655.214-.993.28-.596.081-.967.09-.967.126Z" fill="#263238"/><path d="M296.651 354.812a.902.902 0 0 0 .1-.677 1.644 1.644 0 0 0-.28-.695.972.972 0 0 0-.822-.479.39.39 0 0 0-.289.452c.027.156.089.304.181.433.131.212.289.406.469.578.153.17.345.3.56.379 0 0-.199-.171-.469-.469-.161-.176-.3-.37-.416-.578-.144-.199-.244-.569 0-.614.244-.045.497.207.65.397.137.187.235.398.289.623.027.216.036.433.027.65ZM280.318 354.153s.434-.045 1.111 0a4.905 4.905 0 0 1 2.456.903 4.798 4.798 0 0 1 1.562 2.113c.243.641.28 1.074.316 1.065a1.062 1.062 0 0 0 0-.298 3.892 3.892 0 0 0-.181-.812 4.702 4.702 0 0 0-1.58-2.213 4.634 4.634 0 0 0-2.555-.902 4.181 4.181 0 0 0-.822 0 1.179 1.179 0 0 0-.307.144ZM287.686 356.88a12.91 12.91 0 0 0 4.406-.054c0-.055-.993 0-2.203 0s-2.203 0-2.203.054Z" fill="#263238"/><path d="M284.697 356.934s.082.208.19.433c.108.226.162.425.217.416.054-.009.072-.235-.055-.497-.126-.262-.325-.388-.352-.352ZM283.551 355.553s.063.189.226.343c.162.153.315.252.352.216.036-.036-.064-.198-.226-.352-.163-.153-.316-.207-.352-.207ZM281.943 354.975c0 .054.208.045.434.117.225.072.388.19.424.154.036-.037-.09-.235-.37-.326-.28-.09-.506.009-.488.055ZM280.806 354.704c0 .045.072.126.199.171.126.046.235.046.253 0 .018-.045-.073-.117-.199-.162s-.235-.063-.253-.009Z" fill="#263238"/><path d="m300.064 354.063-1.191-46.164 17.533-1.969-2.284 48.024-14.058.109Z" fill="#FFBE9D"/><path d="M253.322 224.636c17.092.108 34.201.225 51.221 1.805 6.789.614 14.13 1.743 18.852 6.654 4.424 4.605 5.417 11.404 6.266 17.733l7.457 57.901a266.938 266.938 0 0 1-70.921-2.248c.175-14.349.341-28.696.497-43.04l.379-6.735-26.337-1.761 12.586-30.309Z" fill="#EE4248"/><path d="M311.422 247.036a42.863 42.863 0 0 1 3.829-8.18 44.446 44.446 0 0 1-3.829 8.18ZM319.918 266.403a16.204 16.204 0 0 1-2.564-2.944 17.023 17.023 0 0 1-2.194-3.241 16.035 16.035 0 0 1 2.564 2.952 16.602 16.602 0 0 1 2.194 3.233ZM316.876 277.815a27.864 27.864 0 0 1-5.192 4.903 13.817 13.817 0 0 1 2.438-2.628 13.487 13.487 0 0 1 2.754-2.275ZM329.543 289.29a32.332 32.332 0 0 1-1.878-7.52 32.332 32.332 0 0 1 1.878 7.52ZM318.916 301.452a12.643 12.643 0 0 1-1.345-3.088 12.484 12.484 0 0 1-.903-3.232 23.57 23.57 0 0 1 2.257 6.32h-.009ZM305.463 270.095a16.827 16.827 0 0 1-.686 3.919 16.544 16.544 0 0 1-1.137 3.801c.3-2.635.906-5.225 1.805-7.72h.018Z" fill="#FAFAFA"/><path d="M288.255 210.451h69.53v-3.385h-69.53v3.385Z" fill="#263238"/><path d="m368.565 210.451 13.038-48.872h-54.29l-11.81 48.872h53.062Z" fill="#263238"/><path d="M318.754 206.75h48.502l11.295-42.914h-48.755l-11.042 42.914Z" fill="#F5F5F5"/><path d="M331.006 172.151 328 184.304h32.151l3.431-12.153h-32.576Z" fill="#E0E0E0"/><path d="M356.801 170.544c0 .136-5.643.235-12.595.235-6.952 0-12.641-.099-12.641-.235 0-.135 5.643-.235 12.641-.235 6.997 0 12.595.154 12.595.235Z" fill="#455A64"/><path d="M342.147 174.472a55.05 55.05 0 0 1-10.157 0 55.05 55.05 0 0 1 10.157 0ZM350.291 174.282a23.439 23.439 0 0 1-6.618 0 23.513 23.513 0 0 1 6.618 0Z" fill="#263238"/><path d="M359.483 176.675c0 .135-6.221.234-13.887.234-7.665 0-13.895-.099-13.895-.234 0-.136 6.221-.235 13.895-.235 7.675 0 13.887.108 13.887.235Z" fill="#455A64"/><path d="M340.134 178.688a43.252 43.252 0 0 1-9.029 0 43.389 43.389 0 0 1 9.029 0Z" fill="#EE4248"/><path d="M356.991 181.559c0 .136-5.77.235-12.884.235-7.115 0-12.884-.099-12.884-.235 0-.135 5.769-.234 12.884-.234 7.114 0 12.884.108 12.884.234ZM338.021 187.789a52.98 52.98 0 0 1-9.932 0 52.98 52.98 0 0 1 9.932 0Z" fill="#455A64"/><path d="M346.553 187.825a24.79 24.79 0 0 1-6.807-.054 24.79 24.79 0 0 1 6.807.054ZM351.338 187.618c0 .126-.641.234-1.435.234-.795 0-1.436-.108-1.436-.234 0-.127.641-.235 1.436-.235.794 0 1.435.09 1.435.235Z" fill="#263238"/><path d="M331.412 190.326c0 .127-.704.235-1.58.235-.876 0-1.58-.108-1.58-.235 0-.126.704-.235 1.58-.235.876 0 1.58.064 1.58.235Z" fill="#EE4248"/><path d="M340.901 190.326a30.671 30.671 0 0 1-7.575 0 30.671 30.671 0 0 1 7.575 0Z" fill="#263238"/><path d="M363.527 189.992c0 .136-4.514.235-10.112.235s-10.103-.099-10.103-.235c0-.135 4.514-.235 10.103-.235 5.589 0 10.112.109 10.112.235Z" fill="#455A64"/><path d="M330.934 192.872c0 .127-.732.235-1.625.235-.894 0-1.635-.108-1.635-.235 0-.126.732-.243 1.635-.243.902 0 1.625.108 1.625.243ZM335.917 192.773a4.404 4.404 0 0 1-1.968.235 4.337 4.337 0 0 1-1.959-.235 4.337 4.337 0 0 1 1.959-.235 4.404 4.404 0 0 1 1.968.235Z" fill="#263238"/><path d="M350.77 192.583a86.665 86.665 0 0 1-12.749 0 86.665 86.665 0 0 1 12.749 0ZM342.906 197.08a62.024 62.024 0 0 1-7.711.234 62.024 62.024 0 0 1-7.711-.234 64.232 64.232 0 0 1 7.711-.235 64.232 64.232 0 0 1 7.711.235Z" fill="#455A64"/><path d="M351.916 196.89a26.187 26.187 0 0 1-6.997 0 26.187 26.187 0 0 1 6.997 0Z" fill="#EE4248"/><path d="M365.279 196.89a71.682 71.682 0 0 1-11.593 0 71.682 71.682 0 0 1 11.593 0ZM362.164 170.355c0 .126-.533.234-1.192.234-.659 0-1.201-.108-1.201-.234 0-.127.533-.235 1.201-.235s1.192.108 1.192.235Z" fill="#263238"/><path d="M337.732 168.729a14.872 14.872 0 0 1-5.264 0 14.872 14.872 0 0 1 5.264 0Z" fill="#EE4248"/><path d="M377.739 166.924h-48.756l.822-3.088h48.755l-.821 3.088Z" fill="#EBEBEB"/><path d="M331.846 165.931a.533.533 0 1 0-.001-1.065.533.533 0 0 0 .001 1.065ZM333.688 165.931a.533.533 0 1 0-.001-1.065.533.533 0 0 0 .001 1.065ZM335.52 165.931a.533.533 0 1 0 0-1.067.533.533 0 0 0 0 1.067Z" fill="#FAFAFA"/><path d="m277.754 184.909 6.962 20.965c1.878 5.661 6.825 6.636 12.793 6.636h38.725v-8.641l-35.375-5.047-8.478-21.587-14.627 7.674Z" fill="#FFBE9D"/><path d="m340.45 202.064 3.07-1.454s3.313-6.401 4.072-6.14c.758.262.984 2.14-.343 5.075l4.081-1.165s8.848 4.09 8.46 4.641a2.043 2.043 0 0 1-2.206 1.237 2.055 2.055 0 0 1-.837-.334 143.356 143.356 0 0 0-4.451-2.14l-4.776 1.363 6.148.777 5.788 5.263a2.83 2.83 0 0 1-3.54-.081l-15.024 3.223-4.704.271v-8.731l4.262-1.805Z" fill="#FFBE9D"/><path d="M355.916 209.025c-.063 0-.343-.407-.903-.993a4.568 4.568 0 0 0-1.092-.849 4.42 4.42 0 0 0-1.625-.424 22.812 22.812 0 0 1-4.515-.768 23.07 23.07 0 0 1 4.569.298 4.51 4.51 0 0 1 1.806.524c.434.262.816.602 1.128 1.002.314.34.533.758.632 1.21ZM353.596 209.621c-.054 0-.108-.307-.524-.398-.415-.09-1.119-.162-1.805-.234-.889-.009-1.774-.1-2.646-.271a5.476 5.476 0 0 1 2.709-.199 8.328 8.328 0 0 1 1.887.388.764.764 0 0 1 .46.479c-.027.162-.081.244-.081.235Z" fill="#EB996E"/><path d="m249.648 107.785-2.104 42.589 18.238 1.724 1.002-10.337s6.438 1.589 8.388-4.361c1.246-3.81 2.356-33.578 2.356-33.578l-27.88 3.963Z" fill="#FFBE9D"/><path d="M279.108 108.797c.497 3.981-5.074 6.32-5.074 6.32l-.975 9.426a18.156 18.156 0 0 0-2.618 0c.469-4.424-5.228-3.558-5.806-.542-.578 3.016 2.709 4.839 2.709 4.839-2.284 3.504-3.205 5.345-6.438 8.623-3.503 3.548-5.417 3.837-9.028 3.729l-3.982-.181s-1.418-3.404-2.456-11.439c-.506-3.874-3.521-8.939-2.663-15.232 2.473-17.913 19.628-16.035 19.628-16.035 8.875.253 15.53 1.237 16.703 10.492Z" fill="#263238"/><path d="M266.017 98.829c3.873.1 7.873.397 11.277 2.257 3.403 1.86 6.121 6.817 5.417 10.618-.641.117-1.346.379-1.987.496-.261-.478-.586-2.248-.857-2.708 0 .767-.235 2.474-.226 3.232-1.129.316-2.013-.316-3.151 0a24.772 24.772 0 0 0-3.007-8.225" fill="#263238"/><path d="m279.136 188.376 3.512 11.412 20.983-4.947c-.686-2.113-6.501-15.458-12.487-30.391a25.677 25.677 0 0 0-19.592-15.791 111.308 111.308 0 0 0-18.103-1.806c-10.591.117-24.324 4.568-26.418 14.96-1.607 7.928 1.959 20.884 1.959 37.921l-2.51 35.736 52.656 1.806-5.336-31.348 5.336-17.552Z" fill="#EE4248"/><path opacity=".2" d="M225.153 195.482c6.609 1.345 13.399 0 20.134-.416 4.081-.243 8.613-.686 11.837 1.806 2.564 1.995 3.611 5.336 4.333 8.496 1.608 6.844 2.709 21.001 3.468 34.21a24.862 24.862 0 0 0 13.732 20.848c2.104 1.047 7.657 1.083 7.693 1.805l-53.992 2.212-7.205-68.961Z" fill="#000"/><path d="M263.633 266.746h-6.6v79.119h6.6v-79.119ZM201.615 189.947v58.245a13.826 13.826 0 0 0 4.054 9.783 13.827 13.827 0 0 0 9.787 4.049h38.823v-72.077a6.164 6.164 0 0 0-6.166-6.167h-40.332a6.164 6.164 0 0 0-6.166 6.167Z" fill="#455A64"/><path d="M306.438 266.746h-94.459a10.26 10.26 0 0 1 10.257-10.248h73.946a10.255 10.255 0 0 1 10.256 10.248Z" fill="#455A64"/><path d="M254.279 255.135c.024.149.024.302 0 .451a5.2 5.2 0 0 1-.153 1.273 6.975 6.975 0 0 1-5.526 5.255c-1.241.131-2.49.18-3.738.144h-8.487c-6.022 0-11.475 0-15.421-.054l-4.668-.072-1.273-.045a1.468 1.468 0 0 1-.442-.054 1.73 1.73 0 0 1 .442-.046h1.273l4.668-.081a1373.8 1373.8 0 0 1 15.421-.09h8.487c1.223.049 2.447.019 3.666-.09a6.693 6.693 0 0 0 2.862-1.21 6.885 6.885 0 0 0 2.555-3.702c.262-1.056.235-1.679.334-1.679ZM266.125 266.953a68.925 68.925 0 0 1-11.583 0 68.925 68.925 0 0 1 11.583 0Z" fill="#263238"/><path d="M294.909 262.556a16.493 16.493 0 0 1-.587-2.781 401.961 401.961 0 0 1-1.237-7.611c-.497-3.214-.885-7.124-2.691-10.988a26.669 26.669 0 0 0-3.503-5.598 25.326 25.326 0 0 0-5.264-4.749 23.707 23.707 0 0 0-6.383-3.07 23.99 23.99 0 0 0-6.519-1.128c-4.27-.099-8.126-.081-11.421-.136-3.296-.054-5.896-.099-7.711-.162a14.87 14.87 0 0 1-2.835-.19 17.027 17.027 0 0 1 2.835-.189c1.806-.054 4.452-.109 7.711-.154 3.259-.045 7.124-.117 11.457-.063 2.296.05 4.572.424 6.763 1.111a24.095 24.095 0 0 1 6.645 3.178 25.351 25.351 0 0 1 5.417 4.947 26.99 26.99 0 0 1 3.612 5.842c.217.506.397 1.011.587 1.508.099.253.189.496.28.749l.216.75c.136.505.271.993.407 1.48.135.488.18.975.261 1.454.334 1.914.506 3.675.732 5.291.415 3.232.74 5.85.903 7.656a16.1 16.1 0 0 1 .325 2.853ZM289.221 353.043h-.903a28.098 28.098 0 1 0-56.195 0h-.903a29.034 29.034 0 0 1 29.037-29.037 29.036 29.036 0 0 1 29.036 29.037h-.072Z" fill="#455A64"/><path d="M235.969 354.487a4.354 4.354 0 0 1-2.686 4.021 4.355 4.355 0 0 1-5.934-3.172 4.353 4.353 0 0 1 8.289-2.514c.219.528.331 1.094.331 1.665ZM293.32 353.882a4.354 4.354 0 0 1-2.687 4.021 4.353 4.353 0 1 1-1.665-8.373 4.352 4.352 0 0 1 4.352 4.352Z" fill="#263238"/><path d="M288.941 345.874c0 .135-12.641.243-28.215.243-15.575 0-28.224-.108-28.224-.243 0-.136 12.64-.244 28.224-.244s28.215.108 28.215.244Z" fill="#455A64"/><path d="M248.591 141.047c3.594.2 7.198.085 10.772-.343a23.406 23.406 0 0 0 11.015-5.038c1.806-1.67 2.284-2.546 2.392-6.049l.289-5.101-5.128-14.013-13.11-1.083-12.143 5.552-1.102 18.374a7.22 7.22 0 0 0 4.201 7.048 7.226 7.226 0 0 0 2.814.653Z" fill="#263238"/><path d="M271.75 131.73c0 2.085-1.887 3.611-3.611 4.776-1.725 1.165-3.729 2.365-4.244 4.397-1.011 3.936 4.108 6.916 4.587 10.952.361 2.943-1.806 5.507-3.169 8.126a16.652 16.652 0 0 0-.416 14.265c-5.516.479-11.069.957-16.613 1.165l-3.837-7.512-2.853 7.62a92.047 92.047 0 0 1-14.527-1.192c2.853-2.257 3.07-6.455 2.889-10.085-.18-3.629-.903-10.076 1.535-12.803 1.67-1.878 4.28-2.708 5.995-4.514 2.483-2.654 1.3-3.702.081-6.591a19.865 19.865 0 0 1-1.246-10.78c.569-3.612 2.817-6.673 4.632-9.842 1.815-3.169 1.914-5.417 2.916-9.805" fill="#263238"/><path d="M242.822 109.42a12.643 12.643 0 0 1-9.706 6.518 7.74 7.74 0 0 0 6.429.903 15.36 15.36 0 0 1-6.239 3.612c.785 2.022 3.187 2.889 5.345 3.042 3.877.25 7.7-1.015 10.663-3.53a13.656 13.656 0 0 0 3.25-14.816" fill="#263238"/><path d="M246.731 108.535a4.943 4.943 0 0 0 4.515-3.079 8.318 8.318 0 0 0 .108-5.706 6.324 6.324 0 0 0-3.025-4.108c-1.905-.903-4.234-.19-5.922 1.074a8.928 8.928 0 0 0-3.612 6.212 7.154 7.154 0 0 0 2.871 6.464 5.964 5.964 0 0 0 6.916-.126" fill="#263238"/><path d="M235.572 122.611c1.447.385 2.935.594 4.433.623a13.696 13.696 0 0 0 4.74-.903 12.523 12.523 0 0 0 7.801-8.298c.471-1.549.67-3.168.587-4.785a18.08 18.08 0 0 0-.903-4.388s.072.09.162.28c.137.27.257.547.362.831.387 1.048.627 2.145.713 3.259a13.556 13.556 0 0 1-.506 4.93 13.32 13.32 0 0 1-2.979 5.281 13.128 13.128 0 0 1-5.093 3.296c-1.565.566-3.22.841-4.884.813a12.27 12.27 0 0 1-3.296-.506 7.724 7.724 0 0 1-.902-.307.887.887 0 0 1-.235-.126Z" fill="#455A64"/><path d="M242.804 118.602a12.859 12.859 0 0 0 6.175-8.063 3.547 3.547 0 0 1-.198 1.562 9.826 9.826 0 0 1-4.515 5.905 3.683 3.683 0 0 1-1.462.596ZM239.734 100.987a1.99 1.99 0 0 1 .352-.705 5.215 5.215 0 0 1 1.589-1.471 5.967 5.967 0 0 1 3.106-.849 6.43 6.43 0 0 1 3.72 1.31 7.385 7.385 0 0 1 2.42 3.105 8.38 8.38 0 0 1 .604 3.151 8.547 8.547 0 0 1-.261 2.131 2.242 2.242 0 0 1-.271.74c.131-.948.197-1.904.198-2.862a8.543 8.543 0 0 0-.677-2.988 6.977 6.977 0 0 0-2.293-2.899 6.122 6.122 0 0 0-3.44-1.255 5.892 5.892 0 0 0-2.934.705 7.03 7.03 0 0 0-2.113 1.887ZM253.25 107.623c.072 0 .695 1.237 1.896 3.16a15.22 15.22 0 0 0 2.492 3.061 8.852 8.852 0 0 0 4.216 2.148c1.592.311 3.209.474 4.831.488 1.321.09 2.648.057 3.963-.099a8.87 8.87 0 0 0 3.395-1.246 2.781 2.781 0 0 1-.767.632 7.484 7.484 0 0 1-2.573.903 19.317 19.317 0 0 1-4.027.207 25.487 25.487 0 0 1-4.93-.46 9.035 9.035 0 0 1-4.406-2.293 14.487 14.487 0 0 1-2.474-3.197 25.981 25.981 0 0 1-1.255-2.41 3.895 3.895 0 0 1-.361-.894Z" fill="#455A64"/><path d="M253.25 107.623c.19.331.356.675.497 1.029.298.659.749 1.616 1.345 2.772a132.076 132.076 0 0 0 2.167 4.036 28.755 28.755 0 0 0 3.042 4.659 15.288 15.288 0 0 0 4.199 3.611 11.177 11.177 0 0 0 8.406 1.138s-.091.063-.271.135c-.262.106-.53.194-.804.262a9.274 9.274 0 0 1-3.115.208 11.6 11.6 0 0 1-4.433-1.364 15.227 15.227 0 0 1-4.343-3.611 27.06 27.06 0 0 1-3.06-4.758 78.408 78.408 0 0 1-2.086-4.09c-.551-1.183-.966-2.167-1.219-2.862a4.382 4.382 0 0 1-.325-1.165ZM251.426 106.359c.281-.34.602-.643.957-.903a22.798 22.798 0 0 1 2.917-1.95 19.872 19.872 0 0 1 4.857-1.941 15.637 15.637 0 0 1 6.392-.253 12.681 12.681 0 0 1 5.86 2.573 11.339 11.339 0 0 1 3.187 4.153 9.595 9.595 0 0 1 .813 3.431c.021.322.021.644 0 .966 0 .217-.045.325-.063.325a11.502 11.502 0 0 0-1.03-4.577 11.224 11.224 0 0 0-3.151-3.955 12.5 12.5 0 0 0-5.661-2.456 15.653 15.653 0 0 0-6.221.217 21.038 21.038 0 0 0-4.794 1.806 28.244 28.244 0 0 0-2.97 1.805 9.225 9.225 0 0 1-1.093.759ZM262.893 98.404a16.359 16.359 0 0 0-10.112 5.643 4.503 4.503 0 0 1 .984-1.462 12.489 12.489 0 0 1 3.322-2.709 12.344 12.344 0 0 1 4.036-1.417 4.582 4.582 0 0 1 1.77-.055Z" fill="#455A64"/><path d="M243.779 110.467c.78.143 1.572.215 2.365.217a6.4 6.4 0 0 0 6.095-7.783c-.19-.772-.45-1.524-.777-2.248.167.146.307.32.416.514.313.515.544 1.076.686 1.662a6.5 6.5 0 0 1-6.42 8.18 5.634 5.634 0 0 1-1.805-.262 1.806 1.806 0 0 1-.56-.28Z" fill="#EE4248"/><path d="M252.239 174.634a3.604 3.604 0 0 1-.307-.623c-.181-.415-.442-1.029-.767-1.806a35.727 35.727 0 0 1-2.131-6.97 18.326 18.326 0 0 1-.226-5.047 13.057 13.057 0 0 1 1.761-5.534c1.047-1.752 2.627-3.323 3.051-5.418.425-2.094-.451-4.333-1.58-6.32-.559-1.02-1.182-1.986-1.76-2.988a25.093 25.093 0 0 1-1.49-3.052 12.38 12.38 0 0 1-1.011-6.32 11.74 11.74 0 0 1 2.465-5.255 18.851 18.851 0 0 0 2.564-4.252c.469-1.284.772-2.622.903-3.982.116-1.032.179-2.068.189-3.106v-1.977a3.419 3.419 0 0 1 0-.686c.043.226.064.455.063.686 0 .451.064 1.119.073 1.977a28.49 28.49 0 0 1-.109 3.133 15.693 15.693 0 0 1-.902 4.081 18.656 18.656 0 0 1-2.556 4.352c-1.193 1.472-2 3.22-2.347 5.083a12.005 12.005 0 0 0 1.002 6.103 24.727 24.727 0 0 0 1.472 2.989c.56.984 1.192 1.959 1.806 2.988a15.743 15.743 0 0 1 1.408 3.224 7.04 7.04 0 0 1 .208 3.431 8.324 8.324 0 0 1-1.373 3.024c-.596.903-1.237 1.707-1.76 2.555a12.81 12.81 0 0 0-1.743 5.345 18.58 18.58 0 0 0 .163 4.957 39.412 39.412 0 0 0 1.977 6.961c.289.768.515 1.391.686 1.806.105.207.196.422.271.641Z" fill="#455A64"/><path d="M245.251 122.683a2.358 2.358 0 0 1-.316.496l-.966 1.382a22.077 22.077 0 0 0-2.872 5.417 11.669 11.669 0 0 0-.614 4.144c.039.776.178 1.544.416 2.284.275.782.619 1.537 1.029 2.258.795 1.498 1.887 3.106 1.977 5.11a5.603 5.603 0 0 1-.713 2.862 10.616 10.616 0 0 1-1.806 2.402 47.76 47.76 0 0 0-4.144 4.054 8.566 8.566 0 0 0-1.715 4.911 24.011 24.011 0 0 0 .334 4.849c.233 1.413.384 2.839.451 4.27a9.815 9.815 0 0 1-1.499 5.986c-.32.471-.71.891-1.155 1.246a2.722 2.722 0 0 1-.361.253c-.082.054-.127.081-.136.072a7.839 7.839 0 0 0 1.499-1.67 9.842 9.842 0 0 0 1.318-5.869 37.031 37.031 0 0 0-.505-4.225 24.608 24.608 0 0 1-.38-4.93 8.93 8.93 0 0 1 1.806-5.173 46.805 46.805 0 0 1 4.162-4.099c1.364-1.382 2.483-3.097 2.411-4.93-.072-1.833-1.092-3.395-1.896-4.912a14.11 14.11 0 0 1-1.047-2.338 9.01 9.01 0 0 1-.407-2.393 11.747 11.747 0 0 1 .614-4.306 20.666 20.666 0 0 1 3.043-5.418c.433-.587.785-1.029 1.038-1.327a3.4 3.4 0 0 1 .434-.406Z" fill="#263238"/><path d="M262.18 174.074s-.055 0-.154-.072a4.613 4.613 0 0 1-.433-.271 5.586 5.586 0 0 1-1.345-1.444 9.536 9.536 0 0 1-1.021-7.034 33.909 33.909 0 0 1 1.445-4.767 25.02 25.02 0 0 0 1.453-5.417 17.46 17.46 0 0 0-.343-6.167 19.05 19.05 0 0 0-2.708-6.076 21.272 21.272 0 0 1-2.989-6.104 19.694 19.694 0 0 1-.433-6.32c.307-4.026 1.083-7.566.993-10.59a15.342 15.342 0 0 0-1.472-6.907 17.43 17.43 0 0 0-1.453-2.167 7.661 7.661 0 0 1 1.616 2.085 14.952 14.952 0 0 1 1.634 6.989c.136 3.06-.605 6.645-.903 10.617a19.496 19.496 0 0 0 .443 6.176 21.043 21.043 0 0 0 2.952 5.977 19.528 19.528 0 0 1 2.709 6.212c.481 2.071.591 4.211.325 6.32a25.514 25.514 0 0 1-1.517 5.526 34.699 34.699 0 0 0-1.49 4.695 9.504 9.504 0 0 0 .849 6.871 6.78 6.78 0 0 0 1.842 1.868Z" fill="#455A64"/><path d="m314.863 354.541-.046-1.607-15.141.37.1 5.3.902.045c4.163.136 21.182.398 23.936-.505 3.124-1.011-9.751-3.603-9.751-3.603Z" fill="#EE4248"/><path opacity=".4" d="M305.238 358.369a5.202 5.202 0 0 0-1.995-3.169 5.082 5.082 0 0 0-3.549-1.02l.091 4.217 5.453-.028Z" fill="#fff"/><path opacity=".4" d="M321.155 356.031s4.515 1.192 3.973 1.941c-.542.75-17.75 1.138-25.353.632v-.334l20.071-.271s.434-1.914 1.309-1.968Z" fill="#fff"/><path d="M299.559 358.261h1.002l2.708.063c2.312 0 5.508 0 9.029-.045s6.727-.207 9.029-.343l2.709-.171.749-.064h.253a1.148 1.148 0 0 0-.262 0h-.74l-2.709.118c-2.311.099-5.508.216-9.029.289-3.521.072-6.726.09-9.029.09h-3.485a.848.848 0 0 0-.225.063Z" fill="#263238"/><path d="M319.864 358.261a7.12 7.12 0 0 1 .488-1.318c.257-.39.56-.748.903-1.065a2.413 2.413 0 0 0-1.4 2.383h.009ZM315.368 356.076s.253-.235.47-.587c.149-.204.254-.438.307-.686 0 0-.253.244-.47.587a1.81 1.81 0 0 0-.307.686ZM314.14 355.462s.271-.126.524-.37.433-.46.397-.497c-.036-.036-.271.127-.523.362-.253.234-.434.469-.398.505Z" fill="#263238"/><path d="M313.337 354.054a3.464 3.464 0 0 0-2.585 3.998 3.468 3.468 0 1 0 3.37-4.098 1.64 1.64 0 0 0-.785.1ZM313.048 353.052c.265.179.583.265.903.243.308.045.623-.005.903-.144a5.237 5.237 0 0 0-.903 0 6.528 6.528 0 0 0-.903-.099Z" fill="#263238"/><path d="M315.855 354.749c.319.064.648.064.967 0 .35-.048.694-.129 1.029-.244.205-.064.402-.151.587-.262a.471.471 0 0 0 .225-.307.375.375 0 0 0-.153-.379 1.811 1.811 0 0 0-2.185.569 1.742 1.742 0 0 0-.298.65v.262c.086-.303.227-.588.415-.84.218-.256.502-.447.822-.551a1.52 1.52 0 0 1 1.156.055c.153.108.099.289-.073.397a2.876 2.876 0 0 1-.532.244c-.323.12-.655.213-.993.28-.596.09-.967.099-.967.126Z" fill="#263238"/><path d="M316.108 354.794a.99.99 0 0 0 .1-.677 1.803 1.803 0 0 0-.28-.695.971.971 0 0 0-.822-.479.39.39 0 0 0-.289.452c.024.155.082.303.172.433.133.207.291.398.469.569.157.17.352.3.569.379 0 0-.199-.162-.469-.469a3.512 3.512 0 0 1-.425-.569c-.135-.199-.235-.569 0-.614.235-.045.497.207.65.397.141.183.237.396.28.623.036.215.051.432.045.65ZM299.775 354.135s.434-.045 1.111 0a4.715 4.715 0 0 1 4.018 3.061c.243.641.28 1.074.307 1.065.027-.009 0-.108 0-.307a4.097 4.097 0 0 0-.19-.803 4.571 4.571 0 0 0-1.571-2.212 4.653 4.653 0 0 0-2.555-.903 3.724 3.724 0 0 0-.831 0 .814.814 0 0 0-.289.099ZM307.107 356.853a8.03 8.03 0 0 0 2.203.171 8.351 8.351 0 0 0 2.194-.226c0-.054-.984 0-2.203.046-1.219.045-2.194-.046-2.194.009Z" fill="#263238"/><path d="m304.146 356.916.189.433c.099.226.172.416.217.416.045 0 .081-.244-.045-.497-.127-.253-.325-.388-.361-.352ZM303.035 355.553s.063.189.225.352c.163.162.316.243.353.207.036-.036-.073-.189-.226-.343-.154-.153-.352-.216-.352-.216ZM301.4 354.957c0 .054.208.045.434.117.226.072.388.19.424.153.036-.036-.09-.243-.37-.325-.28-.081-.506.009-.488.055ZM300.254 354.65s.072.117.199.162c.126.045.243 0 .261 0 .018 0-.072-.126-.198-.171-.127-.046-.244.009-.262.009ZM293.618 303.095c-.127 0 .325-8.125 1.011-18.057.686-9.932 1.345-17.967 1.472-17.967.126 0-.316 8.08-1.002 18.057-.687 9.977-1.355 17.976-1.481 17.967ZM302.321 305.154c-.085-.492-.136-.99-.153-1.49a402.79 402.79 0 0 0-.271-4.063c-.217-3.44-.551-8.126-1.02-13.398-.47-5.273-.984-9.932-1.382-13.363-.18-1.652-.343-3.016-.46-4.045a8.742 8.742 0 0 1-.108-1.499c.133.483.229.975.289 1.472.162.948.37 2.32.614 4.027a303.567 303.567 0 0 1 1.516 13.362c.479 5.237.75 9.986.903 13.426.072 1.716.109 3.106.127 4.072.025.5.007 1.002-.055 1.499Z" fill="#263238"/><path opacity=".2" d="M305.969 266.24a41.593 41.593 0 0 1-28.152 20.856c-2.456.488-5.146.714-7.313-.541-2.952-1.716-3.864-5.571-3.828-8.984.036-3.413 0-8.072 0-11.331h39.293Z" fill="#000"/><path d="M253.485 208.51c0-.126 4.514-.831 10.094-1.562 5.58-.731 10.139-1.219 10.148-1.092.009.126-4.514.83-10.085 1.562-5.571.731-10.139 1.219-10.157 1.092Z" fill="#263238"/><path d="M267.272 206.84a7.902 7.902 0 0 1-1.526-1.029l-1.535-1.219a2.003 2.003 0 0 1-.767-1.048 1.4 1.4 0 0 1 .062-.745c.087-.239.237-.449.434-.609a1.669 1.669 0 0 1 1.355-.415c.435.077.833.293 1.137.614.488.525.773 1.207.804 1.923a4.005 4.005 0 0 1-.208 1.851c-.081 0 0-.723-.117-1.806a2.791 2.791 0 0 0-.786-1.652 1.334 1.334 0 0 0-1.878-.154.978.978 0 0 0-.352.903c.105.328.315.614.596.813l1.508 1.291c.478.37.906.801 1.273 1.282Z" fill="#263238"/><path d="M266.667 206.885c.013-.53.159-1.049.424-1.508.24-.517.543-1.002.903-1.444.217-.267.455-.515.714-.741a1.685 1.685 0 0 1 1.155-.388.7.7 0 0 1 .596.451.863.863 0 0 1 .046.349.875.875 0 0 1-.1.338 4.076 4.076 0 0 1-.632.839 6.953 6.953 0 0 1-1.309 1.111 3.25 3.25 0 0 1-1.427.65c0-.072.497-.334 1.228-.903a8.42 8.42 0 0 0 1.183-1.129c.21-.224.392-.472.542-.74.117-.253 0-.46-.181-.488-.578-.045-1.083.515-1.49.948a7.484 7.484 0 0 0-.966 1.319c-.433.785-.614 1.354-.686 1.336Z" fill="#263238"/><path d="M295.144 306.572a48.482 48.482 0 0 1 3.467-8.885 23.256 23.256 0 0 1-1.517 4.515 24.877 24.877 0 0 1-1.95 4.37ZM279.208 301.84a13.42 13.42 0 0 1-3.738-2.546 13.559 13.559 0 0 1-3.052-3.34c.1-.091 1.49 1.372 3.359 2.988 1.869 1.616 3.512 2.781 3.431 2.898ZM284.192 281.092a12.606 12.606 0 0 1-2.212-2.708 13.04 13.04 0 0 1-1.806-2.98 13.336 13.336 0 0 1 2.212 2.709 13.512 13.512 0 0 1 1.806 2.979ZM276.174 252.336a19.33 19.33 0 0 1-2.808-3.151 18.893 18.893 0 0 1-2.428-3.44c1.046.943 1.985 2 2.798 3.151a19.179 19.179 0 0 1 2.438 3.44ZM295.667 248.688a19.048 19.048 0 0 1-4.18.397c-1.398.131-2.805.11-4.198-.063a18.23 18.23 0 0 1 4.18-.406 18.42 18.42 0 0 1 4.198.072ZM300.182 237.005a11.196 11.196 0 0 1-1.806-2.709 11.55 11.55 0 0 1-1.391-2.961 11.19 11.19 0 0 1 1.806 2.708 11.983 11.983 0 0 1 1.391 2.962ZM279.903 234.486a12.51 12.51 0 0 1-2.98 1.661 12.872 12.872 0 0 1-3.187 1.237 25.095 25.095 0 0 1 6.167-2.898ZM268.482 235.389a123.673 123.673 0 0 1-7.729-5.788c1.466.69 2.84 1.561 4.09 2.592a19.197 19.197 0 0 1 3.639 3.196ZM267.443 213.503c.045.136-2.022.903-4.424 2.095-2.402 1.192-4.225 2.465-4.307 2.347a20.045 20.045 0 0 1 8.731-4.442ZM263.552 197.387a17.01 17.01 0 0 1-2.997-2.655c-1-.891-1.893-1.894-2.664-2.988a17.164 17.164 0 0 1 2.998 2.654 16.746 16.746 0 0 1 2.663 2.989ZM274.992 185.469a10.347 10.347 0 0 1-2.438 1.914 10.097 10.097 0 0 1-2.709 1.517 20.332 20.332 0 0 1 5.129-3.431h.018ZM265.755 183.365a14.477 14.477 0 0 1-2.519-2.645 14.09 14.09 0 0 1-2.158-2.953c.95.774 1.797 1.666 2.519 2.655.844.883 1.57 1.872 2.158 2.943ZM280.101 166.102a29.013 29.013 0 0 1-3.557 2.023 31.324 31.324 0 0 1-3.611 1.95 12.467 12.467 0 0 1 3.376-2.321 12.97 12.97 0 0 1 3.792-1.652ZM287.686 176.891c.114-1.166.388-2.311.813-3.403a12.935 12.935 0 0 1 1.255-3.26 26.287 26.287 0 0 1-2.068 6.663ZM291.072 189.18a9.646 9.646 0 0 1-3.467-1.599 9.456 9.456 0 0 1-2.88-2.482c.09-.1 1.39.975 3.142 2.094 1.751 1.12 3.25 1.86 3.205 1.987ZM270.432 159.827a19.232 19.232 0 0 1 1.995-3.729 19.704 19.704 0 0 1 2.393-3.494 18.26 18.26 0 0 1-1.995 3.738 19.778 19.778 0 0 1-2.393 3.485ZM249.819 179.663a26.204 26.204 0 0 1-4.921-.713 25.265 25.265 0 0 1-4.839-1.174c1.659.082 3.307.321 4.921.714a25.3 25.3 0 0 1 4.839 1.173Z" fill="#FAFAFA"/><path d="M381.576 99.623h-66.957v50.706h66.957V99.623Z" fill="#F5F5F5"/><path d="M371.617 111.559h-7.819v31.15h7.819v-31.15ZM358.751 109.194h-7.819V142.7h7.819v-33.506ZM346.282 113.347h-7.819V142.7h7.819v-29.353Z" fill="#EE4248"/><path opacity=".3" d="M346.282 113.347h-7.819V142.7h7.819v-29.353Z" fill="#fff"/><path d="M333.624 117.925h-7.819V142.7h7.819v-24.775ZM371.617 111.559h-7.819v31.15h7.819v-31.15Z" fill="#EE4248"/><path d="M377.558 142.817c0 .126-12.857.235-28.721.235-15.863 0-28.711-.109-28.711-.235 0-.127 12.857-.235 28.711-.235 15.855 0 28.721.099 28.721.235ZM374.29 113.482c0 .055-.903-.108-2.501 0-2.27.132-4.479.784-6.456 1.906a13.632 13.632 0 0 0-3.611 2.952c-1.12 1.255-2.122 2.772-3.314 4.289a12.266 12.266 0 0 1-4.623 3.9 16.703 16.703 0 0 1-6.365 1.255c-2.221.081-4.379 0-6.446.063-1.988.071-3.963.34-5.896.804a17.641 17.641 0 0 0-4.939 2.049 12.844 12.844 0 0 0-3.44 3.115 10.977 10.977 0 0 0-2.32 6.248c.014.834.102 1.665.262 2.483a6.816 6.816 0 0 1-.452-2.483 10.924 10.924 0 0 1 2.248-6.446 12.777 12.777 0 0 1 3.494-3.242 17.656 17.656 0 0 1 5.038-2.14 29.362 29.362 0 0 1 5.986-.848c2.095-.1 4.253 0 6.447-.072a16.456 16.456 0 0 0 6.194-1.201 12.084 12.084 0 0 0 4.514-3.756c1.183-1.481 2.194-3.007 3.35-4.28a14.054 14.054 0 0 1 3.729-2.979 14.538 14.538 0 0 1 6.609-1.806c.624-.015 1.249.019 1.869.099.21.011.418.041.623.09ZM315.278 121.021a1.525 1.525 0 0 1-.416 0h-5.832l-16.505-.27h-.198V96.31c0-12.966.054-24.703.072-33.244 0-4.226.054-7.657.072-10.076 0-1.156 0-2.077.045-2.709v-.713a.713.713 0 0 1 0-.244.83.83 0 0 1 0 .244v3.422c0 2.42.045 5.85.082 10.076 0 8.541 0 20.278.063 33.244v24.242l-.199-.199 16.505.434 4.613.153 1.21.054c.163-.005.326.004.488.027ZM413.267 82.487a4.222 4.222 0 0 1-.587.045h-1.689l-6.22.072-20.523.072h-11.882l.217-.207c0 5.02-.063 9.281-.09 12.36 0 1.463-.045 2.646-.063 3.521v.903a.161.161 0 0 1 .096.064.166.166 0 0 1 .029.113.16.16 0 0 1-.053.103.165.165 0 0 1-.217 0 .16.16 0 0 1-.053-.103.166.166 0 0 1 .029-.113.161.161 0 0 1 .096-.064v-.903c0-.903 0-2.058-.054-3.521 0-3.079-.054-7.34-.09-12.36v-.217h12.098l20.523.063 6.221.081h1.688c.177.012.353.042.524.09ZM314.618 138.158a1.263 1.263 0 0 1-.325 0H309.725l-13.444-.045-44.349-.334-35.276-.352h-.126l-.054-.118-7.873-18.31-2.176-5.092-.56-1.345a3.304 3.304 0 0 1-.162-.47c.086.142.161.289.225.442.145.325.343.768.605 1.328.524 1.191 1.282 2.898 2.248 5.074 1.933 4.406 4.677 10.69 7.991 18.265l-.181-.117 35.285.271 44.34.469 13.444.199 3.656.081h.948c.119.004.238.022.352.054Z" fill="#263238"/><path d="M223.121 137.463a4.107 4.107 0 0 1-8.143.768 4.096 4.096 0 0 1 .256-2.378 4.103 4.103 0 0 1 6.703-1.276 4.104 4.104 0 0 1 1.184 2.886Z" fill="#E0E0E0"/><path d="M208.648 113.835h-24.712a6.267 6.267 0 0 1 0-12.532h24.712a6.266 6.266 0 1 1 0 12.532Z" fill="#455A64"/><path d="M251.21 44.656h-57.559v38.219h57.559V44.656Z" fill="#F5F5F5"/><path d="M263.344 56.177h-38.219v15.177h38.219V56.177Z" fill="#EE4248"/><path d="M218.065 56.827a83.412 83.412 0 0 1-8.938.235 83.67 83.67 0 0 1-8.948-.235 86.6 86.6 0 0 1 8.948-.235 86.323 86.323 0 0 1 8.938.235ZM218.065 59.599a81.858 81.858 0 0 1-8.938.244 82.16 82.16 0 0 1-8.948-.244c2.98-.218 5.97-.281 8.957-.19a86.337 86.337 0 0 1 8.929.19ZM218.065 62.38c-2.973.232-5.957.31-8.938.234a86.6 86.6 0 0 1-8.948-.234 83.67 83.67 0 0 1 8.957-.262c2.979-.073 5.96.015 8.929.262ZM218.065 65.151a86.323 86.323 0 0 1-8.938.235 86.6 86.6 0 0 1-8.948-.234 83.644 83.644 0 0 1 8.948-.235 83.386 83.386 0 0 1 8.938.234ZM218.065 67.923a86.323 86.323 0 0 1-8.938.235 86.6 86.6 0 0 1-8.948-.235 83.67 83.67 0 0 1 8.948-.234 83.412 83.412 0 0 1 8.938.234ZM210.689 70.695c-1.742.232-3.5.31-5.255.235a30.026 30.026 0 0 1-5.255-.235 29 29 0 0 1 5.255-.235 29 29 0 0 1 5.255.235ZM250.749 50.263c0 .136-12.784.235-28.549.235-15.764 0-28.549-.1-28.549-.235 0-.135 12.776-.235 28.549-.235 15.774 0 28.549.109 28.549.235Z" fill="#E0E0E0"/><path d="M354.228 85.168a4.11 4.11 0 0 1 0-.415v-1.165c0-1.047 0-2.519-.054-4.37 0-3.774-.054-9.092-.1-15.457l.199.208h-21.407l.235-.235v21.389l-.208-.199 15.457.1 4.37.054h1.58a1.747 1.747 0 0 1-.37 0h-1.129l-4.324.054-15.584.108h-.199V63.644l.235-.235h21.615v.199l-.108 15.583c0 1.806 0 3.287-.055 4.325v1.129a1.742 1.742 0 0 1-.153.523Z" fill="#263238"/><path d="M369.315 54.597h-10.708v10.708h10.708V54.597Z" fill="#E0E0E0"/><path d="M441.445 88.753h-24.711a6.266 6.266 0 0 1-6.266-6.266 6.269 6.269 0 0 1 1.832-4.434 6.264 6.264 0 0 1 4.434-1.832h24.711a6.266 6.266 0 1 1 0 12.532Z" fill="#455A64"/><path d="M372.249 86.676a4.108 4.108 0 1 0 0-8.216 4.108 4.108 0 0 0 0 8.216ZM292.977 124.091a4.108 4.108 0 1 0 0-8.215 4.108 4.108 0 0 0 0 8.215Z" fill="#E0E0E0"/><path d="M304.885 43.997h-24.711a6.266 6.266 0 1 0 0 12.532h24.711a6.266 6.266 0 1 0 0-12.532Z" fill="#455A64"/></svg>