<svg width="32" height="33" viewBox="0 0 32 33" fill="none" xmlns="http://www.w3.org/2000/svg">
<path fill-rule="evenodd" clip-rule="evenodd" d="M18.2367 9.27151C17.7729 9.59308 17.2497 9.81905 16.6976 9.93623C16.1456 10.0534 15.5757 10.0595 15.0212 9.95407C14.4668 9.84865 13.9389 9.63385 13.4684 9.32223C12.9979 9.0106 12.5941 8.60838 12.2807 8.13904C11.9673 7.6697 11.7505 7.14263 11.643 6.58861C11.5354 6.03458 11.5393 5.46468 11.6544 4.91218C11.7695 4.35967 11.9935 3.83562 12.3133 3.3706C12.6331 2.90559 13.0423 2.50893 13.517 2.20376C14.4544 1.58466 15.5986 1.36181 16.6998 1.58393C17.8009 1.80605 18.7693 2.45506 19.3933 3.38911C20.0173 4.32315 20.2462 5.46625 20.0298 6.56853C19.8135 7.67081 19.1696 8.64262 18.2388 9.27151H18.2367ZM17.0573 3.97176C16.8259 3.80528 16.5633 3.68706 16.2853 3.62415C16.0072 3.56124 15.7193 3.55493 15.4388 3.60558C15.1583 3.65622 14.8908 3.76281 14.6523 3.91897C14.4138 4.07514 14.2091 4.2777 14.0505 4.5146C13.8919 4.75149 13.7826 5.01788 13.7291 5.29789C13.6756 5.57791 13.679 5.86583 13.739 6.14451C13.7991 6.42319 13.9146 6.68694 14.0788 6.92004C14.2429 7.15315 14.4522 7.35086 14.6943 7.50139C15.162 7.78552 15.7214 7.87824 16.2558 7.76023C16.7902 7.64222 17.2585 7.32258 17.563 6.86789C17.8676 6.4132 17.985 5.85852 17.8908 5.31941C17.7966 4.7803 17.498 4.29833 17.0573 3.97389V3.97176ZM22.6036 4.03551C23.2164 3.62326 23.9539 3.43762 24.6889 3.51054C25.4239 3.58346 26.1105 3.91038 26.6304 4.43501C27.0009 4.80848 27.2741 5.26715 27.426 5.77079C27.578 6.27443 27.604 6.80766 27.5018 7.32371C27.3997 7.83975 27.1724 8.32284 26.8401 8.73061C26.5077 9.13838 26.0804 9.45837 25.5956 9.66251C25.0133 9.90598 24.3715 9.97011 23.7526 9.84669C23.1336 9.72328 22.5656 9.41794 22.1212 8.96976C21.7872 8.63405 21.5315 8.22865 21.3725 7.78259C21.2135 7.33653 21.155 6.86083 21.2013 6.38954C21.2476 5.91825 21.3975 5.46302 21.6403 5.05643C21.8831 4.64984 22.2127 4.30194 22.6057 4.03764L22.6036 4.03551ZM23.6236 7.45676C23.8231 7.65543 24.0933 7.7667 24.3749 7.7661C24.5143 7.7658 24.6523 7.73805 24.7809 7.68443C24.9096 7.63081 25.0265 7.55236 25.1249 7.45357C25.2232 7.35479 25.3012 7.23759 25.3543 7.10868C25.4073 6.97977 25.4345 6.84167 25.4342 6.70226C25.4339 6.56285 25.4062 6.42486 25.3525 6.29618C25.2989 6.16749 25.2205 6.05063 25.1217 5.95226C24.9238 5.75328 24.6564 5.63899 24.3758 5.63351C24.2357 5.63323 24.0968 5.66073 23.9674 5.71442C23.8379 5.76811 23.7204 5.84694 23.6216 5.94633C23.5228 6.04573 23.4447 6.16372 23.3918 6.2935C23.3388 6.42327 23.3122 6.56224 23.3133 6.70239C23.314 6.98539 23.4253 7.2569 23.6236 7.45889V7.45676ZM5.65455 25.8975H9.5008V28.0331H5.65455C4.98123 28.0271 4.3378 27.7542 3.8653 27.2745C3.39099 26.793 3.12533 26.1441 3.1258 25.4683V21.622C2.8397 21.6124 2.5585 21.545 2.29919 21.4237C2.03988 21.3025 1.80783 21.1299 1.61705 20.9165C1.41433 20.7112 1.25524 20.467 1.14934 20.1985C1.04343 19.9301 0.992909 19.6431 1.0008 19.3546V14.7179C1.00718 13.7149 1.40455 12.7565 2.1058 12.0446C2.80493 11.3413 3.75055 10.9396 4.7408 10.9333H8.6508C8.1234 11.5614 7.72612 12.288 7.48205 13.071H4.7408C4.30951 13.0834 3.89915 13.2597 3.5933 13.564C3.29287 13.8729 3.1251 14.287 3.1258 14.7179V19.4609H5.2508V25.4661C5.24587 25.524 5.25275 25.5823 5.27101 25.6375C5.28928 25.6926 5.31855 25.7435 5.35705 25.787C5.44247 25.853 5.54664 25.8902 5.65455 25.8933V25.8975ZM21.167 12.0468C20.8193 11.6957 20.4057 11.4167 19.9498 11.226C19.494 11.0353 19.0049 10.9365 18.5108 10.9354H13.2408C12.2502 10.9433 11.3029 11.3428 10.6058 12.0468C9.90455 12.7586 9.50718 13.717 9.5008 14.72V21.4733C9.4978 22.0531 9.71853 22.6118 10.1171 23.033C10.3081 23.2462 10.5402 23.4185 10.7994 23.5397C11.0587 23.661 11.3398 23.7286 11.6258 23.7385V28.6749C11.6238 29.0118 11.6885 29.3458 11.8161 29.6576C11.9438 29.9695 12.1319 30.2529 12.3696 30.4918C12.7521 30.8488 13.2344 31.0804 13.7508 31.1548H18.0008C18.5985 31.0763 19.1461 30.7797 19.5384 30.3219C19.9306 29.8642 20.1398 29.2776 20.1258 28.6749V23.7364C20.4119 23.7268 20.6931 23.6594 20.9524 23.5381C21.2117 23.4169 21.4438 23.2443 21.6346 23.0309C21.8371 22.8259 21.9961 22.582 22.102 22.314C22.2079 22.0459 22.2585 21.7592 22.2508 21.4711V14.7179C22.2523 13.7195 21.8633 12.7601 21.167 12.0446V12.0468ZM20.1258 21.5774H18.0008V28.6749C17.9987 28.7869 17.953 28.8937 17.8733 28.9724C17.837 29.0153 17.7913 29.0492 17.7396 29.0713C17.688 29.0935 17.6319 29.1032 17.5758 29.0999H14.1546C14.0435 29.0947 13.9384 29.0483 13.8598 28.9697C13.7812 28.8911 13.7347 28.7859 13.7296 28.6749V21.5774H11.6258V14.7179C11.6258 14.2865 11.7937 13.8721 12.0933 13.564C12.3992 13.2597 12.8095 13.0834 13.2408 13.071H18.5108C18.8327 13.0767 19.146 13.1762 19.4121 13.3574C19.6782 13.5386 19.8857 13.7936 20.0089 14.091C20.0898 14.2899 20.1296 14.5032 20.1258 14.7179V21.5774ZM26.0971 28.031H22.2508V25.8954H26.0758C26.1837 25.8924 26.2879 25.8552 26.3733 25.7891C26.4161 25.7473 26.4496 25.6969 26.4715 25.6413C26.4935 25.5856 26.5035 25.5259 26.5008 25.4661V19.4609H28.6258V14.7179C28.6265 14.287 28.4587 13.8729 28.1583 13.564C27.8524 13.2597 27.4421 13.0834 27.0108 13.071H24.2696C24.0256 12.288 23.6283 11.5613 23.1008 10.9333H27.0108C28.0012 10.9423 28.9481 11.3417 29.6458 12.0446C30.347 12.7565 30.7444 13.7149 30.7508 14.7179V19.3546C30.7508 19.9348 30.5319 20.4915 30.1367 20.9123C29.7414 21.3351 29.2017 21.588 28.6258 21.6199V25.4661C28.6258 26.144 28.3602 26.7921 27.8863 27.2724C27.4138 27.7521 26.7704 28.0249 26.0971 28.031ZM7.3758 3.49576C6.74346 3.49503 6.12531 3.68314 5.60057 4.036C5.07583 4.38885 4.66842 4.89037 4.43055 5.47626C4.19049 6.06195 4.12817 6.70536 4.25136 7.32623C4.37456 7.9471 4.67781 8.51797 5.1233 8.96764C5.56863 9.41678 6.13774 9.72298 6.75793 9.84712C7.37812 9.97126 8.02124 9.9077 8.60514 9.66456C9.18903 9.42142 9.68719 9.00975 10.036 8.48212C10.3848 7.95449 10.5684 7.33486 10.5633 6.70239C10.5633 5.85239 10.2276 5.03639 9.6283 4.43501C9.33323 4.13779 8.98233 3.90181 8.59577 3.74063C8.20921 3.57944 7.79462 3.49622 7.3758 3.49576ZM7.3758 7.77126C7.23565 7.77155 7.09684 7.74405 6.96739 7.69035C6.83793 7.63666 6.72041 7.55784 6.6216 7.45844C6.5228 7.35905 6.44468 7.24105 6.39176 7.11128C6.33885 6.98151 6.31218 6.84253 6.3133 6.70239C6.31385 6.42017 6.42577 6.14959 6.62473 5.94944C6.82368 5.74928 7.0936 5.63575 7.3758 5.63351C7.65714 5.63847 7.92548 5.75287 8.12386 5.95244C8.32223 6.152 8.43503 6.42102 8.4383 6.70239C8.43775 6.9846 8.32583 7.25519 8.12688 7.45534C7.92792 7.65549 7.658 7.76902 7.3758 7.77126Z" fill="#EE4248"/>
</svg>
